<svg width="119" height="44" viewBox="0 0 119 44" fill="none" xmlns="http://www.w3.org/2000/svg">
<rect x="0.75" y="0.75" width="117.199" height="42.9705" rx="7.49528" fill="black" stroke="white" stroke-width="0.5"/>
<path d="M27.7475 22.877C27.7706 21.0826 28.7305 19.3847 30.2532 18.4449C29.2926 17.0676 27.6835 16.1943 26.0095 16.1417C24.2239 15.9536 22.493 17.2143 21.5831 17.2143C20.6556 17.2143 19.2547 16.1604 17.7462 16.1915C15.7799 16.2553 13.9468 17.3776 12.9902 19.1034C10.9338 22.6776 12.4677 27.9306 14.4375 30.8197C15.4231 32.2344 16.5749 33.8147 18.0821 33.7587C19.557 33.6973 20.1078 32.8146 21.8881 32.8146C23.6518 32.8146 24.1686 33.7587 25.7063 33.7231C27.2889 33.6973 28.286 32.302 29.237 30.8739C29.9451 29.8659 30.49 28.7517 30.8515 27.5728C28.9917 26.7831 27.7497 24.9042 27.7475 22.877Z" fill="white"/>
<path d="M24.843 14.2417C25.7059 13.2017 26.131 11.8651 26.028 10.5156C24.7097 10.6546 23.492 11.2871 22.6174 12.2872C21.7622 13.2642 21.3172 14.5773 21.4013 15.8752C22.7201 15.8889 24.0166 15.2735 24.843 14.2417Z" fill="white"/>
<path d="M80.3529 21.0262V23.2005H78.9953V24.6265H80.3529V29.4716C80.3529 31.126 81.0985 31.7878 82.974 31.7878C83.3036 31.7878 83.6175 31.7484 83.8922 31.7011V30.2909C83.6568 30.3146 83.5077 30.3303 83.2487 30.3303C82.409 30.3303 82.0402 29.9364 82.0402 29.0383V24.6265H83.8922V23.2005H82.0402V21.0262H80.3529Z" fill="white"/>
<path d="M88.6701 31.9059C91.1656 31.9059 92.6959 30.2279 92.6959 27.4469C92.6959 24.6816 91.1578 22.9957 88.6701 22.9957C86.1746 22.9957 84.6365 24.6816 84.6365 27.4469C84.6365 30.2279 86.1667 31.9059 88.6701 31.9059ZM88.6701 30.4012C87.2026 30.4012 86.3786 29.3219 86.3786 27.4469C86.3786 25.5876 87.2026 24.5004 88.6701 24.5004C90.1297 24.5004 90.9616 25.5876 90.9616 27.4469C90.9616 29.314 90.1297 30.4012 88.6701 30.4012Z" fill="white"/>
<path d="M94.0052 31.7405H95.6924V26.6748C95.6924 25.4695 96.5949 24.658 97.874 24.658C98.1722 24.658 98.6745 24.7132 98.8157 24.7604V23.0903C98.6352 23.043 98.3135 23.0193 98.0624 23.0193C96.948 23.0193 95.9985 23.6338 95.7552 24.4768H95.6296V23.1612H94.0052V31.7405Z" fill="white"/>
<path d="M103.005 24.4374C104.253 24.4374 105.069 25.3119 105.108 26.6591H100.792C100.886 25.3198 101.757 24.4374 103.005 24.4374ZM105.1 29.4243C104.786 30.094 104.088 30.4642 103.068 30.4642C101.718 30.4642 100.847 29.511 100.792 28.0062V27.9117H106.827V27.3208C106.827 24.6265 105.391 22.9957 103.013 22.9957C100.604 22.9957 99.0734 24.7368 99.0734 27.4784C99.0734 30.22 100.572 31.9059 103.021 31.9059C104.975 31.9059 106.34 30.9606 106.725 29.4243H105.1Z" fill="white"/>
<path d="M69.2884 28.5723C69.4185 30.679 71.1673 32.0263 73.7701 32.0263C76.5518 32.0263 78.2924 30.6137 78.2924 28.36C78.2924 26.5881 77.3001 25.6082 74.8925 25.0448L73.5993 24.7263C72.0701 24.367 71.452 23.8853 71.452 23.0442C71.452 21.9827 72.4117 21.2886 73.8514 21.2886C75.2179 21.2886 76.1614 21.9664 76.3322 23.0524H78.1054C77.9996 21.0682 76.259 19.6719 73.8758 19.6719C71.3137 19.6719 69.6056 21.0682 69.6056 23.1667C69.6056 24.8978 70.5735 25.9267 72.6964 26.4248L74.2093 26.7922C75.7628 27.1596 76.4461 27.6986 76.4461 28.5968C76.4461 29.642 75.3724 30.4014 73.9083 30.4014C72.3385 30.4014 71.2486 29.691 71.0941 28.5723H69.2884Z" fill="white"/>
<path d="M51.8104 23.0193C50.649 23.0193 49.6445 23.6023 49.1266 24.5792H49.001V23.1612H47.3766V34.5924H49.0638V30.4406H49.1972C49.6445 31.3466 50.6098 31.8823 51.8261 31.8823C53.9842 31.8823 55.3575 30.1727 55.3575 27.4469C55.3575 24.721 53.9842 23.0193 51.8104 23.0193ZM51.3317 30.3618C49.9192 30.3618 49.0324 29.2431 49.0324 27.4548C49.0324 25.6585 49.9192 24.5398 51.3396 24.5398C52.7678 24.5398 53.6232 25.6349 53.6232 27.4469C53.6232 29.2668 52.7678 30.3618 51.3317 30.3618Z" fill="white"/>
<path d="M61.2614 23.0193C60.1 23.0193 59.0955 23.6023 58.5775 24.5792H58.452V23.1612H56.8275V34.5924H58.5148V30.4406H58.6482C59.0955 31.3466 60.0607 31.8823 61.2771 31.8823C63.4352 31.8823 64.8085 30.1727 64.8085 27.4469C64.8085 24.721 63.4352 23.0193 61.2614 23.0193ZM60.7827 30.3618C59.3701 30.3618 58.4834 29.2431 58.4834 27.4548C58.4834 25.6585 59.3701 24.5398 60.7906 24.5398C62.2188 24.5398 63.0742 25.6349 63.0742 27.4469C63.0742 29.2668 62.2188 30.3618 60.7827 30.3618Z" fill="white"/>
<path d="M44.3494 31.7405H46.2852L42.0475 19.9577H40.0873L35.8496 31.7405H37.7204L38.8022 28.6131H43.2757L44.3494 31.7405ZM40.9739 22.097H41.1122L42.8121 27.078H39.2658L40.9739 22.097Z" fill="white"/>
<path d="M35.8027 11.6471V16.3046H37.4778C38.8603 16.3046 39.6608 15.4493 39.6608 13.9613C39.6608 12.496 38.8538 11.6471 37.4778 11.6471H35.8027ZM36.5229 12.3056H37.3974C38.3587 12.3056 38.9278 12.9188 38.9278 13.971C38.9278 15.0394 38.3684 15.6461 37.3974 15.6461H36.5229V12.3056Z" fill="white"/>
<path d="M42.1126 16.3724C43.135 16.3724 43.762 15.6849 43.762 14.5455C43.762 13.4126 43.1318 12.7219 42.1126 12.7219C41.0902 12.7219 40.4601 13.4126 40.4601 14.5455C40.4601 15.6849 41.087 16.3724 42.1126 16.3724ZM42.1126 15.7559C41.5114 15.7559 41.1738 15.3137 41.1738 14.5455C41.1738 13.7838 41.5114 13.3384 42.1126 13.3384C42.7106 13.3384 43.0514 13.7838 43.0514 14.5455C43.0514 15.3105 42.7106 15.7559 42.1126 15.7559Z" fill="white"/>
<path d="M49.1009 12.7897H48.4097L47.7859 15.4719H47.7313L47.0111 12.7897H46.3488L45.6286 15.4719H45.5772L44.9502 12.7897H44.2494L45.2139 16.3046H45.9244L46.6446 13.716H46.6992L47.4226 16.3046H48.1396L49.1009 12.7897Z" fill="white"/>
<path d="M49.897 16.3046H50.5882V14.2486C50.5882 13.6999 50.9129 13.3578 51.4241 13.3578C51.9353 13.3578 52.1797 13.6386 52.1797 14.2034V16.3046H52.8709V14.0291C52.8709 13.1932 52.4401 12.7219 51.6588 12.7219C51.1315 12.7219 50.7843 12.9575 50.6139 13.3481H50.5625V12.7897H49.897V16.3046Z" fill="white"/>
<path d="M53.9595 16.3046H54.6508V11.418H53.9595V16.3046Z" fill="white"/>
<path d="M57.2505 16.3724C58.2729 16.3724 58.8998 15.6849 58.8998 14.5455C58.8998 13.4126 58.2696 12.7219 57.2505 12.7219C56.2281 12.7219 55.5979 13.4126 55.5979 14.5455C55.5979 15.6849 56.2249 16.3724 57.2505 16.3724ZM57.2505 15.7559C56.6492 15.7559 56.3117 15.3137 56.3117 14.5455C56.3117 13.7838 56.6492 13.3384 57.2505 13.3384C57.8485 13.3384 58.1893 13.7838 58.1893 14.5455C58.1893 15.3105 57.8485 15.7559 57.2505 15.7559Z" fill="white"/>
<path d="M60.9594 15.7785C60.5832 15.7785 60.3099 15.5945 60.3099 15.2782C60.3099 14.9683 60.5285 14.8037 61.0108 14.7715L61.866 14.7166V15.0103C61.866 15.446 61.4802 15.7785 60.9594 15.7785ZM60.7825 16.3627C61.2423 16.3627 61.6249 16.1626 61.8339 15.8108H61.8885V16.3046H62.554V13.9032C62.554 13.1609 62.0589 12.7219 61.1812 12.7219C60.3871 12.7219 59.8212 13.1092 59.7505 13.7128H60.4192C60.4964 13.4643 60.7632 13.3223 61.149 13.3223C61.6217 13.3223 61.866 13.5321 61.866 13.9032V14.2066L60.9176 14.2615C60.0849 14.3131 59.6155 14.6779 59.6155 15.3105C59.6155 15.9528 60.1074 16.3627 60.7825 16.3627Z" fill="white"/>
<path d="M64.8997 16.3627C65.382 16.3627 65.7903 16.1335 65.9993 15.7494H66.054V16.3046H66.7163V11.418H66.025V13.3481H65.9736C65.7839 12.9608 65.3788 12.7316 64.8997 12.7316C64.0156 12.7316 63.4465 13.4352 63.4465 14.5455C63.4465 15.6591 64.0092 16.3627 64.8997 16.3627ZM65.0959 13.3545C65.6746 13.3545 66.0379 13.8161 66.0379 14.5488C66.0379 15.2847 65.6778 15.7397 65.0959 15.7397C64.5107 15.7397 64.1603 15.2911 64.1603 14.5455C64.1603 13.8064 64.5139 13.3545 65.0959 13.3545Z" fill="white"/>
<path d="M71.1987 16.3724C72.2211 16.3724 72.848 15.6849 72.848 14.5455C72.848 13.4126 72.2179 12.7219 71.1987 12.7219C70.1763 12.7219 69.5462 13.4126 69.5462 14.5455C69.5462 15.6849 70.1731 16.3724 71.1987 16.3724ZM71.1987 15.7559C70.5975 15.7559 70.2599 15.3137 70.2599 14.5455C70.2599 13.7838 70.5975 13.3384 71.1987 13.3384C71.7967 13.3384 72.1375 13.7838 72.1375 14.5455C72.1375 15.3105 71.7967 15.7559 71.1987 15.7559Z" fill="white"/>
<path d="M73.7631 16.3046H74.4543V14.2486C74.4543 13.6999 74.779 13.3578 75.2902 13.3578C75.8014 13.3578 76.0457 13.6386 76.0457 14.2034V16.3046H76.737V14.0291C76.737 13.1932 76.3062 12.7219 75.5249 12.7219C74.9976 12.7219 74.6504 12.9575 74.48 13.3481H74.4286V12.7897H73.7631V16.3046Z" fill="white"/>
<path d="M79.9206 11.915V12.8058H79.3643V13.39H79.9206V15.375C79.9206 16.0528 80.226 16.3239 80.9944 16.3239C81.1294 16.3239 81.258 16.3078 81.3705 16.2884V15.7107C81.2741 15.7204 81.213 15.7268 81.1069 15.7268C80.7629 15.7268 80.6118 15.5655 80.6118 15.1975V13.39H81.3705V12.8058H80.6118V11.915H79.9206Z" fill="white"/>
<path d="M82.2984 16.3046H82.9897V14.2518C82.9897 13.7193 83.3047 13.361 83.8706 13.361C84.3593 13.361 84.6197 13.645 84.6197 14.2066V16.3046H85.3109V14.0356C85.3109 13.1996 84.8512 12.7252 84.1053 12.7252C83.578 12.7252 83.2083 12.9608 83.0379 13.3545H82.9832V11.418H82.2984V16.3046Z" fill="white"/>
<path d="M87.8045 13.3126C88.3157 13.3126 88.6501 13.6708 88.6662 14.2228H86.8979C86.9365 13.6741 87.2933 13.3126 87.8045 13.3126ZM88.663 15.3557C88.5344 15.63 88.2482 15.7817 87.8303 15.7817C87.2773 15.7817 86.9204 15.3912 86.8979 14.7747V14.736H89.3703V14.4939C89.3703 13.39 88.7819 12.7219 87.8078 12.7219C86.8207 12.7219 86.1938 13.4352 86.1938 14.5584C86.1938 15.6817 86.8079 16.3724 87.811 16.3724C88.6115 16.3724 89.1709 15.985 89.3285 15.3557H88.663Z" fill="white"/>
</svg>
