<svg width="156" height="50" viewBox="0 0 156 50" fill="none" xmlns="http://www.w3.org/2000/svg">
<path d="M139.505 0C139.505 8.81289 146.649 15.9571 155.462 15.9571C147.124 15.9571 140.28 22.3524 139.566 30.5053C139.526 30.9696 139.505 31.4395 139.505 31.9143C139.505 26.6291 136.936 21.9441 132.978 19.0401C131.055 17.6296 128.603 16.7323 126.349 17.51C126.225 17.5525 126.104 17.5971 125.986 17.6437C125.404 17.8683 124.866 18.1225 124.333 18.4316C123.386 18.9807 122.574 19.7325 121.764 20.4823C120.778 21.3956 119.795 22.3059 118.575 22.8434C117.644 23.2534 116.615 23.481 115.533 23.481C114.788 23.481 114.068 23.3735 113.389 23.1727C112.619 22.9775 111.941 22.6517 111.261 22.1579C111.088 22.0391 110.92 21.9134 110.758 21.7811C110.275 21.3869 109.842 20.9344 109.469 20.4339C108.335 18.9506 107.881 17.2158 107.988 15.5347C108.192 11.5445 111.492 8.37184 115.533 8.37184C116.494 8.37184 117.413 8.55124 118.258 8.87841C119.664 9.42234 120.779 10.4526 121.897 11.4859C122.893 12.4065 123.891 13.3296 125.101 13.9133C125.549 14.1294 126.005 14.3121 126.473 14.4633C128.661 15.1687 131.011 14.2937 132.875 12.9488C136.891 10.0509 139.505 5.33073 139.505 0Z" fill="white"/>
<path fill-rule="evenodd" clip-rule="evenodd" d="M139.566 30.5053C139.192 22.0243 132.198 15.2634 123.625 15.2634C118.344 15.2634 113.662 17.8286 110.758 21.7811C110.92 21.9134 111.088 22.0391 111.261 22.1579C111.941 22.6517 112.619 22.9775 113.389 23.1727C114.068 23.3735 114.788 23.481 115.533 23.481C116.615 23.481 117.644 23.2534 118.575 22.8434C119.795 22.3059 120.778 21.3956 121.764 20.4823C122.574 19.7325 123.386 18.9807 124.333 18.4316C124.866 18.1225 125.404 17.8683 125.986 17.6437C126.104 17.5971 126.225 17.5525 126.349 17.51C128.603 16.7323 131.055 17.6296 132.978 19.0401C136.936 21.9441 139.505 26.6291 139.505 31.9143C139.505 31.4395 139.526 30.9696 139.566 30.5053Z" fill="#F04400"/>
<path d="M131.269 43.1748V39.6267L130.932 38.8495V32.4967C130.932 31.3703 130.582 30.4917 129.884 29.8609C129.208 29.2302 128.161 28.9148 126.741 28.9148C125.773 28.9148 124.815 29.0725 123.869 29.3878C122.945 29.6807 122.157 30.0862 121.504 30.6043L119.611 26.9211C120.603 26.2227 121.797 25.682 123.193 25.2991C124.59 24.9161 126.009 24.7246 127.451 24.7246C130.222 24.7246 132.373 25.3779 133.905 26.6845C135.437 27.9911 136.203 30.0299 136.203 32.8008V43.1748H131.269ZM125.728 43.4452C124.308 43.4452 123.092 43.2086 122.078 42.7355C121.064 42.2399 120.287 41.5754 119.747 40.7418C119.206 39.9083 118.936 38.9734 118.936 37.9371C118.936 36.8558 119.195 35.9096 119.713 35.0986C120.253 34.2876 121.098 33.6569 122.247 33.2063C123.396 32.7332 124.894 32.4967 126.741 32.4967H131.574V35.5717H127.316C126.077 35.5717 125.221 35.7745 124.748 36.18C124.297 36.5855 124.072 37.0923 124.072 37.7006C124.072 38.3764 124.331 38.9171 124.849 39.3226C125.39 39.7056 126.122 39.897 127.046 39.897C127.924 39.897 128.713 39.6943 129.411 39.2888C130.109 38.8608 130.616 38.2413 130.932 37.4303L131.743 39.8632C131.36 41.0347 130.661 41.9245 129.647 42.5328C128.634 43.141 127.327 43.4452 125.728 43.4452Z" fill="white"/>
<path d="M110.901 43.1793V24.9994H116.173V43.1793H110.901Z" fill="white"/>
<path d="M36.1253 21.823C36.7335 22.3862 37.522 22.6678 38.4907 22.6678C39.4819 22.6678 40.2704 22.3862 40.8561 21.823C41.4643 21.2373 41.7685 20.5052 41.7685 19.6266C41.7685 18.7931 41.4643 18.1172 40.8561 17.5991C40.2478 17.0584 39.4594 16.7881 38.4907 16.7881C37.522 16.7881 36.7335 17.0697 36.1253 17.6329C35.517 18.1961 35.2129 18.8944 35.2129 19.728C35.2129 20.5615 35.517 21.2598 36.1253 21.823Z" fill="white"/>
<path d="M99.0609 43.4452C97.5065 43.4452 96.0084 43.2649 94.5667 42.9045C93.1474 42.5215 92.021 42.0484 91.1875 41.4852L92.9447 37.7006C93.7782 38.2187 94.7581 38.6468 95.8845 38.9847C97.0334 39.3001 98.1598 39.4578 99.2637 39.4578C100.48 39.4578 101.336 39.3113 101.832 39.0185C102.35 38.7256 102.609 38.3201 102.609 37.802C102.609 37.3739 102.406 37.0585 102.001 36.8558C101.618 36.6305 101.1 36.4616 100.446 36.3489C99.7931 36.2363 99.0722 36.1236 98.2837 36.011C97.5178 35.8984 96.7406 35.7519 95.9521 35.5717C95.1636 35.369 94.4428 35.0761 93.7894 34.6931C93.1361 34.3102 92.6067 33.792 92.2012 33.1387C91.8183 32.4854 91.6268 31.6406 91.6268 30.6043C91.6268 29.4554 91.9534 28.4417 92.6067 27.5631C93.2826 26.6845 94.2513 25.9974 95.5128 25.5018C96.7744 24.9837 98.2837 24.7246 100.041 24.7246C101.28 24.7246 102.541 24.8598 103.826 25.1301C105.11 25.4004 106.18 25.7947 107.036 26.3128L105.279 30.0637C104.4 29.5455 103.51 29.1964 102.609 29.0161C101.73 28.8134 100.874 28.712 100.041 28.712C98.8695 28.712 98.0134 28.8697 97.4727 29.1851C96.9321 29.5005 96.6617 29.906 96.6617 30.4016C96.6617 30.8522 96.8532 31.1901 97.2362 31.4153C97.6417 31.6406 98.1711 31.8208 98.8244 31.956C99.4777 32.0912 100.187 32.2151 100.953 32.3277C101.742 32.4178 102.53 32.5643 103.319 32.767C104.107 32.9698 104.817 33.2626 105.448 33.6456C106.101 34.006 106.63 34.5129 107.036 35.1662C107.441 35.797 107.644 36.6305 107.644 37.6668C107.644 38.7932 107.306 39.7957 106.63 40.6742C105.954 41.5303 104.974 42.2061 103.69 42.7017C102.429 43.1974 100.886 43.4452 99.0609 43.4452Z" fill="white"/>
<path d="M77.8345 50.0007C76.1224 50.0007 74.4666 49.7867 72.8672 49.3587C71.2902 48.9532 69.9724 48.3337 68.9135 47.5001L71.0086 43.7155C71.7746 44.3463 72.7433 44.8419 73.9147 45.2023C75.1087 45.5853 76.2801 45.7768 77.429 45.7768C79.2988 45.7768 80.6505 45.36 81.484 44.5265C82.3401 43.693 82.7681 42.4539 82.7681 40.8094V38.0723L83.106 33.5104L83.0384 28.9148V24.9949H88.0396V40.1336C88.0396 43.5127 87.161 46.0021 85.4039 47.6015C83.6467 49.201 81.1236 50.0007 77.8345 50.0007ZM77.0235 42.2962C75.334 42.2962 73.8021 41.9358 72.4279 41.2149C71.0762 40.4715 69.9836 39.4465 69.1501 38.1399C68.3391 36.8107 67.9336 35.2676 67.9336 33.5104C67.9336 31.7307 68.3391 30.1876 69.1501 28.881C69.9836 27.5518 71.0762 26.5268 72.4279 25.8059C73.8021 25.0851 75.334 24.7246 77.0235 24.7246C78.5554 24.7246 79.9071 25.04 81.0785 25.6708C82.25 26.279 83.1623 27.2365 83.8156 28.5431C84.4689 29.8271 84.7956 31.4829 84.7956 33.5104C84.7956 35.5154 84.4689 37.1712 83.8156 38.4778C83.1623 39.7619 82.25 40.7193 81.0785 41.3501C79.9071 41.9809 78.5554 42.2962 77.0235 42.2962ZM78.0711 37.9709C78.9947 37.9709 79.817 37.7907 80.5379 37.4302C81.2587 37.0473 81.8219 36.5179 82.2274 35.842C82.6329 35.1662 82.8357 34.389 82.8357 33.5104C82.8357 32.6093 82.6329 31.8321 82.2274 31.1788C81.8219 30.503 81.2587 29.9848 80.5379 29.6244C79.817 29.2414 78.9947 29.0499 78.0711 29.0499C77.1474 29.0499 76.3252 29.2414 75.6043 29.6244C74.8834 29.9848 74.3089 30.503 73.8809 31.1788C73.4754 31.8321 73.2727 32.6093 73.2727 33.5104C73.2727 34.389 73.4754 35.1662 73.8809 35.842C74.3089 36.5179 74.8834 37.0473 75.6043 37.4302C76.3252 37.7907 77.1474 37.9709 78.0711 37.9709Z" fill="white"/>
<path d="M56.8428 24.7246C58.2846 24.7246 59.5687 25.0175 60.6951 25.6032C61.844 26.1664 62.7451 27.045 63.3984 28.2389C64.0517 29.4104 64.3784 30.9197 64.3784 32.767V43.1748H59.1069V33.578C59.1069 32.1137 58.7802 31.0324 58.1269 30.334C57.4961 29.6357 56.595 29.2865 55.4236 29.2865C54.5901 29.2865 53.8354 29.4667 53.1595 29.8271C52.5062 30.1651 51.9881 30.6945 51.6051 31.4153C51.2447 32.1362 51.0645 33.0599 51.0645 34.1863V43.1748H45.793V24.9949H50.8279V30.0299L49.8818 28.5093C50.5351 27.2928 51.47 26.3579 52.6865 25.7046C53.903 25.0513 55.2884 24.7246 56.8428 24.7246Z" fill="white"/>
<path d="M35.6289 43.176V24.9961H40.9004V43.176H35.6289Z" fill="white"/>
<path d="M25.4668 43.1788V18.1055H30.7383V43.1788H25.4668Z" fill="white"/>
<path d="M0 43.1837V19.5295H11.5567C14.5304 19.5295 16.7606 20.0927 18.2475 21.2191C19.7568 22.3455 20.5115 23.8323 20.5115 25.6796C20.5115 26.9186 20.2074 28 19.5991 28.9236C18.9909 29.8247 18.1574 30.5231 17.0986 31.0187C16.0397 31.5143 14.8233 31.7621 13.4491 31.7621L14.0911 30.3766C15.5779 30.3766 16.8958 30.6244 18.0447 31.1201C19.1936 31.5931 20.0835 32.3028 20.7143 33.2489C21.3676 34.1951 21.6942 35.3553 21.6942 36.7295C21.6942 38.757 20.8945 40.3452 19.295 41.4941C17.6955 42.6205 15.3414 43.1837 12.2326 43.1837H0ZM5.44045 39.0611H11.8271C13.2463 39.0611 14.3164 38.8358 15.0373 38.3853C15.7807 37.9122 16.1524 37.1688 16.1524 36.155C16.1524 35.1638 15.7807 34.4316 15.0373 33.9586C14.3164 33.4629 13.2463 33.2151 11.8271 33.2151H5.03495V29.2277H10.8809C12.21 29.2277 13.2238 29.0025 13.9221 28.5519C14.643 28.0788 15.0035 27.3692 15.0035 26.423C15.0035 25.4994 14.643 24.8123 13.9221 24.3617C13.2238 23.8887 12.21 23.6521 10.8809 23.6521H5.44045V39.0611Z" fill="white"/>
</svg>
