<svg width="20" height="24" viewBox="0 0 20 24" fill="none" xmlns="http://www.w3.org/2000/svg">
<path d="M16.5437 12.7632C16.5164 9.73112 19.027 8.25602 19.1418 8.18735C17.72 6.11487 15.5162 5.83171 14.7417 5.80913C12.8908 5.6144 11.0953 6.91639 10.1525 6.91639C9.19075 6.91639 7.73879 5.82795 6.17391 5.85993C4.16017 5.89098 2.27629 7.05656 1.24307 8.86657C-0.889231 12.5571 0.701059 17.9806 2.74397 20.9637C3.76589 22.4256 4.96002 24.0559 6.52302 23.9985C8.05215 23.9364 8.62333 23.0249 10.4686 23.0249C12.297 23.0249 12.8334 23.9985 14.4274 23.9618C16.0685 23.9364 17.1017 22.4943 18.0879 21.0201C19.2689 19.3465 19.7431 17.6964 19.7619 17.6118C19.7243 17.5986 16.5757 16.3963 16.5437 12.7632ZM13.5325 3.84673C14.355 2.81849 14.9177 1.41959 14.7615 0C13.5711 0.052682 12.0824 0.823156 11.2252 1.82882C10.4668 2.715 9.78923 4.16752 9.96426 5.53349C11.3014 5.63321 12.6743 4.85897 13.5325 3.84673Z" fill="#00000D"/>
</svg>
