<svg width="17" height="18" viewBox="0 0 17 18" fill="none" xmlns="http://www.w3.org/2000/svg">
<path d="M8.94452 8.60872L11.8984 5.64942L2.3575 0.27725C1.72517 -0.0650157 1.1328 -0.113053 0.61335 0.261238L8.94452 8.60872ZM12.4019 12.0734L15.4726 10.3431C16.072 10.0068 16.4006 9.53043 16.4006 9.00202C16.4006 8.47461 16.072 7.99724 15.4736 7.66098L12.6936 6.09677L9.56387 9.2312L12.4019 12.0734ZM0.0998941 0.988802C0.0359618 1.18595 0 1.40613 0 1.64731V16.3637C0 16.745 0.0839112 17.0733 0.23575 17.3345L8.32418 9.2302L0.0998941 0.988802ZM8.94452 9.85068L0.901045 17.9099C1.05488 17.969 1.22071 18 1.39552 18C1.70719 18 2.03185 17.9079 2.3625 17.7238L11.6077 12.5228L8.94452 9.85068Z" fill="#00000D"/>
</svg>
