<svg width="116" height="44" viewBox="0 0 116 44" fill="none" xmlns="http://www.w3.org/2000/svg">
<rect x="0.449219" y="0.75" width="114.449" height="42.9705" rx="7.49528" fill="black" stroke="white" stroke-width="0.5"/>
<g filter="url(#filter0_ii_229_6204)">
<path d="M11.8047 12.9507C11.8047 12.4681 11.9326 12.1068 12.135 11.8734L22.4915 22.2711V22.3435V22.4159L12.1346 32.8132C11.9324 32.5798 11.8047 32.2194 11.8047 31.7363V12.9507Z" fill="white" stroke="black" stroke-width="0.25"/>
<path d="M22.7422 22.2706L26.1326 18.867L30.2684 21.2259C30.2684 21.2259 30.2684 21.2259 30.2684 21.2259C30.8365 21.5501 31.0918 21.9598 31.0918 22.3435C31.0918 22.7273 30.8365 23.1373 30.2683 23.4619L26.1326 25.8207L22.7422 22.4154V22.343V22.2706Z" fill="white" stroke="black" stroke-width="0.25"/>
<g filter="url(#filter1_i_229_6204)">
<path d="M26.1904 25.9317L22.6165 22.3437L12.0723 32.9299C12.4615 33.3445 13.1054 33.3954 13.8305 32.9826L26.1904 25.9317Z" fill="white"/>
</g>
<path d="M12.2516 32.9271L22.6165 22.5209L25.9865 25.9041L13.7686 32.874C13.1304 33.2373 12.5946 33.2096 12.2516 32.9271Z" stroke="black" stroke-width="0.25"/>
<path d="M22.6173 22.1651L12.2515 11.759C12.5947 11.4762 13.1305 11.448 13.7685 11.812L13.7685 11.812L25.9865 18.7811L22.6173 22.1651ZM12.0723 11.7561L12.0723 11.7561L12.0723 11.7561L12.0723 11.7561C12.0723 11.7561 12.0723 11.7561 12.0723 11.7561Z" fill="white" stroke="#080808" stroke-width="0.25"/>
</g>
<path d="M57.8018 23.3704C55.9222 23.3704 54.3903 24.7993 54.3903 26.7674C54.3903 28.7234 55.9222 30.1643 57.8018 30.1643C59.6821 30.1643 61.214 28.7234 61.214 26.7674C61.2132 24.7993 59.6813 23.3704 57.8018 23.3704ZM57.8018 28.8273C56.7717 28.8273 55.8839 27.9782 55.8839 26.7682C55.8839 25.5453 56.7725 24.7091 57.8018 24.7091C58.8318 24.7091 59.7196 25.5453 59.7196 26.7682C59.7196 27.9774 58.8318 28.8273 57.8018 28.8273ZM50.3587 23.3704C48.4792 23.3704 46.9473 24.7993 46.9473 26.7674C46.9473 28.7234 48.4792 30.1643 50.3587 30.1643C52.2391 30.1643 53.771 28.7234 53.771 26.7674C53.771 24.7993 52.2391 23.3704 50.3587 23.3704ZM50.3587 28.8273C49.3287 28.8273 48.4409 27.9782 48.4409 26.7682C48.4409 25.5453 49.3295 24.7091 50.3587 24.7091C51.3888 24.7091 52.2766 25.5453 52.2766 26.7682C52.2774 27.9774 51.3888 28.8273 50.3587 28.8273ZM41.5061 24.4136V25.8544H44.9567C44.8536 26.6651 44.5835 27.257 44.1712 27.6683C43.6693 28.1699 42.8838 28.7234 41.5061 28.7234C39.382 28.7234 37.7215 27.0118 37.7215 24.8888C37.7215 22.7658 39.382 21.0542 41.5061 21.0542C42.652 21.0542 43.4887 21.5046 44.1064 22.0837L45.1237 21.0669C44.2607 20.2435 43.1155 19.6133 41.5061 19.6133C38.5965 19.6133 36.1504 21.9807 36.1504 24.8888C36.1504 27.7969 38.5965 30.1643 41.5061 30.1643C43.0764 30.1643 44.2615 29.6491 45.1876 28.6843C46.1402 27.7322 46.4367 26.3936 46.4367 25.3129C46.4367 24.9791 46.4111 24.67 46.3592 24.4128L41.5061 24.4136ZM77.7126 25.5326C77.4298 24.7738 76.5667 23.3704 74.803 23.3704C73.0522 23.3704 71.597 24.7474 71.597 26.7674C71.597 28.6715 73.0394 30.1643 74.9701 30.1643C76.5275 30.1643 77.429 29.2122 77.8029 28.6587L76.6442 27.8864C76.2582 28.4527 75.73 28.8257 74.9701 28.8257C74.2109 28.8257 73.6699 28.4782 73.3223 27.7961L77.8669 25.9175L77.7126 25.5326ZM73.0777 26.6651C73.0394 25.3521 74.095 24.6835 74.855 24.6835C75.4471 24.6835 75.949 24.9799 76.1168 25.404L73.0777 26.6651ZM69.3834 29.959H70.8762V19.9743H69.3834V29.959ZM66.9365 24.13H66.8854C66.5505 23.7307 65.9064 23.3704 65.0961 23.3704C63.3964 23.3704 61.8389 24.8632 61.8389 26.781C61.8389 28.6851 63.3964 30.1651 65.0961 30.1651C65.9072 30.1651 66.5505 29.8049 66.8854 29.3936H66.9365V29.8824C66.9365 31.1819 66.2413 31.8768 65.1217 31.8768C64.2075 31.8768 63.6409 31.221 63.4092 30.6675L62.109 31.2082C62.4822 32.1084 63.4731 33.2154 65.1217 33.2154C66.8726 33.2154 68.3533 32.1859 68.3533 29.6763V23.5773H66.9373L66.9365 24.13ZM65.2248 28.8273C64.1947 28.8273 63.3325 27.9647 63.3325 26.781C63.3325 25.5837 64.1947 24.7091 65.2248 24.7091C66.2413 24.7091 67.0396 25.5837 67.0396 26.781C67.0396 27.9647 66.2413 28.8273 65.2248 28.8273ZM84.7081 19.9743H81.1353V29.959H82.6256V26.1763H84.7073C86.3599 26.1763 87.9853 24.9807 87.9853 23.0757C87.9853 21.1708 86.3607 19.9743 84.7081 19.9743ZM84.7465 24.7866H82.6256V21.3641H84.7465C85.8613 21.3641 86.4942 22.2866 86.4942 23.0757C86.4942 23.8489 85.8613 24.7866 84.7465 24.7866ZM93.962 23.3529C92.8823 23.3529 91.7644 23.8281 91.3017 24.8816L92.625 25.4335C92.9079 24.8816 93.4353 24.7011 93.9875 24.7011C94.7587 24.7011 95.5426 25.1636 95.5554 25.9854V26.0885C95.2853 25.9343 94.7067 25.7035 94.0003 25.7035C92.5739 25.7035 91.1211 26.487 91.1211 27.9511C91.1211 29.2873 92.291 30.1475 93.6015 30.1475C94.6036 30.1475 95.1566 29.6979 95.5035 29.1707H95.5546V29.9415H96.9946V26.1132C96.9954 24.3417 95.6705 23.3529 93.962 23.3529ZM93.7814 28.8249C93.2939 28.8249 92.6122 28.5805 92.6122 27.9766C92.6122 27.2059 93.4609 26.9103 94.1937 26.9103C94.8482 26.9103 95.1574 27.0517 95.5554 27.2442C95.4395 28.1699 94.6428 28.8249 93.7814 28.8249ZM102.238 23.5709L100.529 27.9H100.478L98.7039 23.5709H97.0977L99.758 29.6212L98.2412 32.987H99.7963L103.897 23.5709H102.238ZM88.8084 29.959H90.2988V19.9743H88.8084V29.959Z" fill="white"/>
<path d="M41.3197 14.0671C41.3197 14.7243 41.1217 15.2474 40.7249 15.638C40.2746 16.1022 39.6869 16.3344 38.9652 16.3344C38.2738 16.3344 37.6853 16.0991 37.2023 15.6285C36.7185 15.1572 36.4766 14.5737 36.4766 13.8773C36.4766 13.1801 36.7185 12.5967 37.2023 12.1261C37.6853 11.6548 38.2738 11.4195 38.9652 11.4195C39.3085 11.4195 39.6366 11.4854 39.948 11.6163C40.2602 11.7481 40.5101 11.923 40.6969 12.1418L40.2762 12.5559C39.9592 12.1834 39.5225 11.9975 38.9644 11.9975C38.4598 11.9975 38.0239 12.1716 37.6558 12.5198C37.2877 12.868 37.1041 13.3205 37.1041 13.8765C37.1041 14.4326 37.2877 14.8851 37.6558 15.2333C38.0239 15.5815 38.4598 15.7556 38.9644 15.7556C39.4993 15.7556 39.9456 15.5807 40.3025 15.2301C40.5341 15.0019 40.6682 14.6843 40.7041 14.2773H38.9644V13.7118H41.2854C41.3093 13.835 41.3197 13.9534 41.3197 14.0671Z" fill="white"/>
<path d="M45.0004 12.1018H42.8192V13.5935H44.7864V14.1589H42.8192V15.6505H45.0004V16.2293H42.2036V11.5238H45.0004V12.1018Z" fill="white"/>
<path d="M47.5959 16.2293H46.9804V12.1018H45.6422V11.5238H48.9341V12.1018H47.5959V16.2293Z" fill="white"/>
<path d="M51.3157 16.2293V11.5238H51.9312V16.2293H51.3157Z" fill="white"/>
<path d="M54.6611 16.2293H54.0455V12.1018H52.7074V11.5238H55.9992V12.1018H54.6611V16.2293Z" fill="white"/>
<path d="M62.2306 15.6215C61.7595 16.0968 61.1743 16.3344 60.4741 16.3344C59.7739 16.3344 59.1887 16.0968 58.7184 15.6215C58.2474 15.1463 58.0126 14.5644 58.0126 13.8766C58.0126 13.1888 58.2474 12.6069 58.7184 12.1316C59.1887 11.6564 59.7739 11.418 60.4741 11.418C61.1703 11.418 61.7548 11.6572 62.2274 12.1348C62.7001 12.6124 62.9364 13.1927 62.9364 13.8766C62.9364 14.5644 62.7009 15.1463 62.2306 15.6215ZM59.1727 15.227C59.5272 15.58 59.9607 15.7556 60.4741 15.7556C60.9875 15.7556 61.4218 15.5792 61.7755 15.227C62.13 14.8741 62.3081 14.424 62.3081 13.8766C62.3081 13.3292 62.13 12.879 61.7755 12.5261C61.4218 12.1732 60.9875 11.9975 60.4741 11.9975C59.9607 11.9975 59.5272 12.174 59.1727 12.5261C58.819 12.879 58.641 13.3292 58.641 13.8766C58.641 14.424 58.819 14.8741 59.1727 15.227Z" fill="white"/>
<path d="M63.8003 16.2293V11.5238H64.5492L66.8773 15.1839H66.9037L66.8773 14.2773V11.5238H67.4929V16.2293H66.8502L64.4143 12.3912H64.3879L64.4143 13.2978V16.2293H63.8003Z" fill="white"/>
<path d="M41.3197 14.0671C41.3197 14.7243 41.1217 15.2474 40.7249 15.638C40.2746 16.1022 39.6869 16.3344 38.9652 16.3344C38.2738 16.3344 37.6853 16.0991 37.2023 15.6285C36.7185 15.1572 36.4766 14.5737 36.4766 13.8773C36.4766 13.1801 36.7185 12.5967 37.2023 12.1261C37.6853 11.6548 38.2738 11.4195 38.9652 11.4195C39.3085 11.4195 39.6366 11.4854 39.948 11.6163C40.2602 11.7481 40.5101 11.923 40.6969 12.1418L40.2762 12.5559C39.9592 12.1834 39.5225 11.9975 38.9644 11.9975C38.4598 11.9975 38.0239 12.1716 37.6558 12.5198C37.2877 12.868 37.1041 13.3205 37.1041 13.8765C37.1041 14.4326 37.2877 14.8851 37.6558 15.2333C38.0239 15.5815 38.4598 15.7556 38.9644 15.7556C39.4993 15.7556 39.9456 15.5807 40.3025 15.2301C40.5341 15.0019 40.6682 14.6843 40.7041 14.2773H38.9644V13.7118H41.2854C41.3093 13.835 41.3197 13.9534 41.3197 14.0671Z" stroke="white" stroke-width="0.0370436" stroke-miterlimit="10"/>
<path d="M45.0004 12.1018H42.8192V13.5935H44.7864V14.1589H42.8192V15.6505H45.0004V16.2293H42.2036V11.5238H45.0004V12.1018Z" stroke="white" stroke-width="0.0370436" stroke-miterlimit="10"/>
<path d="M47.5959 16.2293H46.9804V12.1018H45.6422V11.5238H48.9341V12.1018H47.5959V16.2293Z" stroke="white" stroke-width="0.0370436" stroke-miterlimit="10"/>
<path d="M51.3157 16.2293V11.5238H51.9312V16.2293H51.3157Z" stroke="white" stroke-width="0.0370436" stroke-miterlimit="10"/>
<path d="M54.6611 16.2293H54.0455V12.1018H52.7074V11.5238H55.9992V12.1018H54.6611V16.2293Z" stroke="white" stroke-width="0.0370436" stroke-miterlimit="10"/>
<path d="M62.2306 15.6215C61.7595 16.0968 61.1743 16.3344 60.4741 16.3344C59.7739 16.3344 59.1887 16.0968 58.7184 15.6215C58.2474 15.1463 58.0126 14.5644 58.0126 13.8766C58.0126 13.1888 58.2474 12.6069 58.7184 12.1316C59.1887 11.6564 59.7739 11.418 60.4741 11.418C61.1703 11.418 61.7548 11.6572 62.2274 12.1348C62.7001 12.6124 62.9364 13.1927 62.9364 13.8766C62.9364 14.5644 62.7009 15.1463 62.2306 15.6215ZM59.1727 15.227C59.5272 15.58 59.9607 15.7556 60.4741 15.7556C60.9875 15.7556 61.4218 15.5792 61.7755 15.227C62.13 14.8741 62.3081 14.424 62.3081 13.8766C62.3081 13.3292 62.13 12.879 61.7755 12.5261C61.4218 12.1732 60.9875 11.9975 60.4741 11.9975C59.9607 11.9975 59.5272 12.174 59.1727 12.5261C58.819 12.879 58.641 13.3292 58.641 13.8766C58.641 14.424 58.819 14.8741 59.1727 15.227Z" stroke="white" stroke-width="0.0370436" stroke-miterlimit="10"/>
<path d="M63.8003 16.2293V11.5238H64.5492L66.8773 15.1839H66.9037L66.8773 14.2773V11.5238H67.4929V16.2293H66.8502L64.4143 12.3912H64.3879L64.4143 13.2978V16.2293H63.8003Z" stroke="white" stroke-width="0.0370436" stroke-miterlimit="10"/>
<defs>
<filter id="filter0_ii_229_6204" x="11.6797" y="11.418" width="19.5371" height="21.8499" filterUnits="userSpaceOnUse" color-interpolation-filters="sRGB">
<feFlood flood-opacity="0" result="BackgroundImageFix"/>
<feBlend mode="normal" in="SourceGraphic" in2="BackgroundImageFix" result="shape"/>
<feColorMatrix in="SourceAlpha" type="matrix" values="0 0 0 0 0 0 0 0 0 0 0 0 0 0 0 0 0 0 127 0" result="hardAlpha"/>
<feOffset dy="-0.144"/>
<feComposite in2="hardAlpha" operator="arithmetic" k2="-1" k3="1"/>
<feColorMatrix type="matrix" values="0 0 0 0 0 0 0 0 0 0 0 0 0 0 0 0 0 0 0.12 0"/>
<feBlend mode="normal" in2="shape" result="effect1_innerShadow_229_6204"/>
<feColorMatrix in="SourceAlpha" type="matrix" values="0 0 0 0 0 0 0 0 0 0 0 0 0 0 0 0 0 0 127 0" result="hardAlpha"/>
<feOffset dy="0.144"/>
<feComposite in2="hardAlpha" operator="arithmetic" k2="-1" k3="1"/>
<feColorMatrix type="matrix" values="0 0 0 0 1 0 0 0 0 1 0 0 0 0 1 0 0 0 0.25 0"/>
<feBlend mode="normal" in2="effect1_innerShadow_229_6204" result="effect2_innerShadow_229_6204"/>
</filter>
<filter id="filter1_i_229_6204" x="12.0723" y="22.3438" width="14.1172" height="10.9241" filterUnits="userSpaceOnUse" color-interpolation-filters="sRGB">
<feFlood flood-opacity="0" result="BackgroundImageFix"/>
<feBlend mode="normal" in="SourceGraphic" in2="BackgroundImageFix" result="shape"/>
<feColorMatrix in="SourceAlpha" type="matrix" values="0 0 0 0 0 0 0 0 0 0 0 0 0 0 0 0 0 0 127 0" result="hardAlpha"/>
<feOffset dy="-0.144"/>
<feComposite in2="hardAlpha" operator="arithmetic" k2="-1" k3="1"/>
<feColorMatrix type="matrix" values="0 0 0 0 0 0 0 0 0 0 0 0 0 0 0 0 0 0 0.08 0"/>
<feBlend mode="normal" in2="shape" result="effect1_innerShadow_229_6204"/>
</filter>
</defs>
</svg>
