<svg width="60" height="28" viewBox="0 0 60 28" fill="none" xmlns="http://www.w3.org/2000/svg">
<path d="M23.5617 8.01495C24.624 7.94247 25.6889 8.1109 26.677 8.50767C27.6651 8.90445 28.5508 9.51931 29.2679 10.3063C30.8438 11.9507 31.6992 14.0606 31.8341 16.636C31.9684 19.1986 31.3377 21.3763 29.942 23.1689C29.2951 24.0113 28.4733 24.7036 27.5332 25.198C26.5931 25.6923 25.557 25.9771 24.4963 26.0327C23.4356 26.0883 22.3754 25.9134 21.3888 25.52C20.4022 25.1266 19.5125 24.524 18.7811 23.7538C17.193 22.1163 16.3319 20.0168 16.1976 17.4555C16.0626 14.8786 16.699 12.6905 18.107 10.8913C18.7425 10.0336 19.5626 9.32986 20.5068 8.83199C21.451 8.33411 22.495 8.05488 23.5617 8.01495ZM24.4113 24.2262C25.241 24.1938 26.0525 23.9724 26.7837 23.5788C27.5149 23.1853 28.1466 22.6299 28.6306 21.9551C29.6815 20.4193 30.1974 18.5802 30.0987 16.7218C29.9999 14.8635 29.2919 13.0894 28.0841 11.6736C27.5366 11.0474 26.8528 10.5551 26.0852 10.2347C25.3176 9.91423 24.4868 9.77418 23.6566 9.82529C22.8218 9.85774 22.0054 10.0802 21.2696 10.4756C20.5337 10.8711 19.8978 11.4292 19.4101 12.1074C18.3548 13.645 17.8358 15.4876 17.9334 17.3499C18.031 19.2122 18.7397 20.9905 19.95 22.4093C20.5071 23.0306 21.1984 23.5169 21.9713 23.8316C22.7442 24.1462 23.5786 24.2809 24.4112 24.2254" fill="#F8F8F8"/>
<path d="M51.8016 0.603914L52.1096 6.48215L57.815 6.18315L57.8959 7.72647L52.1905 8.02548L52.7429 18.5656C52.8319 20.2632 53.0486 21.3705 53.3931 21.8875C53.7377 22.4044 54.6031 22.626 55.9895 22.5523C57.2695 22.4356 58.5154 22.0753 59.6601 21.4908L59.755 23.3019C58.4604 23.9532 57.0476 24.3364 55.6013 24.4284C54.4031 24.5344 53.2034 24.2434 52.1869 23.6003C51.7336 23.3086 51.3597 22.909 51.0986 22.4373C50.8375 21.9657 50.6973 21.4367 50.6907 20.8976L50.022 8.13797L44.5395 8.4253L46.2167 6.78983L49.9411 6.59464L49.72 2.37499L51.1162 0.639835L51.8016 0.603914Z" fill="#F8F8F8"/>
<path d="M49.8766 24.6112L44.1163 24.913L45.5943 21.638L34.4218 22.2235L36.2886 25.3233L30.4941 25.627L36.6037 7.39246L41.9171 7.114L49.8766 24.6112ZM42.7274 19.4128L39.525 11.8682L36.5881 21.8118L42.7274 19.4128Z" fill="#F8F8F8"/>
<path d="M1.39717 26.0166L0.206787 3.30273L0.801527 3.27157L1.99154 4.8735L2.34418 11.5507C2.95828 10.7418 3.74102 10.0761 4.6381 9.59983C5.53518 9.1236 6.52512 8.84822 7.53926 8.79281C8.98659 8.68113 11.5574 9.31421 12.9498 10.7202C14.552 12.3052 15.4869 14.4433 15.5626 16.6957C15.7192 19.6844 15.0682 22.1922 13.5386 24.0792C12.009 25.9663 9.79783 26.7922 7.10613 26.9332C5.15937 27.0417 3.2121 26.7291 1.39717 26.0166ZM2.44988 13.4942L3.00327 24.7003C4.25965 25.1224 5.59035 25.2773 6.91008 25.1552C8.96785 25.0473 11.0546 24.3084 12.3212 22.7484C13.4464 21.5772 14.0893 19.2081 14.0171 16.9258C13.983 15.1573 13.3061 13.4617 12.1128 12.156C11.5742 11.5447 10.9024 11.0652 10.1491 10.7547C9.3959 10.4442 8.58138 10.3108 7.76844 10.365C5.82614 10.4413 4.13125 11.0853 2.44988 13.4942Z" fill="#F8F8F8"/>
</svg>
