<svg width="1661" height="70" viewBox="0 0 1661 70" fill="none" xmlns="http://www.w3.org/2000/svg">
<path d="M1661 0H0V70H1661V0Z" fill="#111111"/>
<path d="M31.6325 50.1239C29.9098 50.1239 28.5273 49.7612 27.4846 49.0359C26.4646 48.2879 25.7165 47.2112 25.2405 45.8059C24.7872 44.4006 24.5605 42.7119 24.5605 40.7399V31.5259C24.5605 29.5086 24.7645 27.7972 25.1725 26.3919C25.6032 24.9639 26.3512 23.8759 27.4165 23.1279C28.5045 22.3799 30.0118 22.0059 31.9385 22.0059C33.6612 22.0059 35.0438 22.3006 36.0865 22.8899C37.1518 23.4566 37.9225 24.3406 38.3985 25.5419C38.8745 26.7206 39.1125 28.2166 39.1125 30.0299V31.0499H35.5085V30.1999C35.5085 28.9986 35.4292 28.0239 35.2705 27.2759C35.1118 26.5052 34.7832 25.9386 34.2845 25.5759C33.8085 25.1906 33.0492 24.9979 32.0065 24.9979C30.8732 24.9979 30.0458 25.2586 29.5245 25.7799C29.0258 26.3012 28.7085 27.0152 28.5725 27.9219C28.4592 28.8059 28.4025 29.8146 28.4025 30.9479V41.1479C28.4025 42.4626 28.4932 43.5619 28.6745 44.4459C28.8785 45.3299 29.2525 45.9872 29.7965 46.4179C30.3405 46.8486 31.1113 47.0639 32.1086 47.0639C33.1059 47.0639 33.8765 46.8259 34.4205 46.3499C34.9645 45.8739 35.3385 45.1712 35.5425 44.2419C35.7465 43.3126 35.8485 42.1566 35.8485 40.7739V38.8699H32.3465V36.1499H39.3166V49.7839H36.9025L36.5285 46.6219C36.1658 47.6419 35.5992 48.4806 34.8285 49.1379C34.0578 49.7952 32.9925 50.1239 31.6325 50.1239ZM43.2658 49.7839V22.2439H53.9418V25.0999H47.1078V34.2119H52.6498V36.9319H47.1078V47.0299H54.0098V49.7839H43.2658ZM60.1378 49.7839V25.0999H55.4795V22.2439H68.5018V25.0999H63.9799V49.7839H60.1378ZM78.9258 49.7839V22.2439H85.2498C86.4968 22.2439 87.5738 22.3799 88.4798 22.6519C89.4098 22.9239 90.1799 23.3432 90.7919 23.9099C91.4039 24.4766 91.8578 25.2019 92.1518 26.0859C92.4468 26.9472 92.5938 27.9672 92.5938 29.1459C92.5938 30.2792 92.4468 31.2652 92.1518 32.1039C91.8798 32.9199 91.4498 33.5659 90.8598 34.0419C90.2938 34.5179 89.5568 34.8239 88.6498 34.9599C89.7608 35.2092 90.6558 35.6399 91.3358 36.2519C92.0158 36.8412 92.5148 37.6119 92.8318 38.5639C93.1718 39.4932 93.3418 40.6152 93.3418 41.9299C93.3418 43.1086 93.2059 44.1852 92.9339 45.1599C92.6619 46.1346 92.2318 46.9619 91.6418 47.6419C91.0758 48.3219 90.3389 48.8546 89.4319 49.2399C88.5479 49.6026 87.4938 49.7839 86.2698 49.7839H78.9258ZM82.7678 47.0299H85.3518C87.0748 47.0299 88.2198 46.6332 88.7858 45.8399C89.3758 45.0239 89.6698 43.7206 89.6698 41.9299C89.6698 40.7739 89.5118 39.8106 89.1938 39.0399C88.8998 38.2466 88.4118 37.6572 87.7318 37.2719C87.0748 36.8639 86.1798 36.6599 85.0458 36.6599H82.7678V47.0299ZM82.7678 33.7359H85.0458C86.1338 33.7359 86.9838 33.5886 87.5958 33.2939C88.2078 32.9766 88.6388 32.4779 88.8878 31.7979C89.1378 31.1179 89.2618 30.2339 89.2618 29.1459C89.2618 27.8766 89.0699 26.9586 88.6839 26.3919C88.2989 25.8252 87.6979 25.4739 86.8819 25.3379C86.0659 25.1792 85.0008 25.0999 83.6858 25.0999H82.7678V33.7359ZM96.7558 49.7839V22.2439H102.298C104.134 22.2439 105.653 22.4932 106.854 22.9919C108.056 23.4679 108.94 24.2499 109.506 25.3379C110.096 26.4032 110.39 27.8086 110.39 29.5539C110.39 30.6192 110.277 31.5939 110.05 32.4779C109.824 33.3392 109.461 34.0759 108.962 34.6879C108.464 35.2772 107.806 35.7079 106.99 35.9799L110.9 49.7839H107.194L103.59 36.8639H100.598V49.7839H96.7558ZM100.598 34.1099H102.06C103.148 34.1099 104.032 33.9739 104.712 33.7019C105.392 33.4299 105.891 32.9652 106.208 32.3079C106.526 31.6506 106.684 30.7326 106.684 29.5539C106.684 27.9446 106.39 26.7886 105.8 26.0859C105.211 25.3606 104.044 24.9979 102.298 24.9979H100.598V34.1099ZM112.891 49.7839L118.739 22.2439H122.445L128.327 49.7839H124.689L123.431 42.8479H117.821L116.495 49.7839H112.891ZM118.331 40.0939H122.921L120.609 27.6839L118.331 40.0939ZM131.121 49.7839V22.2439H133.739L141.559 40.5359V22.2439H144.755V49.7839H142.307L134.385 30.9819V49.7839H131.121ZM149.084 49.7839V22.2439H155.068C157.108 22.2439 158.718 22.5612 159.896 23.1959C161.098 23.8079 161.948 24.7372 162.446 25.9839C162.968 27.2306 163.228 28.7832 163.228 30.6419V40.7739C163.228 42.7232 162.968 44.3666 162.446 45.7039C161.948 47.0412 161.12 48.0612 159.964 48.7639C158.831 49.4439 157.301 49.7839 155.374 49.7839H149.084ZM152.926 47.0299H155.102C156.508 47.0299 157.505 46.7579 158.094 46.2139C158.684 45.6699 159.035 44.8766 159.148 43.8339C159.284 42.7912 159.352 41.5332 159.352 40.0599V31.1179C159.352 29.6899 159.262 28.5339 159.08 27.6499C158.899 26.7659 158.502 26.1199 157.89 25.7119C157.278 25.3039 156.315 25.0999 155 25.0999H152.926V47.0299ZM167.014 49.7839V22.2439H177.69V25.0999H170.856V34.2119H176.398V36.9319H170.856V47.0299H177.758V49.7839H167.014ZM180.86 49.7839V22.2439H186.844C188.884 22.2439 190.493 22.5612 191.672 23.1959C192.873 23.8079 193.723 24.7372 194.222 25.9839C194.743 27.2306 195.004 28.7832 195.004 30.6419V40.7739C195.004 42.7232 194.743 44.3666 194.222 45.7039C193.723 47.0412 192.896 48.0612 191.74 48.7639C190.606 49.4439 189.076 49.7839 187.15 49.7839H180.86ZM184.702 47.0299H186.878C188.283 47.0299 189.28 46.7579 189.87 46.2139C190.459 45.6699 190.81 44.8766 190.924 43.8339C191.06 42.7912 191.128 41.5332 191.128 40.0599V31.1179C191.128 29.6899 191.037 28.5339 190.856 27.6499C190.674 26.7659 190.278 26.1199 189.666 25.7119C189.054 25.3039 188.09 25.0999 186.776 25.0999H184.702V47.0299ZM206.559 49.7839V22.2439H213.393C215.048 22.2439 216.362 22.5499 217.337 23.1619C218.334 23.7512 219.06 24.6126 219.513 25.7459C219.966 26.8792 220.193 28.2506 220.193 29.8599C220.193 31.3106 219.932 32.5686 219.411 33.6339C218.912 34.6992 218.164 35.5266 217.167 36.1159C216.17 36.6826 214.923 36.9659 213.427 36.9659H210.401V49.7839H206.559ZM210.401 34.2119H212.169C213.28 34.2119 214.152 34.0872 214.787 33.8379C215.422 33.5886 215.875 33.1579 216.147 32.5459C216.419 31.9112 216.555 31.0272 216.555 29.8939C216.555 28.5792 216.453 27.5706 216.249 26.8679C216.068 26.1652 215.671 25.6779 215.059 25.4059C214.447 25.1339 213.495 24.9979 212.203 24.9979H210.401V34.2119ZM222.895 49.7839V22.2439H228.437C230.273 22.2439 231.792 22.4932 232.993 22.9919C234.194 23.4679 235.078 24.2499 235.645 25.3379C236.234 26.4032 236.529 27.8086 236.529 29.5539C236.529 30.6192 236.416 31.5939 236.189 32.4779C235.962 33.3392 235.6 34.0759 235.101 34.6879C234.602 35.2772 233.945 35.7079 233.129 35.9799L237.039 49.7839H233.333L229.729 36.8639H226.737V49.7839H222.895ZM226.737 34.1099H228.199C229.287 34.1099 230.171 33.9739 230.851 33.7019C231.531 33.4299 232.03 32.9652 232.347 32.3079C232.664 31.6506 232.823 30.7326 232.823 29.5539C232.823 27.9446 232.528 26.7886 231.939 26.0859C231.35 25.3606 230.182 24.9979 228.437 24.9979H226.737V34.1099ZM247.564 50.0899C245.705 50.0899 244.22 49.7272 243.11 49.0019C241.999 48.2766 241.206 47.2452 240.73 45.9079C240.254 44.5479 240.016 42.9612 240.016 41.1479V30.7099C240.016 28.8966 240.254 27.3439 240.73 26.0519C241.228 24.7372 242.022 23.7399 243.11 23.0599C244.22 22.3572 245.705 22.0059 247.564 22.0059C249.422 22.0059 250.896 22.3572 251.984 23.0599C253.072 23.7626 253.854 24.7599 254.33 26.0519C254.828 27.3439 255.078 28.8966 255.078 30.7099V41.1819C255.078 42.9726 254.828 44.5366 254.33 45.8739C253.854 47.2112 253.072 48.2539 251.984 49.0019C250.896 49.7272 249.422 50.0899 247.564 50.0899ZM247.564 47.0639C248.584 47.0639 249.354 46.8599 249.876 46.4519C250.397 46.0212 250.748 45.4319 250.93 44.6839C251.111 43.9132 251.202 43.0179 251.202 41.9979V29.9279C251.202 28.9079 251.111 28.0352 250.93 27.3099C250.748 26.5619 250.397 25.9952 249.876 25.6099C249.354 25.2019 248.584 24.9979 247.564 24.9979C246.544 24.9979 245.762 25.2019 245.218 25.6099C244.696 25.9952 244.345 26.5619 244.164 27.3099C243.982 28.0352 243.892 28.9079 243.892 29.9279V41.9979C243.892 43.0179 243.982 43.9132 244.164 44.6839C244.345 45.4319 244.696 46.0212 245.218 46.4519C245.762 46.8599 246.544 47.0639 247.564 47.0639ZM258.854 49.7839V22.2439H264.838C266.878 22.2439 268.487 22.5612 269.666 23.1959C270.867 23.8079 271.717 24.7372 272.216 25.9839C272.737 27.2306 272.998 28.7832 272.998 30.6419V40.7739C272.998 42.7232 272.737 44.3666 272.216 45.7039C271.717 47.0412 270.89 48.0612 269.734 48.7639C268.601 49.4439 267.071 49.7839 265.144 49.7839H258.854ZM262.696 47.0299H264.872C266.277 47.0299 267.275 46.7579 267.864 46.2139C268.453 45.6699 268.805 44.8766 268.918 43.8339C269.054 42.7912 269.122 41.5332 269.122 40.0599V31.1179C269.122 29.6899 269.031 28.5339 268.85 27.6499C268.669 26.7659 268.272 26.1199 267.66 25.7119C267.048 25.3039 266.085 25.0999 264.77 25.0999H262.696V47.0299ZM283.89 50.0899C281.895 50.0899 280.365 49.6932 279.3 48.8999C278.234 48.1066 277.509 46.9959 277.124 45.5679C276.738 44.1172 276.546 42.4286 276.546 40.5019V22.2439H280.218V40.6719C280.218 41.8506 280.297 42.9272 280.456 43.9019C280.614 44.8766 280.954 45.6472 281.476 46.2139C282.02 46.7806 282.824 47.0639 283.89 47.0639C284.978 47.0639 285.782 46.7806 286.304 46.2139C286.825 45.6472 287.165 44.8766 287.324 43.9019C287.482 42.9272 287.562 41.8506 287.562 40.6719V22.2439H291.2V40.5019C291.2 42.4286 291.007 44.1172 290.622 45.5679C290.236 46.9959 289.511 48.1066 288.446 48.8999C287.403 49.6932 285.884 50.0899 283.89 50.0899ZM302.147 50.0899C300.197 50.0899 298.679 49.6819 297.591 48.8659C296.525 48.0499 295.777 46.9506 295.347 45.5679C294.939 44.1852 294.735 42.6439 294.735 40.9439V31.2199C294.735 29.3612 294.939 27.7406 295.347 26.3579C295.777 24.9752 296.525 23.9099 297.591 23.1619C298.679 22.3912 300.197 22.0059 302.147 22.0059C303.869 22.0059 305.229 22.3232 306.227 22.9579C307.247 23.5926 307.972 24.4992 308.403 25.6779C308.856 26.8566 309.083 28.2732 309.083 29.9279V32.1039H305.445V30.1659C305.445 29.1459 305.388 28.2506 305.275 27.4799C305.184 26.6866 304.912 26.0746 304.459 25.6439C304.005 25.2132 303.246 24.9979 302.181 24.9979C301.093 24.9979 300.299 25.2359 299.801 25.7119C299.302 26.1652 298.973 26.8226 298.815 27.6839C298.679 28.5226 298.611 29.5086 298.611 30.6419V41.5559C298.611 42.9386 298.724 44.0379 298.951 44.8539C299.177 45.6472 299.551 46.2139 300.073 46.5539C300.594 46.8939 301.297 47.0639 302.181 47.0639C303.223 47.0639 303.971 46.8372 304.425 46.3839C304.878 45.9079 305.161 45.2619 305.275 44.4459C305.388 43.6299 305.445 42.6779 305.445 41.5899V39.5499H309.083V41.5899C309.083 43.2672 308.879 44.7519 308.471 46.0439C308.063 47.3132 307.36 48.3106 306.363 49.0359C305.365 49.7386 303.96 50.0899 302.147 50.0899ZM315.769 49.7839V25.0999H311.111V22.2439H324.133V25.0999H319.611V49.7839H315.769ZM333.061 49.7839L338.909 22.2439H342.615L348.497 49.7839H344.859L343.601 42.8479H337.991L336.665 49.7839H333.061ZM338.501 40.0939H343.091L340.779 27.6839L338.501 40.0939ZM353.222 49.7839V25.0999H348.564V22.2439H361.586V25.0999H357.064V49.7839H353.222ZM372.01 49.7839V22.2439H374.628L382.448 40.5359V22.2439H385.644V49.7839H383.196L375.274 30.9819V49.7839H372.01ZM397.011 50.0899C395.152 50.0899 393.668 49.7272 392.557 49.0019C391.446 48.2766 390.653 47.2452 390.177 45.9079C389.701 44.5479 389.463 42.9612 389.463 41.1479V30.7099C389.463 28.8966 389.701 27.3439 390.177 26.0519C390.676 24.7372 391.469 23.7399 392.557 23.0599C393.668 22.3572 395.152 22.0059 397.011 22.0059C398.87 22.0059 400.343 22.3572 401.431 23.0599C402.519 23.7626 403.301 24.7599 403.777 26.0519C404.276 27.3439 404.525 28.8966 404.525 30.7099V41.1819C404.525 42.9726 404.276 44.5366 403.777 45.8739C403.301 47.2112 402.519 48.2539 401.431 49.0019C400.343 49.7272 398.87 50.0899 397.011 50.0899ZM397.011 47.0639C398.031 47.0639 398.802 46.8599 399.323 46.4519C399.844 46.0212 400.196 45.4319 400.377 44.6839C400.558 43.9132 400.649 43.0179 400.649 41.9979V29.9279C400.649 28.9079 400.558 28.0352 400.377 27.3099C400.196 26.5619 399.844 25.9952 399.323 25.6099C398.802 25.2019 398.031 24.9979 397.011 24.9979C395.991 24.9979 395.209 25.2019 394.665 25.6099C394.144 25.9952 393.792 26.5619 393.611 27.3099C393.43 28.0352 393.339 28.9079 393.339 29.9279V41.9979C393.339 43.0179 393.43 43.9132 393.611 44.6839C393.792 45.4319 394.144 46.0212 394.665 46.4519C395.209 46.8599 395.991 47.0639 397.011 47.0639ZM422.973 50.0899C421.023 50.0899 419.505 49.6819 418.417 48.8659C417.351 48.0499 416.603 46.9506 416.173 45.5679C415.765 44.1852 415.561 42.6439 415.561 40.9439V31.2199C415.561 29.3612 415.765 27.7406 416.173 26.3579C416.603 24.9752 417.351 23.9099 418.417 23.1619C419.505 22.3912 421.023 22.0059 422.973 22.0059C424.695 22.0059 426.055 22.3232 427.053 22.9579C428.073 23.5926 428.798 24.4992 429.229 25.6779C429.682 26.8566 429.909 28.2732 429.909 29.9279V32.1039H426.271V30.1659C426.271 29.1459 426.214 28.2506 426.101 27.4799C426.01 26.6866 425.738 26.0746 425.285 25.6439C424.831 25.2132 424.072 24.9979 423.007 24.9979C421.919 24.9979 421.125 25.2359 420.627 25.7119C420.128 26.1652 419.799 26.8226 419.641 27.6839C419.505 28.5226 419.437 29.5086 419.437 30.6419V41.5559C419.437 42.9386 419.55 44.0379 419.777 44.8539C420.003 45.6472 420.377 46.2139 420.899 46.5539C421.42 46.8939 422.123 47.0639 423.007 47.0639C424.049 47.0639 424.797 46.8372 425.251 46.3839C425.704 45.9079 425.987 45.2619 426.101 44.4459C426.214 43.6299 426.271 42.6779 426.271 41.5899V39.5499H429.909V41.5899C429.909 43.2672 429.705 44.7519 429.297 46.0439C428.889 47.3132 428.186 48.3106 427.189 49.0359C426.191 49.7386 424.786 50.0899 422.973 50.0899ZM440.607 50.0899C438.748 50.0899 437.263 49.7272 436.153 49.0019C435.042 48.2766 434.249 47.2452 433.773 45.9079C433.297 44.5479 433.059 42.9612 433.059 41.1479V30.7099C433.059 28.8966 433.297 27.3439 433.773 26.0519C434.271 24.7372 435.065 23.7399 436.153 23.0599C437.263 22.3572 438.748 22.0059 440.607 22.0059C442.465 22.0059 443.939 22.3572 445.027 23.0599C446.115 23.7626 446.897 24.7599 447.373 26.0519C447.871 27.3439 448.121 28.8966 448.121 30.7099V41.1819C448.121 42.9726 447.871 44.5366 447.373 45.8739C446.897 47.2112 446.115 48.2539 445.027 49.0019C443.939 49.7272 442.465 50.0899 440.607 50.0899ZM440.607 47.0639C441.627 47.0639 442.397 46.8599 442.919 46.4519C443.44 46.0212 443.791 45.4319 443.973 44.6839C444.154 43.9132 444.245 43.0179 444.245 41.9979V29.9279C444.245 28.9079 444.154 28.0352 443.973 27.3099C443.791 26.5619 443.44 25.9952 442.919 25.6099C442.397 25.2019 441.627 24.9979 440.607 24.9979C439.587 24.9979 438.805 25.2019 438.261 25.6099C437.739 25.9952 437.388 26.5619 437.207 27.3099C437.025 28.0352 436.935 28.9079 436.935 29.9279V41.9979C436.935 43.0179 437.025 43.9132 437.207 44.6839C437.388 45.4319 437.739 46.0212 438.261 46.4519C438.805 46.8599 439.587 47.0639 440.607 47.0639ZM458.391 50.0899C456.804 50.0899 455.478 49.7499 454.413 49.0699C453.37 48.3899 452.577 47.4492 452.033 46.2479C451.489 45.0466 451.172 43.6526 451.081 42.0659L454.481 41.1479C454.549 42.1226 454.696 43.0632 454.923 43.9699C455.172 44.8766 455.569 45.6246 456.113 46.2139C456.657 46.7806 457.416 47.0639 458.391 47.0639C459.388 47.0639 460.136 46.7919 460.635 46.2479C461.156 45.6812 461.417 44.8766 461.417 43.8339C461.417 42.5872 461.134 41.5899 460.567 40.8419C460 40.0712 459.286 39.3006 458.425 38.5299L453.801 34.4499C452.894 33.6566 452.226 32.7952 451.795 31.8659C451.364 30.9139 451.149 29.7466 451.149 28.3639C451.149 26.3466 451.727 24.7826 452.883 23.6719C454.039 22.5612 455.614 22.0059 457.609 22.0059C458.697 22.0059 459.649 22.1532 460.465 22.4479C461.304 22.7199 461.995 23.1506 462.539 23.7399C463.106 24.3292 463.548 25.0772 463.865 25.9839C464.205 26.8679 464.432 27.9106 464.545 29.1119L461.281 29.9959C461.213 29.0892 461.077 28.2619 460.873 27.5139C460.669 26.7432 460.306 26.1312 459.785 25.6779C459.286 25.2019 458.561 24.9639 457.609 24.9639C456.657 24.9639 455.909 25.2246 455.365 25.7459C454.844 26.2446 454.583 26.9926 454.583 27.9899C454.583 28.8286 454.719 29.5199 454.991 30.0639C455.286 30.6079 455.75 31.1632 456.385 31.7299L461.043 35.8099C462.086 36.7166 463.004 37.8046 463.797 39.0739C464.59 40.3206 464.987 41.8052 464.987 43.5279C464.987 44.8879 464.704 46.0666 464.137 47.0639C463.57 48.0386 462.788 48.7866 461.791 49.3079C460.816 49.8292 459.683 50.0899 458.391 50.0899ZM470.993 49.7839V25.0999H466.335V22.2439H479.357V25.0999H474.835V49.7839H470.993ZM497.075 49.7839V45.7379H500.713V49.7839H497.075ZM519.498 49.7839V22.2439H525.822C527.069 22.2439 528.146 22.3799 529.052 22.6519C529.982 22.9239 530.752 23.3432 531.364 23.9099C531.976 24.4766 532.43 25.2019 532.724 26.0859C533.019 26.9472 533.166 27.9672 533.166 29.1459C533.166 30.2792 533.019 31.2652 532.724 32.1039C532.452 32.9199 532.022 33.5659 531.432 34.0419C530.866 34.5179 530.129 34.8239 529.222 34.9599C530.333 35.2092 531.228 35.6399 531.908 36.2519C532.588 36.8412 533.087 37.6119 533.404 38.5639C533.744 39.4932 533.914 40.6152 533.914 41.9299C533.914 43.1086 533.778 44.1852 533.506 45.1599C533.234 46.1346 532.804 46.9619 532.214 47.6419C531.648 48.3219 530.911 48.8546 530.004 49.2399C529.12 49.6026 528.066 49.7839 526.842 49.7839H519.498ZM523.34 47.0299H525.924C527.647 47.0299 528.792 46.6332 529.358 45.8399C529.948 45.0239 530.242 43.7206 530.242 41.9299C530.242 40.7739 530.084 39.8106 529.766 39.0399C529.472 38.2466 528.984 37.6572 528.304 37.2719C527.647 36.8639 526.752 36.6599 525.618 36.6599H523.34V47.0299ZM523.34 33.7359H525.618C526.706 33.7359 527.556 33.5886 528.168 33.2939C528.78 32.9766 529.211 32.4779 529.46 31.7979C529.71 31.1179 529.834 30.2339 529.834 29.1459C529.834 27.8766 529.642 26.9586 529.256 26.3919C528.871 25.8252 528.27 25.4739 527.454 25.3379C526.638 25.1792 525.573 25.0999 524.258 25.0999H523.34V33.7359ZM537.533 49.7839V22.2439H541.307V49.7839H537.533ZM552.324 50.1239C550.601 50.1239 549.219 49.7612 548.176 49.0359C547.156 48.2879 546.408 47.2112 545.932 45.8059C545.479 44.4006 545.252 42.7119 545.252 40.7399V31.5259C545.252 29.5086 545.456 27.7972 545.864 26.3919C546.295 24.9639 547.043 23.8759 548.108 23.1279C549.196 22.3799 550.703 22.0059 552.63 22.0059C554.353 22.0059 555.735 22.3006 556.778 22.8899C557.843 23.4566 558.614 24.3406 559.09 25.5419C559.566 26.7206 559.804 28.2166 559.804 30.0299V31.0499H556.2V30.1999C556.2 28.9986 556.121 28.0239 555.962 27.2759C555.803 26.5052 555.475 25.9386 554.976 25.5759C554.5 25.1906 553.741 24.9979 552.698 24.9979C551.565 24.9979 550.737 25.2586 550.216 25.7799C549.717 26.3012 549.4 27.0152 549.264 27.9219C549.151 28.8059 549.094 29.8146 549.094 30.9479V41.1479C549.094 42.4626 549.185 43.5619 549.366 44.4459C549.57 45.3299 549.944 45.9872 550.488 46.4179C551.032 46.8486 551.803 47.0639 552.8 47.0639C553.797 47.0639 554.568 46.8259 555.112 46.3499C555.656 45.8739 556.03 45.1712 556.234 44.2419C556.438 43.3126 556.54 42.1566 556.54 40.7739V38.8699H553.038V36.1499H560.008V49.7839H557.594L557.22 46.6219C556.857 47.6419 556.291 48.4806 555.52 49.1379C554.749 49.7952 553.684 50.1239 552.324 50.1239ZM570.519 50.1239C568.797 50.1239 567.414 49.7612 566.371 49.0359C565.351 48.2879 564.603 47.2112 564.127 45.8059C563.674 44.4006 563.447 42.7119 563.447 40.7399V31.5259C563.447 29.5086 563.651 27.7972 564.059 26.3919C564.49 24.9639 565.238 23.8759 566.303 23.1279C567.391 22.3799 568.899 22.0059 570.825 22.0059C572.548 22.0059 573.931 22.3006 574.973 22.8899C576.039 23.4566 576.809 24.3406 577.285 25.5419C577.761 26.7206 577.999 28.2166 577.999 30.0299V31.0499H574.395V30.1999C574.395 28.9986 574.316 28.0239 574.157 27.2759C573.999 26.5052 573.67 25.9386 573.171 25.5759C572.695 25.1906 571.936 24.9979 570.893 24.9979C569.76 24.9979 568.933 25.2586 568.411 25.7799C567.913 26.3012 567.595 27.0152 567.459 27.9219C567.346 28.8059 567.289 29.8146 567.289 30.9479V41.1479C567.289 42.4626 567.38 43.5619 567.561 44.4459C567.765 45.3299 568.139 45.9872 568.683 46.4179C569.227 46.8486 569.998 47.0639 570.995 47.0639C571.993 47.0639 572.763 46.8259 573.307 46.3499C573.851 45.8739 574.225 45.1712 574.429 44.2419C574.633 43.3126 574.735 42.1566 574.735 40.7739V38.8699H571.233V36.1499H578.203V49.7839H575.789L575.415 46.6219C575.053 47.6419 574.486 48.4806 573.715 49.1379C572.945 49.7952 571.879 50.1239 570.519 50.1239ZM582.153 49.7839V22.2439H592.829V25.0999H585.995V34.2119H591.537V36.9319H585.995V47.0299H592.897V49.7839H582.153ZM602.492 50.0899C600.906 50.0899 599.58 49.7499 598.514 49.0699C597.472 48.3899 596.678 47.4492 596.134 46.2479C595.59 45.0466 595.273 43.6526 595.182 42.0659L598.582 41.1479C598.65 42.1226 598.798 43.0632 599.024 43.9699C599.274 44.8766 599.67 45.6246 600.214 46.2139C600.758 46.7806 601.518 47.0639 602.492 47.0639C603.49 47.0639 604.238 46.7919 604.736 46.2479C605.258 45.6812 605.518 44.8766 605.518 43.8339C605.518 42.5872 605.235 41.5899 604.668 40.8419C604.102 40.0712 603.388 39.3006 602.526 38.5299L597.902 34.4499C596.996 33.6566 596.327 32.7952 595.896 31.8659C595.466 30.9139 595.25 29.7466 595.25 28.3639C595.25 26.3466 595.828 24.7826 596.984 23.6719C598.14 22.5612 599.716 22.0059 601.71 22.0059C602.798 22.0059 603.75 22.1532 604.566 22.4479C605.405 22.7199 606.096 23.1506 606.64 23.7399C607.207 24.3292 607.649 25.0772 607.966 25.9839C608.306 26.8679 608.533 27.9106 608.646 29.1119L605.382 29.9959C605.314 29.0892 605.178 28.2619 604.974 27.5139C604.77 26.7432 604.408 26.1312 603.886 25.6779C603.388 25.2019 602.662 24.9639 601.71 24.9639C600.758 24.9639 600.01 25.2246 599.466 25.7459C598.945 26.2446 598.684 26.9926 598.684 27.9899C598.684 28.8286 598.82 29.5199 599.092 30.0639C599.387 30.6079 599.852 31.1632 600.486 31.7299L605.144 35.8099C606.187 36.7166 607.105 37.8046 607.898 39.0739C608.692 40.3206 609.088 41.8052 609.088 43.5279C609.088 44.8879 608.805 46.0666 608.238 47.0639C607.672 48.0386 606.89 48.7866 605.892 49.3079C604.918 49.8292 603.784 50.0899 602.492 50.0899ZM615.095 49.7839V25.0999H610.437V22.2439H623.459V25.0999H618.937V49.7839H615.095ZM640.921 50.0899C639.063 50.0899 637.578 49.7272 636.467 49.0019C635.357 48.2766 634.563 47.2452 634.087 45.9079C633.611 44.5479 633.373 42.9612 633.373 41.1479V30.7099C633.373 28.8966 633.611 27.3439 634.087 26.0519C634.586 24.7372 635.379 23.7399 636.467 23.0599C637.578 22.3572 639.063 22.0059 640.921 22.0059C642.78 22.0059 644.253 22.3572 645.341 23.0599C646.429 23.7626 647.211 24.7599 647.687 26.0519C648.186 27.3439 648.435 28.8966 648.435 30.7099V41.1819C648.435 42.9726 648.186 44.5366 647.687 45.8739C647.211 47.2112 646.429 48.2539 645.341 49.0019C644.253 49.7272 642.78 50.0899 640.921 50.0899ZM640.921 47.0639C641.941 47.0639 642.712 46.8599 643.233 46.4519C643.755 46.0212 644.106 45.4319 644.287 44.6839C644.469 43.9132 644.559 43.0179 644.559 41.9979V29.9279C644.559 28.9079 644.469 28.0352 644.287 27.3099C644.106 26.5619 643.755 25.9952 643.233 25.6099C642.712 25.2019 641.941 24.9979 640.921 24.9979C639.901 24.9979 639.119 25.2019 638.575 25.6099C638.054 25.9952 637.703 26.5619 637.521 27.3099C637.34 28.0352 637.249 28.9079 637.249 29.9279V41.9979C637.249 43.0179 637.34 43.9132 637.521 44.6839C637.703 45.4319 638.054 46.0212 638.575 46.4519C639.119 46.8599 639.901 47.0639 640.921 47.0639ZM652.211 49.7839V22.2439H659.045C660.7 22.2439 662.015 22.5499 662.989 23.1619C663.987 23.7512 664.712 24.6126 665.165 25.7459C665.619 26.8792 665.845 28.2506 665.845 29.8599C665.845 31.3106 665.585 32.5686 665.063 33.6339C664.565 34.6992 663.817 35.5266 662.819 36.1159C661.822 36.6826 660.575 36.9659 659.079 36.9659H656.053V49.7839H652.211ZM656.053 34.2119H657.821C658.932 34.2119 659.805 34.0872 660.439 33.8379C661.074 33.5886 661.527 33.1579 661.799 32.5459C662.071 31.9112 662.207 31.0272 662.207 29.8939C662.207 28.5792 662.105 27.5706 661.901 26.8679C661.72 26.1652 661.323 25.6779 660.711 25.4059C660.099 25.1339 659.147 24.9979 657.855 24.9979H656.053V34.2119ZM668.547 49.7839V22.2439H675.381C677.036 22.2439 678.351 22.5499 679.325 23.1619C680.323 23.7512 681.048 24.6126 681.501 25.7459C681.955 26.8792 682.181 28.2506 682.181 29.8599C682.181 31.3106 681.921 32.5686 681.399 33.6339C680.901 34.6992 680.153 35.5266 679.155 36.1159C678.158 36.6826 676.911 36.9659 675.415 36.9659H672.389V49.7839H668.547ZM672.389 34.2119H674.157C675.268 34.2119 676.141 34.0872 676.775 33.8379C677.41 33.5886 677.863 33.1579 678.135 32.5459C678.407 31.9112 678.543 31.0272 678.543 29.8939C678.543 28.5792 678.441 27.5706 678.237 26.8679C678.056 26.1652 677.659 25.6779 677.047 25.4059C676.435 25.1339 675.483 24.9979 674.191 24.9979H672.389V34.2119ZM691.921 50.0899C690.063 50.0899 688.578 49.7272 687.467 49.0019C686.357 48.2766 685.563 47.2452 685.087 45.9079C684.611 44.5479 684.373 42.9612 684.373 41.1479V30.7099C684.373 28.8966 684.611 27.3439 685.087 26.0519C685.586 24.7372 686.379 23.7399 687.467 23.0599C688.578 22.3572 690.063 22.0059 691.921 22.0059C693.78 22.0059 695.253 22.3572 696.341 23.0599C697.429 23.7626 698.211 24.7599 698.687 26.0519C699.186 27.3439 699.435 28.8966 699.435 30.7099V41.1819C699.435 42.9726 699.186 44.5366 698.687 45.8739C698.211 47.2112 697.429 48.2539 696.341 49.0019C695.253 49.7272 693.78 50.0899 691.921 50.0899ZM691.921 47.0639C692.941 47.0639 693.712 46.8599 694.233 46.4519C694.755 46.0212 695.106 45.4319 695.287 44.6839C695.469 43.9132 695.559 43.0179 695.559 41.9979V29.9279C695.559 28.9079 695.469 28.0352 695.287 27.3099C695.106 26.5619 694.755 25.9952 694.233 25.6099C693.712 25.2019 692.941 24.9979 691.921 24.9979C690.901 24.9979 690.119 25.2019 689.575 25.6099C689.054 25.9952 688.703 26.5619 688.521 27.3099C688.34 28.0352 688.249 28.9079 688.249 29.9279V41.9979C688.249 43.0179 688.34 43.9132 688.521 44.6839C688.703 45.4319 689.054 46.0212 689.575 46.4519C690.119 46.8599 690.901 47.0639 691.921 47.0639ZM703.211 49.7839V22.2439H708.753C710.589 22.2439 712.108 22.4932 713.309 22.9919C714.511 23.4679 715.395 24.2499 715.961 25.3379C716.551 26.4032 716.845 27.8086 716.845 29.5539C716.845 30.6192 716.732 31.5939 716.505 32.4779C716.279 33.3392 715.916 34.0759 715.417 34.6879C714.919 35.2772 714.261 35.7079 713.445 35.9799L717.355 49.7839H713.649L710.045 36.8639H707.053V49.7839H703.211ZM707.053 34.1099H708.515C709.603 34.1099 710.487 33.9739 711.167 33.7019C711.847 33.4299 712.346 32.9652 712.663 32.3079C712.981 31.6506 713.139 30.7326 713.139 29.5539C713.139 27.9446 712.845 26.7886 712.255 26.0859C711.666 25.3606 710.499 24.9979 708.753 24.9979H707.053V34.1099ZM723.868 49.7839V25.0999H719.21V22.2439H732.232V25.0999H727.71V49.7839H723.868ZM741.993 50.0899C739.998 50.0899 738.468 49.6932 737.403 48.8999C736.338 48.1066 735.612 46.9959 735.227 45.5679C734.842 44.1172 734.649 42.4286 734.649 40.5019V22.2439H738.321V40.6719C738.321 41.8506 738.4 42.9272 738.559 43.9019C738.718 44.8766 739.058 45.6472 739.579 46.2139C740.123 46.7806 740.928 47.0639 741.993 47.0639C743.081 47.0639 743.886 46.7806 744.407 46.2139C744.928 45.6472 745.268 44.8766 745.427 43.9019C745.586 42.9272 745.665 41.8506 745.665 40.6719V22.2439H749.303V40.5019C749.303 42.4286 749.11 44.1172 748.725 45.5679C748.34 46.9959 747.614 48.1066 746.549 48.8999C745.506 49.6932 743.988 50.0899 741.993 50.0899ZM753.348 49.7839V22.2439H755.966L763.786 40.5359V22.2439H766.982V49.7839H764.534L756.612 30.9819V49.7839H753.348ZM771.515 49.7839V22.2439H775.289V49.7839H771.515ZM782.771 49.7839V25.0999H778.113V22.2439H791.135V25.0999H786.613V49.7839H782.771ZM798.005 49.7839V40.0599L792.055 22.2439H795.625L799.841 35.5379L803.989 22.2439H807.593L801.677 40.0599V49.7839H798.005ZM825.222 49.7839V45.7379H828.86V49.7839H825.222ZM854.207 50.1239C852.484 50.1239 851.102 49.7612 850.059 49.0359C849.039 48.2879 848.291 47.2112 847.815 45.8059C847.362 44.4006 847.135 42.7119 847.135 40.7399V31.5259C847.135 29.5086 847.339 27.7972 847.747 26.3919C848.178 24.9639 848.926 23.8759 849.991 23.1279C851.079 22.3799 852.586 22.0059 854.513 22.0059C856.236 22.0059 857.618 22.3006 858.661 22.8899C859.726 23.4566 860.497 24.3406 860.973 25.5419C861.449 26.7206 861.687 28.2166 861.687 30.0299V31.0499H858.083V30.1999C858.083 28.9986 858.004 28.0239 857.845 27.2759C857.686 26.5052 857.358 25.9386 856.859 25.5759C856.383 25.1906 855.624 24.9979 854.581 24.9979C853.448 24.9979 852.62 25.2586 852.099 25.7799C851.6 26.3012 851.283 27.0152 851.147 27.9219C851.034 28.8059 850.977 29.8146 850.977 30.9479V41.1479C850.977 42.4626 851.068 43.5619 851.249 44.4459C851.453 45.3299 851.827 45.9872 852.371 46.4179C852.915 46.8486 853.686 47.0639 854.683 47.0639C855.68 47.0639 856.451 46.8259 856.995 46.3499C857.539 45.8739 857.913 45.1712 858.117 44.2419C858.321 43.3126 858.423 42.1566 858.423 40.7739V38.8699H854.921V36.1499H861.891V49.7839H859.477L859.103 46.6219C858.74 47.6419 858.174 48.4806 857.403 49.1379C856.632 49.7952 855.567 50.1239 854.207 50.1239ZM865.84 49.7839V22.2439H876.516V25.0999H869.682V34.2119H875.224V36.9319H869.682V47.0299H876.584V49.7839H865.84ZM882.712 49.7839V25.0999H878.054V22.2439H891.076V25.0999H886.554V49.7839H882.712ZM901.5 49.7839V22.2439H907.824C909.071 22.2439 910.148 22.3799 911.054 22.6519C911.984 22.9239 912.754 23.3432 913.366 23.9099C913.978 24.4766 914.432 25.2019 914.726 26.0859C915.021 26.9472 915.168 27.9672 915.168 29.1459C915.168 30.2792 915.021 31.2652 914.726 32.1039C914.454 32.9199 914.024 33.5659 913.434 34.0419C912.868 34.5179 912.131 34.8239 911.224 34.9599C912.335 35.2092 913.23 35.6399 913.91 36.2519C914.59 36.8412 915.089 37.6119 915.406 38.5639C915.746 39.4932 915.916 40.6152 915.916 41.9299C915.916 43.1086 915.78 44.1852 915.508 45.1599C915.236 46.1346 914.806 46.9619 914.216 47.6419C913.65 48.3219 912.913 48.8546 912.006 49.2399C911.122 49.6026 910.068 49.7839 908.844 49.7839H901.5ZM905.342 47.0299H907.926C909.649 47.0299 910.794 46.6332 911.36 45.8399C911.95 45.0239 912.244 43.7206 912.244 41.9299C912.244 40.7739 912.086 39.8106 911.768 39.0399C911.474 38.2466 910.986 37.6572 910.306 37.2719C909.649 36.8639 908.754 36.6599 907.62 36.6599H905.342V47.0299ZM905.342 33.7359H907.62C908.708 33.7359 909.558 33.5886 910.17 33.2939C910.782 32.9766 911.213 32.4779 911.462 31.7979C911.712 31.1179 911.836 30.2339 911.836 29.1459C911.836 27.8766 911.644 26.9586 911.258 26.3919C910.873 25.8252 910.272 25.4739 909.456 25.3379C908.64 25.1792 907.575 25.0999 906.26 25.0999H905.342V33.7359ZM919.33 49.7839V22.2439H924.872C926.708 22.2439 928.227 22.4932 929.428 22.9919C930.63 23.4679 931.514 24.2499 932.08 25.3379C932.67 26.4032 932.964 27.8086 932.964 29.5539C932.964 30.6192 932.851 31.5939 932.624 32.4779C932.398 33.3392 932.035 34.0759 931.536 34.6879C931.038 35.2772 930.38 35.7079 929.564 35.9799L933.474 49.7839H929.768L926.164 36.8639H923.172V49.7839H919.33ZM923.172 34.1099H924.634C925.722 34.1099 926.606 33.9739 927.286 33.7019C927.966 33.4299 928.465 32.9652 928.782 32.3079C929.1 31.6506 929.258 30.7326 929.258 29.5539C929.258 27.9446 928.964 26.7886 928.374 26.0859C927.785 25.3606 926.618 24.9979 924.872 24.9979H923.172V34.1099ZM935.465 49.7839L941.313 22.2439H945.019L950.901 49.7839H947.263L946.005 42.8479H940.395L939.069 49.7839H935.465ZM940.905 40.0939H945.495L943.183 27.6839L940.905 40.0939ZM953.696 49.7839V22.2439H956.314L964.13 40.5359V22.2439H967.33V49.7839H964.88L956.96 30.9819V49.7839H953.696ZM971.66 49.7839V22.2439H977.64C979.68 22.2439 981.29 22.5612 982.47 23.1959C983.67 23.8079 984.52 24.7372 985.02 25.9839C985.54 27.2306 985.8 28.7832 985.8 30.6419V40.7739C985.8 42.7232 985.54 44.3666 985.02 45.7039C984.52 47.0412 983.69 48.0612 982.54 48.7639C981.41 49.4439 979.88 49.7839 977.95 49.7839H971.66ZM975.5 47.0299H977.68C979.08 47.0299 980.08 46.7579 980.67 46.2139C981.26 45.6699 981.61 44.8766 981.72 43.8339C981.86 42.7912 981.93 41.5332 981.93 40.0599V31.1179C981.93 29.6899 981.84 28.5339 981.65 27.6499C981.47 26.7659 981.08 26.1199 980.46 25.7119C979.85 25.3039 978.89 25.0999 977.57 25.0999H975.5V47.0299ZM989.59 49.7839V22.2439H1000.26V25.0999H993.43V34.2119H998.97V36.9319H993.43V47.0299H1000.33V49.7839H989.59ZM1003.43 49.7839V22.2439H1009.42C1011.46 22.2439 1013.07 22.5612 1014.25 23.1959C1015.45 23.8079 1016.3 24.7372 1016.8 25.9839C1017.32 27.2306 1017.58 28.7832 1017.58 30.6419V40.7739C1017.58 42.7232 1017.32 44.3666 1016.8 45.7039C1016.3 47.0412 1015.47 48.0612 1014.31 48.7639C1013.18 49.4439 1011.65 49.7839 1009.72 49.7839H1003.43ZM1007.28 47.0299H1009.45C1010.86 47.0299 1011.85 46.7579 1012.44 46.2139C1013.03 45.6699 1013.38 44.8766 1013.5 43.8339C1013.63 42.7912 1013.7 41.5332 1013.7 40.0599V31.1179C1013.7 29.6899 1013.61 28.5339 1013.43 27.6499C1013.25 26.7659 1012.85 26.1199 1012.24 25.7119C1011.63 25.3039 1010.66 25.0999 1009.35 25.0999H1007.28V47.0299ZM1029.13 49.7839V22.2439H1035.97C1037.62 22.2439 1038.94 22.5499 1039.91 23.1619C1040.91 23.7512 1041.63 24.6126 1042.09 25.7459C1042.54 26.8792 1042.77 28.2506 1042.77 29.8599C1042.77 31.3106 1042.51 32.5686 1041.99 33.6339C1041.49 34.6992 1040.74 35.5266 1039.74 36.1159C1038.74 36.6826 1037.5 36.9659 1036 36.9659H1032.98V49.7839H1029.13ZM1032.98 34.2119H1034.74C1035.85 34.2119 1036.73 34.0872 1037.36 33.8379C1038 33.5886 1038.45 33.1579 1038.72 32.5459C1038.99 31.9112 1039.13 31.0272 1039.13 29.8939C1039.13 28.5792 1039.03 27.5706 1038.82 26.8679C1038.64 26.1652 1038.25 25.6779 1037.63 25.4059C1037.02 25.1339 1036.07 24.9979 1034.78 24.9979H1032.98V34.2119ZM1045.47 49.7839V22.2439H1051.01C1052.85 22.2439 1054.37 22.4932 1055.57 22.9919C1056.77 23.4679 1057.65 24.2499 1058.22 25.3379C1058.81 26.4032 1059.1 27.8086 1059.1 29.5539C1059.1 30.6192 1058.99 31.5939 1058.76 32.4779C1058.54 33.3392 1058.17 34.0759 1057.68 34.6879C1057.18 35.2772 1056.52 35.7079 1055.7 35.9799L1059.61 49.7839H1055.91L1052.3 36.8639H1049.31V49.7839H1045.47ZM1049.31 34.1099H1050.77C1051.86 34.1099 1052.75 33.9739 1053.43 33.7019C1054.11 33.4299 1054.6 32.9652 1054.92 32.3079C1055.24 31.6506 1055.4 30.7326 1055.4 29.5539C1055.4 27.9446 1055.1 26.7886 1054.51 26.0859C1053.92 25.3606 1052.76 24.9979 1051.01 24.9979H1049.31V34.1099ZM1070.14 50.0899C1068.28 50.0899 1066.79 49.7272 1065.68 49.0019C1064.57 48.2766 1063.78 47.2452 1063.3 45.9079C1062.83 44.5479 1062.59 42.9612 1062.59 41.1479V30.7099C1062.59 28.8966 1062.83 27.3439 1063.3 26.0519C1063.8 24.7372 1064.6 23.7399 1065.68 23.0599C1066.79 22.3572 1068.28 22.0059 1070.14 22.0059C1072 22.0059 1073.47 22.3572 1074.56 23.0599C1075.65 23.7626 1076.43 24.7599 1076.9 26.0519C1077.4 27.3439 1077.65 28.8966 1077.65 30.7099V41.1819C1077.65 42.9726 1077.4 44.5366 1076.9 45.8739C1076.43 47.2112 1075.65 48.2539 1074.56 49.0019C1073.47 49.7272 1072 50.0899 1070.14 50.0899ZM1070.14 47.0639C1071.16 47.0639 1071.93 46.8599 1072.45 46.4519C1072.97 46.0212 1073.32 45.4319 1073.5 44.6839C1073.69 43.9132 1073.78 43.0179 1073.78 41.9979V29.9279C1073.78 28.9079 1073.69 28.0352 1073.5 27.3099C1073.32 26.5619 1072.97 25.9952 1072.45 25.6099C1071.93 25.2019 1071.16 24.9979 1070.14 24.9979C1069.12 24.9979 1068.34 25.2019 1067.79 25.6099C1067.27 25.9952 1066.92 26.5619 1066.74 27.3099C1066.56 28.0352 1066.47 28.9079 1066.47 29.9279V41.9979C1066.47 43.0179 1066.56 43.9132 1066.74 44.6839C1066.92 45.4319 1067.27 46.0212 1067.79 46.4519C1068.34 46.8599 1069.12 47.0639 1070.14 47.0639ZM1081.43 49.7839V22.2439H1087.41C1089.45 22.2439 1091.06 22.5612 1092.24 23.1959C1093.44 23.8079 1094.29 24.7372 1094.79 25.9839C1095.31 27.2306 1095.57 28.7832 1095.57 30.6419V40.7739C1095.57 42.7232 1095.31 44.3666 1094.79 45.7039C1094.29 47.0412 1093.46 48.0612 1092.31 48.7639C1091.17 49.4439 1089.64 49.7839 1087.72 49.7839H1081.43ZM1085.27 47.0299H1087.45C1088.85 47.0299 1089.85 46.7579 1090.44 46.2139C1091.03 45.6699 1091.38 44.8766 1091.49 43.8339C1091.63 42.7912 1091.7 41.5332 1091.7 40.0599V31.1179C1091.7 29.6899 1091.61 28.5339 1091.42 27.6499C1091.24 26.7659 1090.85 26.1199 1090.23 25.7119C1089.62 25.3039 1088.66 25.0999 1087.34 25.0999H1085.27V47.0299ZM1106.46 50.0899C1104.47 50.0899 1102.94 49.6932 1101.87 48.8999C1100.81 48.1066 1100.08 46.9959 1099.7 45.5679C1099.31 44.1172 1099.12 42.4286 1099.12 40.5019V22.2439H1102.79V40.6719C1102.79 41.8506 1102.87 42.9272 1103.03 43.9019C1103.19 44.8766 1103.53 45.6472 1104.05 46.2139C1104.59 46.7806 1105.4 47.0639 1106.46 47.0639C1107.55 47.0639 1108.36 46.7806 1108.88 46.2139C1109.4 45.6472 1109.74 44.8766 1109.9 43.9019C1110.06 42.9272 1110.14 41.8506 1110.14 40.6719V22.2439H1113.77V40.5019C1113.77 42.4286 1113.58 44.1172 1113.2 45.5679C1112.81 46.9959 1112.09 48.1066 1111.02 48.8999C1109.98 49.6932 1108.46 50.0899 1106.46 50.0899ZM1124.72 50.0899C1122.77 50.0899 1121.25 49.6819 1120.16 48.8659C1119.1 48.0499 1118.35 46.9506 1117.92 45.5679C1117.51 44.1852 1117.31 42.6439 1117.31 40.9439V31.2199C1117.31 29.3612 1117.51 27.7406 1117.92 26.3579C1118.35 24.9752 1119.1 23.9099 1120.16 23.1619C1121.25 22.3912 1122.77 22.0059 1124.72 22.0059C1126.44 22.0059 1127.8 22.3232 1128.8 22.9579C1129.82 23.5926 1130.55 24.4992 1130.98 25.6779C1131.43 26.8566 1131.66 28.2732 1131.66 29.9279V32.1039H1128.02V30.1659C1128.02 29.1459 1127.96 28.2506 1127.85 27.4799C1127.76 26.6866 1127.49 26.0746 1127.03 25.6439C1126.58 25.2132 1125.82 24.9979 1124.75 24.9979C1123.67 24.9979 1122.87 25.2359 1122.37 25.7119C1121.88 26.1652 1121.55 26.8226 1121.39 27.6839C1121.25 28.5226 1121.18 29.5086 1121.18 30.6419V41.5559C1121.18 42.9386 1121.3 44.0379 1121.52 44.8539C1121.75 45.6472 1122.13 46.2139 1122.65 46.5539C1123.17 46.8939 1123.87 47.0639 1124.75 47.0639C1125.8 47.0639 1126.55 46.8372 1127 46.3839C1127.45 45.9079 1127.74 45.2619 1127.85 44.4459C1127.96 43.6299 1128.02 42.6779 1128.02 41.5899V39.5499H1131.66V41.5899C1131.66 43.2672 1131.45 44.7519 1131.04 46.0439C1130.64 47.3132 1129.93 48.3106 1128.94 49.0359C1127.94 49.7386 1126.53 50.0899 1124.72 50.0899ZM1138.34 49.7839V25.0999H1133.68V22.2439H1146.71V25.0999H1142.18V49.7839H1138.34ZM1155.64 49.7839L1161.48 22.2439H1165.19L1171.07 49.7839H1167.43L1166.18 42.8479H1160.57L1159.24 49.7839H1155.64ZM1161.08 40.0939H1165.67L1163.35 27.6839L1161.08 40.0939ZM1175.8 49.7839V25.0999H1171.14V22.2439H1184.16V25.0999H1179.64V49.7839H1175.8ZM1194.58 49.7839V22.2439H1197.2L1205.02 40.5359V22.2439H1208.22V49.7839H1205.77L1197.85 30.9819V49.7839H1194.58ZM1219.59 50.0899C1217.73 50.0899 1216.24 49.7272 1215.13 49.0019C1214.02 48.2766 1213.23 47.2452 1212.75 45.9079C1212.28 44.5479 1212.04 42.9612 1212.04 41.1479V30.7099C1212.04 28.8966 1212.28 27.3439 1212.75 26.0519C1213.25 24.7372 1214.04 23.7399 1215.13 23.0599C1216.24 22.3572 1217.73 22.0059 1219.59 22.0059C1221.44 22.0059 1222.92 22.3572 1224.01 23.0599C1225.09 23.7626 1225.88 24.7599 1226.35 26.0519C1226.85 27.3439 1227.1 28.8966 1227.1 30.7099V41.1819C1227.1 42.9726 1226.85 44.5366 1226.35 45.8739C1225.88 47.2112 1225.09 48.2539 1224.01 49.0019C1222.92 49.7272 1221.44 50.0899 1219.59 50.0899ZM1219.59 47.0639C1220.61 47.0639 1221.38 46.8599 1221.9 46.4519C1222.42 46.0212 1222.77 45.4319 1222.95 44.6839C1223.13 43.9132 1223.22 43.0179 1223.22 41.9979V29.9279C1223.22 28.9079 1223.13 28.0352 1222.95 27.3099C1222.77 26.5619 1222.42 25.9952 1221.9 25.6099C1221.38 25.2019 1220.61 24.9979 1219.59 24.9979C1218.57 24.9979 1217.78 25.2019 1217.24 25.6099C1216.72 25.9952 1216.37 26.5619 1216.19 27.3099C1216 28.0352 1215.91 28.9079 1215.91 29.9279V41.9979C1215.91 43.0179 1216 43.9132 1216.19 44.6839C1216.37 45.4319 1216.72 46.0212 1217.24 46.4519C1217.78 46.8599 1218.57 47.0639 1219.59 47.0639ZM1245.55 50.0899C1243.6 50.0899 1242.08 49.6819 1240.99 48.8659C1239.93 48.0499 1239.18 46.9506 1238.75 45.5679C1238.34 44.1852 1238.13 42.6439 1238.13 40.9439V31.2199C1238.13 29.3612 1238.34 27.7406 1238.75 26.3579C1239.18 24.9752 1239.93 23.9099 1240.99 23.1619C1242.08 22.3912 1243.6 22.0059 1245.55 22.0059C1247.27 22.0059 1248.63 22.3232 1249.63 22.9579C1250.65 23.5926 1251.37 24.4992 1251.8 25.6779C1252.26 26.8566 1252.48 28.2732 1252.48 29.9279V32.1039H1248.84V30.1659C1248.84 29.1459 1248.79 28.2506 1248.67 27.4799C1248.58 26.6866 1248.31 26.0746 1247.86 25.6439C1247.41 25.2132 1246.65 24.9979 1245.58 24.9979C1244.49 24.9979 1243.7 25.2359 1243.2 25.7119C1242.7 26.1652 1242.37 26.8226 1242.21 27.6839C1242.08 28.5226 1242.01 29.5086 1242.01 30.6419V41.5559C1242.01 42.9386 1242.12 44.0379 1242.35 44.8539C1242.58 45.6472 1242.95 46.2139 1243.47 46.5539C1243.99 46.8939 1244.7 47.0639 1245.58 47.0639C1246.62 47.0639 1247.37 46.8372 1247.82 46.3839C1248.28 45.9079 1248.56 45.2619 1248.67 44.4459C1248.79 43.6299 1248.84 42.6779 1248.84 41.5899V39.5499H1252.48V41.5899C1252.48 43.2672 1252.28 44.7519 1251.87 46.0439C1251.46 47.3132 1250.76 48.3106 1249.76 49.0359C1248.77 49.7386 1247.36 50.0899 1245.55 50.0899ZM1263.18 50.0899C1261.32 50.0899 1259.84 49.7272 1258.73 49.0019C1257.62 48.2766 1256.82 47.2452 1256.35 45.9079C1255.87 44.5479 1255.63 42.9612 1255.63 41.1479V30.7099C1255.63 28.8966 1255.87 27.3439 1256.35 26.0519C1256.85 24.7372 1257.64 23.7399 1258.73 23.0599C1259.84 22.3572 1261.32 22.0059 1263.18 22.0059C1265.04 22.0059 1266.51 22.3572 1267.6 23.0599C1268.69 23.7626 1269.47 24.7599 1269.95 26.0519C1270.45 27.3439 1270.69 28.8966 1270.69 30.7099V41.1819C1270.69 42.9726 1270.45 44.5366 1269.95 45.8739C1269.47 47.2112 1268.69 48.2539 1267.6 49.0019C1266.51 49.7272 1265.04 50.0899 1263.18 50.0899ZM1263.18 47.0639C1264.2 47.0639 1264.97 46.8599 1265.49 46.4519C1266.01 46.0212 1266.37 45.4319 1266.55 44.6839C1266.73 43.9132 1266.82 43.0179 1266.82 41.9979V29.9279C1266.82 28.9079 1266.73 28.0352 1266.55 27.3099C1266.37 26.5619 1266.01 25.9952 1265.49 25.6099C1264.97 25.2019 1264.2 24.9979 1263.18 24.9979C1262.16 24.9979 1261.38 25.2019 1260.83 25.6099C1260.31 25.9952 1259.96 26.5619 1259.78 27.3099C1259.6 28.0352 1259.51 28.9079 1259.51 29.9279V41.9979C1259.51 43.0179 1259.6 43.9132 1259.78 44.6839C1259.96 45.4319 1260.31 46.0212 1260.83 46.4519C1261.38 46.8599 1262.16 47.0639 1263.18 47.0639ZM1280.97 50.0899C1279.38 50.0899 1278.05 49.7499 1276.99 49.0699C1275.94 48.3899 1275.15 47.4492 1274.61 46.2479C1274.06 45.0466 1273.75 43.6526 1273.66 42.0659L1277.06 41.1479C1277.12 42.1226 1277.27 43.0632 1277.5 43.9699C1277.75 44.8766 1278.14 45.6246 1278.69 46.2139C1279.23 46.7806 1279.99 47.0639 1280.97 47.0639C1281.96 47.0639 1282.71 46.7919 1283.21 46.2479C1283.73 45.6812 1283.99 44.8766 1283.99 43.8339C1283.99 42.5872 1283.71 41.5899 1283.14 40.8419C1282.57 40.0712 1281.86 39.3006 1281 38.5299L1276.38 34.4499C1275.47 33.6566 1274.8 32.7952 1274.37 31.8659C1273.94 30.9139 1273.72 29.7466 1273.72 28.3639C1273.72 26.3466 1274.3 24.7826 1275.46 23.6719C1276.61 22.5612 1278.19 22.0059 1280.18 22.0059C1281.27 22.0059 1282.22 22.1532 1283.04 22.4479C1283.88 22.7199 1284.57 23.1506 1285.11 23.7399C1285.68 24.3292 1286.12 25.0772 1286.44 25.9839C1286.78 26.8679 1287.01 27.9106 1287.12 29.1119L1283.86 29.9959C1283.79 29.0892 1283.65 28.2619 1283.45 27.5139C1283.24 26.7432 1282.88 26.1312 1282.36 25.6779C1281.86 25.2019 1281.14 24.9639 1280.18 24.9639C1279.23 24.9639 1278.48 25.2246 1277.94 25.7459C1277.42 26.2446 1277.16 26.9926 1277.16 27.9899C1277.16 28.8286 1277.29 29.5199 1277.57 30.0639C1277.86 30.6079 1278.32 31.1632 1278.96 31.7299L1283.62 35.8099C1284.66 36.7166 1285.58 37.8046 1286.37 39.0739C1287.16 40.3206 1287.56 41.8052 1287.56 43.5279C1287.56 44.8879 1287.28 46.0666 1286.71 47.0639C1286.14 48.0386 1285.36 48.7866 1284.37 49.3079C1283.39 49.8292 1282.26 50.0899 1280.97 50.0899ZM1293.57 49.7839V25.0999H1288.91V22.2439H1301.93V25.0999H1297.41V49.7839H1293.57ZM1319.65 49.7839V45.7379H1323.29V49.7839H1319.65ZM1342.07 49.7839V22.2439H1348.4C1349.64 22.2439 1350.72 22.3799 1351.63 22.6519C1352.56 22.9239 1353.33 23.3432 1353.94 23.9099C1354.55 24.4766 1355 25.2019 1355.3 26.0859C1355.59 26.9472 1355.74 27.9672 1355.74 29.1459C1355.74 30.2792 1355.59 31.2652 1355.3 32.1039C1355.03 32.9199 1354.6 33.5659 1354.01 34.0419C1353.44 34.5179 1352.7 34.8239 1351.8 34.9599C1352.91 35.2092 1353.8 35.6399 1354.48 36.2519C1355.16 36.8412 1355.66 37.6119 1355.98 38.5639C1356.32 39.4932 1356.49 40.6152 1356.49 41.9299C1356.49 43.1086 1356.35 44.1852 1356.08 45.1599C1355.81 46.1346 1355.38 46.9619 1354.79 47.6419C1354.22 48.3219 1353.49 48.8546 1352.58 49.2399C1351.69 49.6026 1350.64 49.7839 1349.42 49.7839H1342.07ZM1345.91 47.0299H1348.5C1350.22 47.0299 1351.37 46.6332 1351.93 45.8399C1352.52 45.0239 1352.82 43.7206 1352.82 41.9299C1352.82 40.7739 1352.66 39.8106 1352.34 39.0399C1352.05 38.2466 1351.56 37.6572 1350.88 37.2719C1350.22 36.8639 1349.33 36.6599 1348.19 36.6599H1345.91V47.0299ZM1345.91 33.7359H1348.19C1349.28 33.7359 1350.13 33.5886 1350.74 33.2939C1351.35 32.9766 1351.79 32.4779 1352.03 31.7979C1352.28 31.1179 1352.41 30.2339 1352.41 29.1459C1352.41 27.8766 1352.22 26.9586 1351.83 26.3919C1351.45 25.8252 1350.84 25.4739 1350.03 25.3379C1349.21 25.1792 1348.15 25.0999 1346.83 25.0999H1345.91V33.7359ZM1360.11 49.7839V22.2439H1363.88V49.7839H1360.11ZM1374.9 50.1239C1373.18 50.1239 1371.79 49.7612 1370.75 49.0359C1369.73 48.2879 1368.98 47.2112 1368.51 45.8059C1368.05 44.4006 1367.83 42.7119 1367.83 40.7399V31.5259C1367.83 29.5086 1368.03 27.7972 1368.44 26.3919C1368.87 24.9639 1369.62 23.8759 1370.68 23.1279C1371.77 22.3799 1373.28 22.0059 1375.2 22.0059C1376.93 22.0059 1378.31 22.3006 1379.35 22.8899C1380.42 23.4566 1381.19 24.3406 1381.66 25.5419C1382.14 26.7206 1382.38 28.2166 1382.38 30.0299V31.0499H1378.77V30.1999C1378.77 28.9986 1378.7 28.0239 1378.54 27.2759C1378.38 26.5052 1378.05 25.9386 1377.55 25.5759C1377.07 25.1906 1376.32 24.9979 1375.27 24.9979C1374.14 24.9979 1373.31 25.2586 1372.79 25.7799C1372.29 26.3012 1371.97 27.0152 1371.84 27.9219C1371.73 28.8059 1371.67 29.8146 1371.67 30.9479V41.1479C1371.67 42.4626 1371.76 43.5619 1371.94 44.4459C1372.14 45.3299 1372.52 45.9872 1373.06 46.4179C1373.61 46.8486 1374.38 47.0639 1375.37 47.0639C1376.37 47.0639 1377.14 46.8259 1377.69 46.3499C1378.23 45.8739 1378.6 45.1712 1378.81 44.2419C1379.01 43.3126 1379.11 42.1566 1379.11 40.7739V38.8699H1375.61V36.1499H1382.58V49.7839H1380.17L1379.79 46.6219C1379.43 47.6419 1378.87 48.4806 1378.09 49.1379C1377.32 49.7952 1376.26 50.1239 1374.9 50.1239ZM1393.09 50.1239C1391.37 50.1239 1389.99 49.7612 1388.95 49.0359C1387.93 48.2879 1387.18 47.2112 1386.7 45.8059C1386.25 44.4006 1386.02 42.7119 1386.02 40.7399V31.5259C1386.02 29.5086 1386.23 27.7972 1386.63 26.3919C1387.06 24.9639 1387.81 23.8759 1388.88 23.1279C1389.97 22.3799 1391.47 22.0059 1393.4 22.0059C1395.12 22.0059 1396.5 22.3006 1397.55 22.8899C1398.61 23.4566 1399.38 24.3406 1399.86 25.5419C1400.34 26.7206 1400.57 28.2166 1400.57 30.0299V31.0499H1396.97V30.1999C1396.97 28.9986 1396.89 28.0239 1396.73 27.2759C1396.57 26.5052 1396.24 25.9386 1395.75 25.5759C1395.27 25.1906 1394.51 24.9979 1393.47 24.9979C1392.33 24.9979 1391.51 25.2586 1390.99 25.7799C1390.49 26.3012 1390.17 27.0152 1390.03 27.9219C1389.92 28.8059 1389.86 29.8146 1389.86 30.9479V41.1479C1389.86 42.4626 1389.95 43.5619 1390.14 44.4459C1390.34 45.3299 1390.71 45.9872 1391.26 46.4179C1391.8 46.8486 1392.57 47.0639 1393.57 47.0639C1394.57 47.0639 1395.34 46.8259 1395.88 46.3499C1396.43 45.8739 1396.8 45.1712 1397 44.2419C1397.21 43.3126 1397.31 42.1566 1397.31 40.7739V38.8699H1393.81V36.1499H1400.78V49.7839H1398.36L1397.99 46.6219C1397.63 47.6419 1397.06 48.4806 1396.29 49.1379C1395.52 49.7952 1394.45 50.1239 1393.09 50.1239ZM1404.73 49.7839V22.2439H1415.4V25.0999H1408.57V34.2119H1414.11V36.9319H1408.57V47.0299H1415.47V49.7839H1404.73ZM1425.07 50.0899C1423.48 50.0899 1422.15 49.7499 1421.09 49.0699C1420.05 48.3899 1419.25 47.4492 1418.71 46.2479C1418.16 45.0466 1417.85 43.6526 1417.76 42.0659L1421.16 41.1479C1421.22 42.1226 1421.37 43.0632 1421.6 43.9699C1421.85 44.8766 1422.24 45.6246 1422.79 46.2139C1423.33 46.7806 1424.09 47.0639 1425.07 47.0639C1426.06 47.0639 1426.81 46.7919 1427.31 46.2479C1427.83 45.6812 1428.09 44.8766 1428.09 43.8339C1428.09 42.5872 1427.81 41.5899 1427.24 40.8419C1426.68 40.0712 1425.96 39.3006 1425.1 38.5299L1420.48 34.4499C1419.57 33.6566 1418.9 32.7952 1418.47 31.8659C1418.04 30.9139 1417.82 29.7466 1417.82 28.3639C1417.82 26.3466 1418.4 24.7826 1419.56 23.6719C1420.71 22.5612 1422.29 22.0059 1424.28 22.0059C1425.37 22.0059 1426.32 22.1532 1427.14 22.4479C1427.98 22.7199 1428.67 23.1506 1429.21 23.7399C1429.78 24.3292 1430.22 25.0772 1430.54 25.9839C1430.88 26.8679 1431.11 27.9106 1431.22 29.1119L1427.96 29.9959C1427.89 29.0892 1427.75 28.2619 1427.55 27.5139C1427.34 26.7432 1426.98 26.1312 1426.46 25.6779C1425.96 25.2019 1425.24 24.9639 1424.28 24.9639C1423.33 24.9639 1422.58 25.2246 1422.04 25.7459C1421.52 26.2446 1421.26 26.9926 1421.26 27.9899C1421.26 28.8286 1421.39 29.5199 1421.67 30.0639C1421.96 30.6079 1422.43 31.1632 1423.06 31.7299L1427.72 35.8099C1428.76 36.7166 1429.68 37.8046 1430.47 39.0739C1431.27 40.3206 1431.66 41.8052 1431.66 43.5279C1431.66 44.8879 1431.38 46.0666 1430.81 47.0639C1430.25 48.0386 1429.46 48.7866 1428.47 49.3079C1427.49 49.8292 1426.36 50.0899 1425.07 50.0899ZM1437.67 49.7839V25.0999H1433.01V22.2439H1446.03V25.0999H1441.51V49.7839H1437.67ZM1463.5 50.0899C1461.64 50.0899 1460.15 49.7272 1459.04 49.0019C1457.93 48.2766 1457.14 47.2452 1456.66 45.9079C1456.19 44.5479 1455.95 42.9612 1455.95 41.1479V30.7099C1455.95 28.8966 1456.19 27.3439 1456.66 26.0519C1457.16 24.7372 1457.95 23.7399 1459.04 23.0599C1460.15 22.3572 1461.64 22.0059 1463.5 22.0059C1465.35 22.0059 1466.83 22.3572 1467.92 23.0599C1469 23.7626 1469.79 24.7599 1470.26 26.0519C1470.76 27.3439 1471.01 28.8966 1471.01 30.7099V41.1819C1471.01 42.9726 1470.76 44.5366 1470.26 45.8739C1469.79 47.2112 1469 48.2539 1467.92 49.0019C1466.83 49.7272 1465.35 50.0899 1463.5 50.0899ZM1463.5 47.0639C1464.52 47.0639 1465.29 46.8599 1465.81 46.4519C1466.33 46.0212 1466.68 45.4319 1466.86 44.6839C1467.04 43.9132 1467.13 43.0179 1467.13 41.9979V29.9279C1467.13 28.9079 1467.04 28.0352 1466.86 27.3099C1466.68 26.5619 1466.33 25.9952 1465.81 25.6099C1465.29 25.2019 1464.52 24.9979 1463.5 24.9979C1462.48 24.9979 1461.69 25.2019 1461.15 25.6099C1460.63 25.9952 1460.28 26.5619 1460.1 27.3099C1459.91 28.0352 1459.82 28.9079 1459.82 29.9279V41.9979C1459.82 43.0179 1459.91 43.9132 1460.1 44.6839C1460.28 45.4319 1460.63 46.0212 1461.15 46.4519C1461.69 46.8599 1462.48 47.0639 1463.5 47.0639ZM1474.79 49.7839V22.2439H1481.62C1483.27 22.2439 1484.59 22.5499 1485.56 23.1619C1486.56 23.7512 1487.29 24.6126 1487.74 25.7459C1488.19 26.8792 1488.42 28.2506 1488.42 29.8599C1488.42 31.3106 1488.16 32.5686 1487.64 33.6339C1487.14 34.6992 1486.39 35.5266 1485.39 36.1159C1484.4 36.6826 1483.15 36.9659 1481.65 36.9659H1478.63V49.7839H1474.79ZM1478.63 34.2119H1480.4C1481.51 34.2119 1482.38 34.0872 1483.01 33.8379C1483.65 33.5886 1484.1 33.1579 1484.37 32.5459C1484.65 31.9112 1484.78 31.0272 1484.78 29.8939C1484.78 28.5792 1484.68 27.5706 1484.48 26.8679C1484.29 26.1652 1483.9 25.6779 1483.29 25.4059C1482.67 25.1339 1481.72 24.9979 1480.43 24.9979H1478.63V34.2119ZM1491.12 49.7839V22.2439H1497.96C1499.61 22.2439 1500.92 22.5499 1501.9 23.1619C1502.9 23.7512 1503.62 24.6126 1504.08 25.7459C1504.53 26.8792 1504.76 28.2506 1504.76 29.8599C1504.76 31.3106 1504.49 32.5686 1503.97 33.6339C1503.47 34.6992 1502.73 35.5266 1501.73 36.1159C1500.73 36.6826 1499.49 36.9659 1497.99 36.9659H1494.96V49.7839H1491.12ZM1494.96 34.2119H1496.73C1497.84 34.2119 1498.71 34.0872 1499.35 33.8379C1499.98 33.5886 1500.44 33.1579 1500.71 32.5459C1500.98 31.9112 1501.12 31.0272 1501.12 29.8939C1501.12 28.5792 1501.02 27.5706 1500.81 26.8679C1500.63 26.1652 1500.23 25.6779 1499.62 25.4059C1499.01 25.1339 1498.06 24.9979 1496.77 24.9979H1494.96V34.2119ZM1514.5 50.0899C1512.64 50.0899 1511.15 49.7272 1510.04 49.0019C1508.93 48.2766 1508.14 47.2452 1507.66 45.9079C1507.19 44.5479 1506.95 42.9612 1506.95 41.1479V30.7099C1506.95 28.8966 1507.19 27.3439 1507.66 26.0519C1508.16 24.7372 1508.95 23.7399 1510.04 23.0599C1511.15 22.3572 1512.64 22.0059 1514.5 22.0059C1516.35 22.0059 1517.83 22.3572 1518.92 23.0599C1520 23.7626 1520.79 24.7599 1521.26 26.0519C1521.76 27.3439 1522.01 28.8966 1522.01 30.7099V41.1819C1522.01 42.9726 1521.76 44.5366 1521.26 45.8739C1520.79 47.2112 1520 48.2539 1518.92 49.0019C1517.83 49.7272 1516.35 50.0899 1514.5 50.0899ZM1514.5 47.0639C1515.52 47.0639 1516.29 46.8599 1516.81 46.4519C1517.33 46.0212 1517.68 45.4319 1517.86 44.6839C1518.04 43.9132 1518.13 43.0179 1518.13 41.9979V29.9279C1518.13 28.9079 1518.04 28.0352 1517.86 27.3099C1517.68 26.5619 1517.33 25.9952 1516.81 25.6099C1516.29 25.2019 1515.52 24.9979 1514.5 24.9979C1513.48 24.9979 1512.69 25.2019 1512.15 25.6099C1511.63 25.9952 1511.28 26.5619 1511.1 27.3099C1510.91 28.0352 1510.82 28.9079 1510.82 29.9279V41.9979C1510.82 43.0179 1510.91 43.9132 1511.1 44.6839C1511.28 45.4319 1511.63 46.0212 1512.15 46.4519C1512.69 46.8599 1513.48 47.0639 1514.5 47.0639ZM1525.79 49.7839V22.2439H1531.33C1533.16 22.2439 1534.68 22.4932 1535.88 22.9919C1537.08 23.4679 1537.97 24.2499 1538.54 25.3379C1539.12 26.4032 1539.42 27.8086 1539.42 29.5539C1539.42 30.6192 1539.31 31.5939 1539.08 32.4779C1538.85 33.3392 1538.49 34.0759 1537.99 34.6879C1537.49 35.2772 1536.84 35.7079 1536.02 35.9799L1539.93 49.7839H1536.22L1532.62 36.8639H1529.63V49.7839H1525.79ZM1529.63 34.1099H1531.09C1532.18 34.1099 1533.06 33.9739 1533.74 33.7019C1534.42 33.4299 1534.92 32.9652 1535.24 32.3079C1535.55 31.6506 1535.71 30.7326 1535.71 29.5539C1535.71 27.9446 1535.42 26.7886 1534.83 26.0859C1534.24 25.3606 1533.07 24.9979 1531.33 24.9979H1529.63V34.1099ZM1546.44 49.7839V25.0999H1541.78V22.2439H1554.81V25.0999H1550.28V49.7839H1546.44ZM1564.57 50.0899C1562.57 50.0899 1561.04 49.6932 1559.98 48.8999C1558.91 48.1066 1558.19 46.9959 1557.8 45.5679C1557.42 44.1172 1557.22 42.4286 1557.22 40.5019V22.2439H1560.9V40.6719C1560.9 41.8506 1560.97 42.9272 1561.13 43.9019C1561.29 44.8766 1561.63 45.6472 1562.15 46.2139C1562.7 46.7806 1563.5 47.0639 1564.57 47.0639C1565.66 47.0639 1566.46 46.7806 1566.98 46.2139C1567.5 45.6472 1567.84 44.8766 1568 43.9019C1568.16 42.9272 1568.24 41.8506 1568.24 40.6719V22.2439H1571.88V40.5019C1571.88 42.4286 1571.68 44.1172 1571.3 45.5679C1570.91 46.9959 1570.19 48.1066 1569.12 48.8999C1568.08 49.6932 1566.56 50.0899 1564.57 50.0899ZM1575.92 49.7839V22.2439H1578.54L1586.36 40.5359V22.2439H1589.56V49.7839H1587.11L1579.19 30.9819V49.7839H1575.92ZM1594.09 49.7839V22.2439H1597.86V49.7839H1594.09ZM1605.34 49.7839V25.0999H1600.69V22.2439H1613.71V25.0999H1609.19V49.7839H1605.34ZM1620.58 49.7839V40.0599L1614.63 22.2439H1618.2L1622.42 35.5379L1626.56 22.2439H1630.17L1624.25 40.0599V49.7839H1620.58ZM1647.8 49.7839V45.7379H1651.43V49.7839H1647.8Z" fill="#F8F8F8"/>
</svg>
