<svg width="74" height="29" viewBox="0 0 74 29" fill="none" xmlns="http://www.w3.org/2000/svg">
<path d="M33.6629 3.67192C32.7514 3.87206 32.175 4.37612 31.9179 5.26583C31.6335 6.25011 32.225 7.72839 33.1308 8.17459C33.4263 8.32012 33.7414 8.216 34.0474 8.21768C34.2834 8.21898 34.5066 8.22222 34.6426 8.46602C34.864 8.86285 34.705 9.27004 34.2633 9.37681C34.0759 9.4221 33.8765 9.43451 33.6827 9.43337C32.2178 9.42481 31.2216 10.4818 30.9648 11.6832C30.5833 13.4684 30.9281 15.092 32.3975 16.3141C33.1486 16.9388 34.0325 17.2872 35.0201 17.4126C36.2719 17.5716 37.4708 17.4201 38.6136 16.9176C40.3078 16.1727 41.5176 14.9322 41.8445 13.0878C42.0657 11.84 41.9408 10.5567 40.9871 9.53499C40.6461 9.16957 40.2225 8.92858 39.7323 8.88195C39.0503 8.81708 38.3853 8.88378 37.7993 9.31768C37.3629 9.64085 37.1795 10.3114 37.4461 10.7557C37.6919 11.1654 38.3005 11.3044 38.793 11.0592C38.8846 11.0136 38.9711 10.9549 39.0536 10.8938C39.4607 10.5924 39.7782 10.7173 39.8754 11.2195C40.109 12.4269 39.1243 13.3324 37.9262 13.0234C37.0673 12.8019 36.6526 12.1426 36.4898 11.3808C36.3191 10.5814 36.2562 9.73135 36.6457 8.95067C37.1285 7.98299 37.9003 7.32919 38.9239 6.98245C39.9223 6.64424 40.9462 6.4214 41.9881 6.24925C42.7854 6.1175 43.5982 6.02126 44.3635 5.73068C44.8462 5.54738 45.2106 5.2286 45.4034 4.74329C45.5686 4.32734 45.3611 3.93137 44.94 3.78498C44.4433 3.61233 44.0221 3.75111 43.6288 4.05947C43.2939 4.32208 43.1758 4.29448 42.9711 3.92064C42.5605 3.17067 43.0058 2.13077 43.8716 1.92769C44.989 1.66559 45.9464 2.02224 46.2439 3.35296C46.5895 4.89885 45.9378 6.02403 44.7721 6.92581C43.9113 7.59178 42.9173 7.95542 41.8335 8.07593C41.6416 8.09726 41.4554 8.16611 41.2652 8.20683C41.0405 8.25493 41.0725 8.32361 41.2132 8.46469C41.6979 8.95076 42.1665 9.4435 42.4945 10.0661C43.0121 11.0487 43.0354 12.0991 42.9456 13.1499C42.8722 14.0092 42.5752 14.8236 42.1344 15.5757C41.6036 16.4815 40.8988 17.2203 40.0136 17.7847C39.0246 18.4151 37.9449 18.7687 36.787 18.974C34.9269 19.3039 33.1604 19.0633 31.4732 18.2615C29.9584 17.5415 29.0064 16.3497 28.5974 14.7032C28.3435 13.6812 28.3371 12.6688 28.6508 11.6868C29.0179 10.5372 29.7709 9.67587 30.9091 9.19593C31.0989 9.11591 31.2967 9.05497 31.4865 8.97488C31.6974 8.88588 31.7402 8.76587 31.5506 8.59572C31.3041 8.3744 31.0526 8.16108 30.8628 7.87922C29.5726 5.96338 30.6269 3.56042 32.766 3.02233C33.8141 2.7587 34.8657 2.64683 35.9137 3.00501C37.4598 3.53349 37.9089 5.06718 37.1197 6.25513C36.7305 6.84096 35.8116 6.99491 35.2581 6.57625C35.0124 6.39048 34.9833 6.22619 35.202 5.98697C35.5475 5.60905 35.7543 5.18313 35.5756 4.64268C35.3811 4.05468 34.8505 3.64866 34.2085 3.64097C34.0369 3.63891 33.865 3.65826 33.6629 3.67192Z" fill="#F8F8F8"/>
<path d="M58.6707 5.10601C59.964 5.03824 61.2239 4.97031 62.4841 4.9075C63.005 4.88154 63.2721 5.08543 63.3039 5.51756C63.337 5.96756 63.0865 6.24654 62.5732 6.28087C61.6577 6.34211 60.7407 6.38104 59.8246 6.43375C59.3963 6.45839 59.3466 6.51201 59.3642 6.92985C59.3849 7.42262 59.4198 7.91481 59.4383 8.40763C59.4467 8.6303 59.5356 8.69795 59.7617 8.68132C60.5051 8.62667 61.2502 8.59444 61.9946 8.5532C62.1787 8.543 62.3601 8.54387 62.5376 8.60981C62.8464 8.72456 63.0868 9.05333 63.0643 9.3411C63.0399 9.65234 62.7177 9.9861 62.3787 10.0094C61.6235 10.0613 60.867 10.0937 60.1111 10.1358C59.5561 10.1667 59.5349 10.1908 59.5618 10.7524C59.5793 11.119 59.5975 11.4856 59.6199 11.852C59.6501 12.3472 59.6991 12.3915 60.2093 12.3667C61.0113 12.3278 61.813 12.2844 62.6148 12.2419C62.7992 12.2321 62.9803 12.2366 63.1586 12.297C63.5441 12.4274 63.7317 12.7087 63.6934 13.1105C63.6636 13.4231 63.4128 13.6639 63.0295 13.6945C62.4237 13.7428 61.8159 13.766 61.2088 13.7983C60.4987 13.8361 59.7886 13.8774 59.0781 13.9072C58.5628 13.9288 58.2251 13.629 58.1971 13.1134C58.0681 10.7425 57.9434 8.37143 57.8241 6.00004C57.7929 5.38142 58.0099 5.15589 58.6707 5.10601Z" fill="#F8F8F8"/>
<path d="M51.0989 11.3419C50.7277 11.6503 50.6441 12.0248 50.7013 12.4672C50.7481 12.8302 50.7506 13.1997 50.7606 13.5666C50.7718 13.9747 50.4647 14.3478 50.1151 14.3684C49.7303 14.3911 49.4213 14.102 49.3962 13.648C49.2631 11.2306 49.1368 8.81278 49.0159 6.3947C48.9954 5.98539 49.3191 5.61777 49.6727 5.60495C50.0595 5.59091 50.352 5.87844 50.3803 6.33687C50.4426 7.34466 50.4888 8.35345 50.5476 9.36147C50.5544 9.47802 50.5028 9.6479 50.6569 9.6905C50.7779 9.72395 50.8475 9.5802 50.9213 9.49806C52.0862 8.20226 53.249 6.90454 54.4104 5.60558C54.6437 5.34472 54.9089 5.24343 55.2365 5.41744C55.5401 5.57876 55.6295 5.8499 55.5994 6.17103C55.58 6.3781 55.4376 6.52143 55.3078 6.66603C54.6033 7.45078 53.8953 8.23239 53.1911 9.01749C52.8513 9.39636 52.8593 9.39431 53.1786 9.77304C54.0571 10.8151 54.9321 11.8601 55.8056 12.9063C56.0744 13.2282 56.0483 13.5994 55.7476 13.8902C55.4567 14.1715 55.1662 14.1787 54.8414 13.8646C54.173 13.218 53.6348 12.4565 53.0223 11.7601C52.7274 11.4249 52.4356 11.087 52.14 10.7525C51.9656 10.5551 51.7929 10.5629 51.6202 10.7615C51.4549 10.9518 51.2833 11.1368 51.0989 11.3419Z" fill="#F8F8F8"/>
<path d="M70.1054 8.74153C69.8575 9.04814 69.8208 9.37352 69.8463 9.73241C69.9065 10.5791 69.9402 11.4276 69.9842 12.2754C69.9937 12.4589 69.9956 12.6389 69.931 12.8184C69.7938 13.1999 69.5346 13.4007 69.1983 13.367C68.8636 13.3335 68.5449 13.0152 68.5215 12.6498C68.4628 11.734 68.393 10.8174 68.382 9.90054C68.3761 9.41418 68.1857 9.05354 67.8915 8.69876C67.1678 7.82606 66.4558 6.94349 65.7504 6.0559C65.3984 5.61299 65.4337 5.12979 65.8079 4.87668C66.0918 4.68473 66.3426 4.70236 66.6199 4.94733C66.9396 5.2297 67.1779 5.58429 67.4486 5.90957C67.8806 6.42886 68.2942 6.96347 68.7235 7.48507C68.9426 7.75138 69.0601 7.74453 69.2476 7.45693C69.7041 6.75673 70.157 6.05404 70.6019 5.34646C70.7371 5.13152 70.8841 4.9284 71.0559 4.7433C71.3404 4.43668 71.5989 4.38643 71.9093 4.57022C72.2041 4.74481 72.3171 5.1241 72.1895 5.47838C72.0786 5.78663 71.858 6.0269 71.6879 6.29733C71.1758 7.11162 70.6424 7.91252 70.1054 8.74153Z" fill="#F8F8F8"/>
<path d="M23.1479 12.8372C23.1877 13.6045 23.2293 14.3374 23.2625 15.0706C23.2835 15.5333 22.991 15.9264 22.6249 15.9456C22.2568 15.9649 21.9176 15.6048 21.8927 15.146C21.7838 13.142 21.6808 11.1376 21.5742 9.1335C21.5456 8.59432 21.5231 8.57574 20.9813 8.60168C20.5574 8.62197 20.1339 8.65068 19.7099 8.66432C19.2459 8.67925 18.9608 8.48816 18.9014 8.13979C18.8244 7.68824 18.9952 7.40155 19.4513 7.24582C19.5793 7.20209 19.7192 7.18135 19.855 7.17394C21.3895 7.09013 22.9243 7.01191 24.4588 6.9294C24.6567 6.91876 24.8465 6.94763 25.036 6.99923C25.3632 7.08829 25.6027 7.36556 25.5943 7.65206C25.5841 7.99604 25.2803 8.35343 24.9354 8.38451C24.4674 8.42669 23.9969 8.44148 23.5274 8.46786C22.94 8.50088 22.9226 8.51783 22.9521 9.09211C23.0156 10.3291 23.0813 11.5659 23.1479 12.8372Z" fill="#F8F8F8"/>
<path d="M34.8014 24.8428C34.8218 25.2551 34.8415 25.6331 34.8585 26.0112C34.8644 26.143 34.8454 26.2758 34.7057 26.3281C34.5812 26.3749 34.4812 26.2897 34.4037 26.2066C33.8415 25.6041 33.2837 24.9973 32.7243 24.3921C32.6001 24.2578 32.4784 24.121 32.3492 23.9916C32.2787 23.9212 32.2057 23.8094 32.0931 23.8547C31.9736 23.9027 32.0167 24.0343 32.021 24.1316C32.0478 24.7274 32.0807 25.3229 32.1102 25.9186C32.1152 26.0215 32.121 26.1254 32.1131 26.2278C32.1006 26.3883 32.0066 26.4812 31.8451 26.4831C31.7003 26.4848 31.6101 26.4026 31.5823 26.2602C31.5691 26.193 31.5626 26.124 31.559 26.0554C31.5026 24.9903 31.4459 23.9252 31.3935 22.8599C31.387 22.7274 31.3405 22.5612 31.4916 22.4859C31.6483 22.4078 31.7463 22.5545 31.8366 22.6472C32.523 23.3522 33.2037 24.0629 33.8866 24.7714C33.9328 24.8194 33.9823 24.8642 34.0324 24.9125C34.1727 24.8043 34.12 24.6689 34.1154 24.5522C34.0961 24.0594 34.0545 23.5673 34.0464 23.0745C34.0417 22.789 33.8831 22.4127 34.328 22.3041C34.5724 22.2445 34.6762 22.459 34.706 23.0217C34.7375 23.6172 34.7684 24.2128 34.8014 24.8428Z" fill="#F8F8F8"/>
<path d="M25.967 26.3675C25.6136 26.0073 25.278 25.6628 24.9412 25.3194C24.8774 25.2544 24.8077 25.1671 24.71 25.2027C24.6018 25.2422 24.6334 25.3587 24.6365 25.4457C24.6491 25.801 24.6684 26.1561 24.6848 26.5114C24.6929 26.6895 24.6439 26.8403 24.4457 26.8703C24.23 26.9028 24.0918 26.7875 24.0408 26.5845C24.0105 26.4636 24.0077 26.3348 24.0009 26.2091C23.952 25.3041 23.9049 24.3991 23.8583 23.494C23.853 23.3911 23.8452 23.2869 23.8546 23.1848C23.8721 22.9958 23.9578 22.8432 24.1657 22.8371C24.3695 22.8311 24.4819 22.9666 24.5011 23.1595C24.5295 23.4447 24.5374 23.7318 24.5604 24.0176C24.5683 24.1161 24.5371 24.2511 24.6483 24.295C24.7827 24.348 24.846 24.209 24.9185 24.1293C25.25 23.7645 25.5752 23.3941 25.9047 23.0276C25.9734 22.9511 26.0433 22.8724 26.1256 22.8123C26.2821 22.6978 26.4684 22.6185 26.6228 22.7838C26.7781 22.9502 26.6031 23.0819 26.507 23.1946C26.1722 23.5869 25.8231 23.9669 25.4844 24.3559C25.2216 24.6577 25.2281 24.7715 25.5086 25.0526C25.9452 25.4903 26.4486 25.8607 26.8248 26.3591C26.8907 26.4465 27.0149 26.5208 26.949 26.6526C26.8804 26.79 26.7355 26.7669 26.612 26.7674C26.3258 26.7685 26.1753 26.5417 25.967 26.3675Z" fill="#F8F8F8"/>
<path d="M52.3316 22.7337C52.3579 23.017 52.5177 23.0851 52.7427 23.0725C52.9947 23.0583 53.2469 23.047 53.4991 23.0381C53.6822 23.0316 53.8622 23.0535 53.8777 23.2858C53.893 23.5148 53.7273 23.5709 53.5391 23.5832C53.2872 23.5995 53.0353 23.6214 52.7831 23.6255C52.4857 23.6304 52.3709 23.779 52.3982 24.0631C52.4081 24.1658 52.4126 24.2692 52.4159 24.3723C52.4247 24.646 52.5676 24.7623 52.8368 24.747C53.1574 24.7287 53.4785 24.7092 53.7995 24.7072C54.014 24.7059 54.2323 24.7444 54.2487 25.022C54.2662 25.3194 54.0385 25.3369 53.8263 25.3493C53.3223 25.3787 52.8182 25.4086 52.3138 25.4268C51.9228 25.441 51.8046 25.3423 51.7825 24.9658C51.7212 23.9235 51.6729 22.8805 51.6152 21.838C51.5977 21.5222 51.7473 21.3639 52.0531 21.3461C52.5685 21.3161 53.0841 21.2887 53.5999 21.267C53.689 21.2633 53.7838 21.2813 53.8684 21.3109C54.0155 21.3623 54.0792 21.4796 54.0732 21.634C54.0666 21.8019 53.9626 21.8848 53.8105 21.8988C53.5365 21.924 53.2613 21.9373 52.9864 21.9525C52.2852 21.9912 52.2851 21.9905 52.3316 22.7337Z" fill="#F8F8F8"/>
<path d="M37.1494 25.4403C36.555 24.756 36.5054 23.5503 37.029 22.9086C37.7586 22.0145 38.7731 21.7756 39.6809 22.2921C39.8436 22.3847 40.0775 22.4828 39.9712 22.7245C39.8629 22.9705 39.6391 22.9501 39.4095 22.8625C38.6486 22.5723 38.1354 22.6556 37.7114 23.1235C37.316 23.56 37.2335 24.4593 37.55 24.8835C38.0011 25.4882 38.7628 25.6812 39.4088 25.3539C39.4598 25.3281 39.5111 25.3015 39.5584 25.2695C39.7342 25.1504 39.9113 25.0734 40.0629 25.2958C40.2197 25.526 40.0364 25.6594 39.8943 25.7849C39.3573 26.2591 38.1892 26.2872 37.6053 25.8415C37.451 25.7237 37.3122 25.5858 37.1494 25.4403Z" fill="#F8F8F8"/>
<path d="M22.0956 26.3586C21.7883 26.966 21.101 27.2478 20.4099 27.0564C20.2235 27.0048 20.0431 26.924 19.8691 26.838C19.7009 26.755 19.5816 26.6349 19.714 26.4283C19.8319 26.2444 19.9783 26.1883 20.179 26.3058C20.2971 26.3749 20.4223 26.4336 20.5485 26.4869C20.7245 26.5613 20.9111 26.5586 21.0895 26.5074C21.5059 26.3879 21.6015 25.9884 21.2959 25.683C21.0435 25.4307 20.7063 25.3368 20.3957 25.1928C20.1781 25.0919 19.9496 25.0124 19.7952 24.8084C19.2669 24.1105 19.5724 23.2253 20.4264 23.01C20.8317 22.9078 21.225 22.9828 21.5969 23.1602C21.7466 23.2317 21.8877 23.3428 21.8117 23.535C21.7368 23.7245 21.5629 23.7647 21.3792 23.7178C21.2354 23.6811 21.0995 23.6148 20.9572 23.5707C20.6765 23.4837 20.2945 23.6393 20.1919 23.8769C20.0939 24.1036 20.2352 24.3898 20.5322 24.5458C20.9069 24.7426 21.3245 24.8501 21.6723 25.105C22.1187 25.4322 22.2528 25.8001 22.0956 26.3586Z" fill="#F8F8F8"/>
<path d="M28.5449 23.451C28.5374 23.2687 28.5256 23.1201 28.5274 22.9716C28.5298 22.7675 28.6079 22.6001 28.8343 22.59C29.0553 22.58 29.1647 22.7251 29.1807 22.935C29.2032 23.2314 29.2183 23.5285 29.234 23.8254C29.2758 24.6135 29.3168 25.4016 29.3569 26.1897C29.3671 26.3912 29.3721 26.6051 29.1004 26.6285C28.8237 26.6523 28.7101 26.4732 28.6957 26.2255C28.6429 25.312 28.5959 24.3983 28.5449 23.451Z" fill="#F8F8F8"/>
<path fill-rule="evenodd" clip-rule="evenodd" d="M15.0298 16.161C16.9377 15.4883 18.0007 13.5032 17.9671 11.5917C17.8429 10.6502 17.5721 9.80196 17.0007 9.06242C15.7837 7.48722 14.2677 7.0157 12.5724 7.45433C10.474 7.99725 9.36306 9.76554 9.32935 11.8043C9.30401 13.3364 9.92795 14.6186 11.1745 15.5371C12.3409 16.3965 13.618 16.6588 15.0298 16.161ZM11.209 10.2368C10.3046 11.9732 10.9186 13.92 12.624 14.7102C13.5728 15.1806 14.8525 14.8923 15.5561 14.1455C16.5427 13.0984 16.741 11.8859 16.2209 10.5854C15.7582 9.42815 14.8294 8.76961 13.5907 8.75533C12.539 8.74321 11.7067 9.28136 11.209 10.2368Z" fill="#F8F8F8"/>
<path fill-rule="evenodd" clip-rule="evenodd" d="M2.92368 16.9918C3.04626 16.9849 3.17089 16.978 3.29845 16.9712C3.62294 16.9733 3.90375 16.8965 4.18371 16.82C4.21375 16.8117 4.24379 16.8035 4.27386 16.7954C5.38196 16.4965 6.23012 15.8306 6.8151 14.8727C7.43563 13.8567 7.66718 12.7523 7.37711 11.5522C7.11161 10.4539 6.54625 9.57485 5.63886 8.92082C4.36824 8.00498 2.91659 8.00179 1.45039 8.16109C0.95327 8.2151 0.724916 8.54896 0.750766 9.0522C0.873133 11.4344 0.997743 13.8165 1.12524 16.1985C1.15653 16.7832 1.46928 17.0591 2.06207 17.0353C2.34541 17.0239 2.62858 17.0082 2.92368 16.9918ZM3.70322 15.4539C4.48642 15.3092 5.09839 14.9031 5.56685 14.2348C6.17442 13.3596 6.20462 12.4046 5.88899 11.4821C5.40678 10.0727 3.93483 9.30215 2.47104 9.57295C2.25879 9.61221 2.17504 9.72811 2.18544 9.92839C2.24989 11.169 2.31502 12.4095 2.38014 13.65C2.40761 14.1733 2.43508 14.6965 2.4625 15.2197C2.47689 15.4943 2.63922 15.5907 2.89449 15.6006C3.08419 15.608 3.26241 15.5617 3.44058 15.5155C3.52769 15.4928 3.61479 15.4702 3.70322 15.4539Z" fill="#F8F8F8"/>
<path fill-rule="evenodd" clip-rule="evenodd" d="M48.9771 25.2249C49.0619 25.3737 49.1463 25.5219 49.359 25.5647C49.7368 25.5019 49.7756 25.4308 49.6101 25.1237C49.5878 25.0823 49.5656 25.0408 49.5435 24.9992C49.4361 24.7976 49.3284 24.5955 49.1994 24.4085C49.0047 24.1264 49.0064 23.9283 49.2944 23.686C49.9005 23.1762 49.8227 22.2723 49.1608 21.8343C48.5619 21.4379 47.9144 21.5288 47.2713 21.619C47.1896 21.6304 47.1079 21.6419 47.0264 21.6523C46.8654 21.673 46.7849 21.8174 46.7937 21.989C46.8016 22.1433 46.8095 22.2977 46.8175 22.452C46.8678 23.4315 46.9181 24.4111 46.9706 25.3905C46.9797 25.5604 47.0651 25.6805 47.2484 25.6748C47.4493 25.6686 47.5245 25.5343 47.5191 25.3491C47.5153 25.2156 47.5089 25.0822 47.5026 24.9488C47.498 24.8531 47.4935 24.7574 47.4898 24.6617C47.4728 24.2147 47.5806 24.1162 48.0251 24.1305C48.2776 24.1386 48.4258 24.2849 48.5435 24.475C48.6574 24.6589 48.7638 24.8475 48.8702 25.036C48.9046 25.0969 48.9389 25.1578 48.9736 25.2186L48.9771 25.2249ZM47.5276 23.5094C47.6401 23.6121 47.8585 23.599 48.3007 23.5723C48.8968 23.4656 49.0983 23.2382 49.0452 22.7653C48.9985 22.349 48.7428 22.1814 48.1912 22.2061C48.0886 22.2107 47.986 22.2159 47.8835 22.2223C47.3969 22.2527 47.3695 22.2841 47.3909 22.7825C47.4088 23.1986 47.4178 23.4092 47.5276 23.5094Z" fill="#F8F8F8"/>
<path fill-rule="evenodd" clip-rule="evenodd" d="M44.0483 23.1884L44.0397 23.1715C43.9233 22.9454 43.812 22.7273 43.7025 22.5125C43.6334 22.3771 43.565 22.2431 43.4964 22.1091C43.4933 22.1031 43.4902 22.097 43.4871 22.0908C43.4322 21.9828 43.373 21.8663 43.2381 21.8584C43.095 21.8499 43.0495 21.9711 43.0105 22.0747C43.0056 22.0878 43.0008 22.1006 42.9959 22.1128C42.537 23.2614 42.0842 24.4124 41.6329 25.564L41.6315 25.5675C41.5865 25.6824 41.5348 25.8141 41.6687 25.9079C41.8157 26.011 41.9599 25.9607 42.0734 25.8482C42.1528 25.7696 42.2364 25.673 42.2653 25.5696C42.3696 25.1964 42.614 25.0592 42.9832 25.0794C43.1312 25.0875 43.2824 25.0771 43.4295 25.0564C43.9322 24.9858 44.4005 24.982 44.6086 25.5763C44.6158 25.5968 44.6343 25.6148 44.6511 25.63C44.7934 25.7594 44.9537 25.8739 45.1387 25.7374C45.2943 25.6226 45.2207 25.488 45.1533 25.3648C45.1427 25.3454 45.1323 25.3262 45.1229 25.3075C44.7717 24.6068 44.4156 23.9085 44.0483 23.1884ZM42.927 23.7879C42.8743 23.9207 42.8207 24.0558 42.7661 24.1954C42.6927 24.3796 42.6834 24.5314 42.9084 24.5327C43.2037 24.5344 43.5003 24.515 43.7942 24.484C43.9528 24.4672 43.9992 24.3604 43.9232 24.21C43.8382 24.0418 43.7543 23.8731 43.6703 23.7044C43.5922 23.5475 43.5141 23.3906 43.4352 23.2342L43.4344 23.2327C43.3987 23.1619 43.359 23.0832 43.2597 23.1027C43.1895 23.1165 43.1664 23.177 43.1431 23.2384C43.1413 23.243 43.1395 23.2477 43.1378 23.2523C43.0691 23.4297 42.999 23.6066 42.927 23.7879Z" fill="#F8F8F8"/>
</svg>
