<svg width="76" height="30" viewBox="0 0 76 30" fill="none" xmlns="http://www.w3.org/2000/svg">
<path d="M69.6926 22.311C70.9979 21.7065 71.7321 20.6648 72.1431 19.3732C72.6497 17.7818 72.7569 16.1225 72.76 14.4767C72.7626 13.1255 72.5337 11.774 72.41 10.4224C72.3722 10.0094 72.3459 9.59527 72.3083 9.18221C72.296 9.04653 72.2612 8.90961 72.0863 8.90407C71.9197 8.89879 71.9366 9.02887 71.9096 9.14388C71.5788 10.5528 70.8425 11.7148 69.7598 12.6677C68.306 13.9472 66.8287 13.7911 65.3593 12.6977C63.9612 11.6573 63.2184 10.2086 62.8102 8.54731C62.7046 8.11754 62.6193 7.6774 62.4781 7.26025C62.1772 6.37118 62.0727 5.45547 62.0176 4.53001C61.9902 4.06972 62.3741 3.68569 62.8839 3.62444C63.314 3.57274 63.5786 3.78303 63.7234 4.27117C63.9749 5.11926 63.9506 6.00574 64.0915 6.8704C64.3636 8.54127 64.9529 10.0432 66.1975 11.2312C67.2977 12.2816 68.5818 11.9796 69.3652 10.8293C69.8211 10.16 70.1382 9.42096 70.3421 8.62837C70.645 7.45108 70.9533 6.27589 71.165 5.07795C71.2597 4.54221 71.3436 4.00458 71.4364 3.46849C71.4887 3.16577 71.556 2.86579 71.9463 2.83983C72.3236 2.81474 72.492 3.02045 72.6071 3.36803C73.2128 5.19657 73.4014 7.10172 73.6913 8.99007C73.8537 10.048 74.1157 11.0916 74.2952 12.1448C74.5613 13.706 74.7978 15.2743 74.7268 16.879C74.6686 18.1961 74.5162 19.4816 73.9892 20.691C73.3238 22.2178 72.2973 23.4097 70.7028 24.049C70.398 24.1712 70.0972 24.2903 69.7845 24.395C67.857 25.0405 66.3673 23.7114 65.9921 22.1103C65.8555 21.5278 65.7795 20.9537 65.7077 20.3686C65.6624 19.9989 65.8979 19.8305 66.1409 19.6607C66.3786 19.4947 66.5768 19.6495 66.7778 19.7659C67.3181 20.0786 67.3243 20.7157 67.6346 21.1674C67.827 21.4473 67.783 21.8393 68.0749 22.0732C68.5553 22.4584 69.0765 22.5592 69.6926 22.311Z" fill="#F8F8F8"/>
<path d="M62.5332 25.7376C61.2236 25.9055 59.9496 25.9936 58.6883 26.1618C56.54 26.4483 54.3842 26.6601 52.2353 26.9259C51.3955 27.0297 50.2139 26.215 50.0515 25.4447C49.7882 24.1959 49.6734 22.925 49.5874 21.6563C49.535 20.884 50.4755 19.7129 51.2452 19.7349C52.5292 19.7717 52.9907 18.8704 53.5615 18.0412C53.6642 17.8921 53.7128 17.7077 54.0137 17.7048C53.8827 18.144 53.8757 18.5845 53.8009 19.015C53.7494 19.312 53.8679 19.3696 54.1196 19.3371C56.8423 18.985 59.5759 18.725 62.2971 18.3559C63.1285 18.2431 64.2999 18.9427 64.4682 19.946C64.6514 21.0373 64.7976 22.1361 64.9208 23.236C65.0689 24.5578 64.2005 25.5845 62.8759 25.7058C62.7769 25.7149 62.6779 25.7242 62.5332 25.7376Z" fill="black"/>
<path d="M6.10808 13.7559C6.09833 14.4425 6.26241 15.0512 6.42368 15.6593C6.53465 16.0777 7.04543 16.4784 7.48936 16.4955C7.98564 16.5145 8.48244 16.5264 8.97904 16.5274C9.21732 16.5279 9.43827 16.5536 9.63677 16.7006C9.87606 16.8779 10.0697 17.0796 9.98823 17.4056C9.90566 17.7359 9.63156 17.7469 9.35642 17.761C8.85964 17.7864 8.37588 17.9007 7.88687 17.9817C7.41797 18.0594 7.28144 18.3406 7.27277 18.7374C7.26483 19.1014 7.28064 19.4669 7.36649 19.8256C8.05184 22.6889 8.72627 25.5546 9.26162 28.4508C9.28856 28.5965 9.29675 28.7469 9.3002 28.8955C9.30871 29.2622 9.10692 29.5234 8.77775 29.5907C8.43142 29.6614 8.16194 29.4311 8.05629 29.1123C7.84319 28.4692 7.66114 27.815 7.48879 27.1595C7.03465 25.4322 6.59844 23.7001 6.14371 21.9729C5.80233 20.6762 5.43669 19.3859 5.09499 18.0893C4.92762 17.4542 4.73359 17.2977 4.09466 17.3164C3.29979 17.3396 2.5045 17.3482 1.7094 17.3634C1.07955 17.3754 0.77743 17.0806 0.700725 16.4558C0.642438 15.981 0.822586 15.6045 1.11354 15.2768C1.49761 14.8443 2.1001 14.8568 2.61746 15.3063C3.00855 15.646 3.41178 15.8701 3.95807 15.7789C4.54549 15.6807 4.72997 15.4369 4.60311 14.858C4.18086 12.931 4.05555 10.9908 4.43186 9.04415C4.6353 7.99174 4.88857 6.94028 5.5455 6.05834C6.32417 5.01298 7.31369 4.28255 8.66298 4.17589C9.62915 4.09952 10.6094 3.9107 11.4796 4.58459C11.7068 4.76057 11.9088 4.9452 12.0753 5.17127C12.5198 5.7744 12.4978 5.83229 11.7973 6.04347C11.7057 6.07107 11.6113 6.11984 11.5416 6.18421C11.1271 6.56736 10.7673 6.48987 10.4315 6.07555C9.63693 5.09534 8.28742 5.38612 7.49712 6.16538C6.66238 6.98847 6.21546 8.00705 6.10348 9.15523C6.03795 9.82722 5.95076 10.4973 5.94306 11.181C5.93346 12.0324 6.07151 12.8645 6.10808 13.7559Z" fill="#F8F8F8"/>
<path d="M30.7831 20.9572C31.1399 20.9772 31.4529 20.9938 31.7655 21.0163C32.7612 21.0881 33.4677 20.5439 34.0862 19.8759C34.729 19.1818 35.3003 18.4255 35.2972 17.4105C35.2937 16.2846 35.1481 16.1989 34.0569 15.707C32.9948 15.2282 31.8276 15.1309 30.689 14.9378C29.6326 14.7586 28.6491 14.3992 27.8764 13.6115C27.0375 12.7565 26.9535 11.0592 27.649 10.0715C29.1086 7.99881 31.329 7.68089 33.257 8.29671C33.6512 8.42262 33.9878 8.66557 34.2151 9.0411C34.4471 9.42429 34.4071 9.76113 34.0985 10.0701C33.7821 10.3867 33.4177 10.3708 33.0589 10.1671C32.8598 10.0541 32.6864 9.89358 32.5081 9.74626C31.9061 9.2487 30.8177 9.12572 30.1226 9.48103C28.8603 10.1263 28.7701 11.7319 29.951 12.5156C30.7764 13.0634 31.7309 13.2799 32.6558 13.5719C33.5677 13.8596 34.5052 14.056 35.3679 14.5065C36.7704 15.2388 37.2051 16.285 37.2043 17.6929C37.2029 20.2783 35.1497 22.3148 32.6245 22.6365C30.843 22.8635 29.2896 22.4007 27.8565 21.4221C26.8115 20.7085 26.9273 18.7914 28.0028 18.1511C28.2945 17.9774 28.5375 17.9184 28.8186 18.133C29.1238 18.3662 29.2961 18.6802 29.1847 19.0427C29.0494 19.483 28.7119 19.8822 29.2117 20.3195C29.5884 20.6491 30.0053 20.8485 30.4941 20.9159C30.576 20.9272 30.6573 20.9429 30.7831 20.9572Z" fill="#F8F8F8"/>
<path d="M41.306 13.6207C41.5195 14.9415 41.8999 16.1751 42.3533 17.3807C42.6572 18.1886 42.9606 19.0459 43.9789 19.2728C44.1951 19.321 44.4039 19.3279 44.6184 19.316C44.889 19.301 45.1457 19.3498 45.193 19.6568C45.2432 19.9824 45.3911 20.3513 44.9751 20.5841C44.3923 20.9103 43.7555 20.8964 43.1411 20.804C41.6545 20.5804 40.9614 19.5519 40.6032 18.1949C40.068 16.1677 39.6474 14.1144 39.1732 12.0733C38.9916 11.2916 38.9343 11.2695 38.2524 11.6997C37.8907 11.9279 37.5317 12.1611 37.1804 12.405C36.8634 12.6252 36.5228 12.7833 36.1739 12.5445C35.7913 12.2825 35.72 11.8467 35.7971 11.4292C35.8844 10.9572 36.1666 10.5932 36.6291 10.3974C36.7646 10.34 36.8974 10.2756 37.0279 10.2077C38.4462 9.46994 38.6564 9.14978 38.4321 7.60174C38.2353 6.2435 38.0299 4.88644 37.848 3.52591C37.8065 3.21526 37.7423 2.90767 37.6901 2.5984C37.6494 2.35688 37.7315 2.1593 37.957 2.06802C38.191 1.97331 38.4098 2.02271 38.5781 2.2361C38.9232 2.67381 39.1381 3.17912 39.2661 3.70931C39.5456 4.86749 39.7334 6.04397 39.8795 7.22676C39.9976 8.18219 40.0677 8.21506 40.8806 7.71432C40.9088 7.69694 40.9357 7.67739 40.9639 7.66013C41.6869 7.21905 41.9952 7.22643 42.2878 7.69158C42.7586 8.44032 42.6769 9.15482 42.0531 9.56476C41.7653 9.75387 41.4714 9.92958 41.1269 10.029C40.8153 10.119 40.5706 10.3299 40.6599 10.7269C40.8737 11.6772 41.0863 12.6278 41.306 13.6207Z" fill="#F8F8F8"/>
<path d="M25.0326 14.1305C25.3644 14.6345 25.0499 14.9738 24.775 15.2827C24.4563 15.6407 23.9065 15.6913 23.5085 15.4759C23.0727 15.2399 22.8327 14.8106 22.4974 14.4758C22.0887 14.0678 21.6634 13.7265 21.022 13.8164C20.5926 13.8767 20.3289 14.0931 20.2043 14.4961C20.131 14.7333 20.0699 14.9701 20.0641 15.2243C20.0111 17.5681 20.2775 19.8797 20.68 22.1855C20.8218 22.9978 20.9497 23.8115 21.1092 24.6218C21.221 25.1893 21.1897 25.7789 20.8116 26.2815C20.55 26.6292 20.1996 26.6554 19.8805 26.3601C19.6011 26.1015 19.4537 25.7671 19.3815 25.4109C19.1191 24.116 18.8551 22.8203 18.5882 21.5274C17.9888 18.624 17.9279 15.6744 17.6654 12.7417C17.6402 12.4595 17.6672 12.1844 17.7189 11.9042C17.7759 11.595 17.9317 11.344 18.2115 11.2813C18.523 11.2114 18.7877 11.423 18.9387 11.6884C19.0419 11.87 19.2068 12.0295 19.2201 12.2614C19.2256 12.3572 19.2437 12.4715 19.3755 12.478C19.4855 12.4835 19.5618 12.4208 19.5995 12.3165C19.6219 12.2546 19.6327 12.1871 19.6631 12.1296C20.21 11.094 21.0828 10.7864 22.0464 11.38C23.2027 12.0922 24.2402 12.9578 25.0326 14.1305Z" fill="#F8F8F8"/>
<path d="M59.8274 6.36566C59.2379 6.01312 58.9016 5.43676 58.4086 5.02758C57.8139 4.53388 57.3012 4.53687 56.7138 4.98604C56.4538 5.18478 56.4519 5.48171 56.3994 5.7303C56.3117 6.14495 56.3001 6.58478 56.3189 7.01125C56.3993 8.83177 56.5092 10.6548 56.8361 12.4474C57.0393 13.5621 57.2003 14.6828 57.4001 15.7974C57.4537 16.0962 57.4203 16.4049 57.3274 16.6821C57.2153 17.0165 57.0904 17.43 56.6625 17.4546C56.2602 17.4777 56.0247 17.1621 55.8647 16.8183C55.6109 16.2731 55.5361 15.6748 55.4024 15.0989C55.1228 13.8941 54.895 12.6765 54.6781 11.4583C54.5509 10.7435 54.4581 10.0198 54.398 9.29617C54.2388 7.38114 54.1084 5.46374 53.96 3.54779C53.9367 3.24606 53.9628 2.95393 54.0378 2.66357C54.1742 2.13577 54.6464 1.98971 55.0518 2.34797C55.2945 2.56243 55.4116 2.8516 55.5282 3.14059C55.5621 3.2248 55.526 3.36229 55.6668 3.36117C55.7758 3.3603 55.8227 3.25877 55.8721 3.16957C55.9679 2.99665 56.06 2.81937 56.1766 2.66076C56.7354 1.9007 57.3314 1.71109 58.1484 2.17018C59.406 2.87674 60.5022 3.7906 61.3296 5.03792C61.4748 5.23092 61.4893 5.4073 61.3938 5.63729C61.3502 5.75804 61.3284 5.8377 61.2862 5.94064C61.2013 6.07218 61.11 6.15727 60.994 6.25899C60.9662 6.27283 60.9283 6.28046 60.9103 6.28723C60.8579 6.34252 60.8139 6.37793 60.7276 6.39856C60.5353 6.43688 60.3716 6.47202 60.1725 6.50953C60.0412 6.4694 59.937 6.44728 59.8274 6.36566Z" fill="#F8F8F8"/>
<path d="M53.4165 14.8524C54.1129 15.8738 53.866 16.8123 52.4516 17.3725C51.3435 17.8113 50.1603 17.9754 48.9917 17.6436C47.0862 17.1027 45.9045 15.8032 45.2269 13.9605C44.8992 13.0694 44.6498 12.1851 44.6102 11.2342C44.5251 9.19126 45.5864 7.80536 47.365 7.04069C48.6681 6.48041 49.9435 6.67489 51.2055 7.17646C51.4683 7.2809 51.694 7.45924 51.8893 7.66603C52.5111 8.32446 52.3214 9.02568 51.4486 9.32612C50.6321 9.60721 49.8926 9.52789 49.2474 8.90408C48.6691 8.34492 47.9303 8.23362 47.2665 8.55502C46.4928 8.92961 45.919 9.58562 45.9454 10.5401C45.9913 12.2049 46.5308 13.7036 47.532 15.0381C47.7641 15.3476 48.038 15.6004 48.3904 15.821C49.177 16.3459 50.0036 16.3994 50.9047 16.1904C51.0126 16.1766 51.0832 16.1681 51.1886 16.1521C51.3438 16.0648 51.4576 15.9748 51.61 15.8871C51.6343 15.8678 51.6248 15.8565 51.6302 15.8616C51.7664 15.7237 51.8267 15.5357 51.9595 15.3562C51.9964 15.1868 52.0175 15.0453 52.0631 14.8783C52.1138 14.7788 52.1726 14.7285 52.2409 14.6505C52.2613 14.6306 52.257 14.6268 52.259 14.6288C52.7222 14.3907 52.9535 14.4291 53.4165 14.8524Z" fill="#F8F8F8"/>
<path d="M15.1418 18.3301C15.5097 19.5901 15.5006 20.8628 15.7247 22.0993C15.8573 22.831 16.0315 23.5559 16.046 24.3064C16.0518 24.6054 16.0412 24.8967 16.0005 25.1946C15.9417 25.626 15.707 25.8649 15.3001 25.8999C14.8862 25.9355 14.5785 25.6885 14.4842 25.314C14.1452 23.9676 13.8424 22.612 13.5367 21.2574C13.4022 20.6617 13.2626 20.0659 13.123 19.4726C12.7973 18.0885 12.5863 16.6864 12.3376 15.2897C12.1537 14.2567 12.1482 13.2124 12.0722 12.1721C12.0388 11.7149 12.2076 11.3476 12.5946 11.192C12.9991 11.0293 13.2714 11.3614 13.5492 11.6392C14.0043 12.0944 14.1207 12.6996 14.2314 13.2611C14.5604 14.9299 14.9501 16.59 15.1418 18.3301Z" fill="#F8F8F8"/>
<path d="M12.227 10.5266C11.4827 10.3594 11.2223 10.118 11.1389 9.53609C11.0726 9.07329 11.3634 8.51432 11.7854 8.29367C12.2364 8.05781 12.9348 8.15557 13.3111 8.50725C13.8591 9.01945 13.6738 10.0692 12.9726 10.3754C12.7495 10.4728 12.5183 10.5727 12.227 10.5266Z" fill="#F8F8F8"/>
<path d="M50.9094 16.1599C50.699 16.4925 50.3441 16.4357 50.029 16.4281C49.4531 16.414 48.8948 16.2985 48.4247 15.875C49.1994 16.2449 50.0432 16.1489 50.9094 16.1599Z" fill="#F8F8F8"/>
<path d="M53.4443 14.8479C53.1098 14.6594 52.7648 14.4886 52.3038 14.6274C52.3372 14.2106 52.6471 14.252 52.8952 14.3772C53.0943 14.4777 53.3933 14.5058 53.4443 14.8479Z" fill="#F8F8F8"/>
<path d="M61.4047 5.66859C61.3601 5.50438 61.3482 5.33104 61.3387 5.11424C61.777 5.20094 61.6682 5.4202 61.4047 5.66859Z" fill="#F8F8F8"/>
<path d="M51.9432 15.3377C51.9889 15.5568 51.9085 15.7373 51.6693 15.8595C51.646 15.6498 51.7077 15.461 51.9432 15.3377Z" fill="#F8F8F8"/>
<path d="M51.5983 15.8653C51.6014 16.0589 51.4556 16.1171 51.258 16.1495C51.265 15.9641 51.3733 15.8648 51.5983 15.8653Z" fill="#F8F8F8"/>
<path d="M61.0029 6.27406C60.9975 6.13638 61.0604 6.02572 61.2338 5.9705C61.2804 6.13266 61.215 6.24415 61.0029 6.27406Z" fill="#F8F8F8"/>
<path d="M59.812 6.37784C59.923 6.33387 60.0378 6.33043 60.1225 6.48056C60.0126 6.53713 59.884 6.57816 59.812 6.37784Z" fill="#F8F8F8"/>
<path d="M60.7163 6.42444C60.7434 6.36549 60.7877 6.32979 60.8622 6.29377C60.8825 6.38921 60.8894 6.50246 60.7163 6.42444Z" fill="#F8F8F8"/>
<path d="M52.2273 14.6332C52.2558 14.717 52.2332 14.794 52.117 14.844C52.0698 14.7543 52.0852 14.6724 52.2273 14.6332Z" fill="#F8F8F8"/>
<path d="M58.6004 21.5174C58.7177 21.3625 58.6599 21.2332 58.6546 21.1032C58.6436 20.8363 58.8189 20.7074 59.0279 20.8285C59.261 20.9635 59.3946 20.9275 59.595 20.7807C59.8969 20.5595 60.2556 20.5744 60.5922 20.7069C60.8364 20.803 61.0385 20.793 61.2299 20.6098C61.6885 20.1707 62.7078 20.4416 62.8425 21.2418C62.9629 21.9579 63.0513 22.6794 63.1528 23.3986C63.1909 23.6689 63.0341 23.7425 62.8016 23.7576C62.5759 23.7722 62.4242 23.741 62.3997 23.4594C62.3497 22.8835 62.2619 22.311 62.204 21.7357C62.1682 21.3798 62.0279 21.0892 61.6404 21.1297C61.2729 21.1682 61.1382 21.4425 61.1947 21.8211C61.2751 22.3603 61.3327 22.9032 61.3868 23.4458C61.4038 23.6173 61.4915 23.8302 61.2943 23.9479C61.0958 24.0663 60.8825 24.0578 60.6703 23.8664C60.2967 23.4408 60.4865 22.938 60.3983 22.4426C60.3897 22.2261 60.4095 22.0469 60.3086 21.8514C60.1539 21.5683 60.0184 21.3179 59.6962 21.6859C59.5866 21.8143 59.5525 21.9268 59.6231 22.0899C59.6674 22.2662 59.677 22.4126 59.6902 22.5977C59.7347 22.9474 59.6476 23.2805 59.8691 23.6021C59.9138 23.7827 59.9383 23.925 59.8201 24.0778C59.0701 24.3773 58.9854 24.3172 58.9161 23.551C58.8856 23.2137 58.9402 22.8607 58.7316 22.5215C58.3876 22.2188 58.4448 21.887 58.6004 21.5174Z" fill="#F8F8F8"/>
<path d="M54.5622 21.7512C54.5329 21.865 54.4898 21.9442 54.4485 22.0574C54.304 22.2584 54.0983 22.2309 53.9099 22.2504C53.6284 22.2796 53.3658 22.3388 53.1775 22.6259C52.9622 22.9269 52.9842 23.2024 53.1606 23.5095C53.4639 24.119 53.6954 24.2026 54.2661 23.9219C54.414 23.8491 54.5519 23.7495 54.741 23.8736C54.7742 23.9712 54.7928 24.0367 54.8242 24.1337C54.9138 24.4313 54.801 24.5844 54.5719 24.7288C53.6475 25.3116 52.4048 24.6811 52.231 23.5254C52.0988 22.6469 52.3282 21.9253 53.1528 21.4293C53.5713 21.0709 53.9911 21.1183 54.4369 21.3934C54.487 21.5285 54.5177 21.6225 54.5622 21.7512Z" fill="#F8F8F8"/>
<path d="M51.2914 24.3764C51.5991 24.1776 51.7458 24.3635 51.8517 24.5777C51.9402 24.7565 51.8803 24.943 51.7312 25.0649C51.5957 25.1756 51.4162 25.1949 51.2886 25.0509C51.1109 24.8503 51.0381 24.6259 51.2914 24.3764Z" fill="#F8F8F8"/>
<path fill-rule="evenodd" clip-rule="evenodd" d="M55.1349 22.8862C55.136 22.9018 55.1372 22.9195 55.1394 22.9421C55.1756 23.0197 55.1867 23.0983 55.1976 23.1758C55.2124 23.2811 55.227 23.3844 55.3042 23.4806C55.3538 23.6195 55.3909 23.7266 55.4337 23.8625C55.4626 23.9474 55.4973 23.9927 55.5672 24.0447C55.67 24.1543 55.761 24.2354 55.8749 24.3331C55.8895 24.3447 55.9033 24.3558 55.9167 24.3666C55.9776 24.4158 56.0296 24.4578 56.114 24.4958C56.3494 24.5682 56.5673 24.564 56.7953 24.5596C56.8635 24.5583 56.9327 24.5569 57.0036 24.5576C57.0148 24.5562 57.0258 24.5548 57.0367 24.5534C57.1715 24.5364 57.2798 24.5228 57.3764 24.4283C57.3851 24.4227 57.4 24.4173 57.416 24.4115C57.4292 24.4067 57.4432 24.4016 57.4551 24.3959C57.5242 24.3414 57.5735 24.2939 57.6345 24.2349C57.6469 24.223 57.6597 24.2106 57.6733 24.1976C57.9604 23.9261 58.099 23.6115 58.0906 23.2599C58.0832 22.9549 58.0525 22.6505 58.0209 22.3361C58.007 22.198 57.9929 22.0581 57.9805 21.9153C57.9283 21.8236 57.8738 21.7661 57.797 21.6856C57.7122 21.5175 57.5896 21.4143 57.458 21.3035C57.4272 21.2775 57.3959 21.2511 57.3644 21.2234C57.3497 21.2108 57.3361 21.1983 57.3228 21.1862C57.2632 21.1313 57.2122 21.0844 57.1113 21.0772L57.1029 21.0759C56.977 21.0569 56.8836 21.0427 56.7516 21.0156C56.3505 20.9383 56.0389 21.0249 55.7597 21.3181C55.5043 21.431 55.4204 21.6332 55.3269 21.8586C55.3252 21.8627 55.3235 21.8669 55.3217 21.871C55.2564 21.9318 55.2356 21.9862 55.2324 22.0836C55.223 22.1916 55.2126 22.2633 55.1927 22.3671C55.1795 22.4435 55.1707 22.5134 55.1621 22.5812C55.1522 22.6591 55.1427 22.7343 55.1274 22.8138C55.1316 22.8409 55.133 22.8609 55.1349 22.8862ZM56.0261 22.1523C55.9255 22.4011 55.8377 22.6463 55.9243 22.9576C55.9681 23.0849 56.0073 23.1955 56.0444 23.3005C56.0641 23.3563 56.0833 23.4105 56.1023 23.4648C56.2074 23.7649 56.4229 23.9378 56.7359 23.9172C57.0738 23.8949 57.2467 23.6702 57.3222 23.3443C57.4161 22.939 57.3663 22.5471 57.217 22.1744C57.1111 21.9101 56.9347 21.6785 56.5977 21.6851C56.2878 21.6912 56.1336 21.8868 56.0261 22.1523Z" fill="#F8F8F8"/>
</svg>
