<svg width="48" height="25" viewBox="0 0 48 25" fill="none" xmlns="http://www.w3.org/2000/svg">
<path fill-rule="evenodd" clip-rule="evenodd" d="M41.6956 11.4355C41.6712 11.4918 41.6601 11.5137 41.6132 11.5439C41.5982 11.5676 41.5825 11.5902 41.5671 11.6126C41.5039 11.7041 41.4441 11.7908 41.4414 11.9221C40.3902 13.6922 39.1893 15.3226 37.99 16.9508C37.833 17.164 37.676 17.3772 37.5193 17.5906C37.2654 17.9366 37.002 18.2762 36.7386 18.6159C36.0418 19.5143 35.3448 20.4131 34.8217 21.4314C34.4705 22.115 34.5553 22.6864 35.0188 23.1031C35.4323 23.4749 36.0438 23.4614 36.6551 23.0476C37.3869 22.5522 37.925 21.867 38.4259 21.1568C40.0704 18.8253 41.3237 16.276 42.5766 13.7277L42.577 13.7269L42.5771 13.7267L42.5772 13.7265C42.7166 13.4431 42.8559 13.1597 42.9958 12.8766C43.1543 12.5557 43.3101 12.2332 43.4659 11.9108L43.4661 11.9105L43.4663 11.91C44.225 10.3399 44.9831 8.77087 46.0597 7.37697C46.1994 7.19619 46.348 7.02246 46.4966 6.84871L46.4967 6.84868L46.4967 6.84866L46.4967 6.84863L46.4967 6.8486C46.7915 6.5041 47.0862 6.15957 47.3108 5.76007C47.6272 5.19711 47.576 4.90608 47.0429 4.52415C46.7593 4.42736 46.5467 4.54515 46.3453 4.65669L46.3264 4.66715C45.4563 5.14797 44.7682 5.84239 44.1221 6.5827C43.8187 6.93039 43.5281 7.28964 43.2374 7.64889L43.2374 7.64893L43.2374 7.64897L43.2373 7.64901L43.2373 7.64905C42.5072 8.55149 41.777 9.45392 40.8449 10.1732C40.4569 10.4726 40.0414 10.7015 39.5527 10.7715C39.2281 10.818 38.8986 10.8176 38.7694 10.435C38.6291 10.0195 38.8842 9.82001 39.2331 9.69306C39.9764 9.42263 40.5982 8.95676 41.1775 8.4382C41.9398 7.75592 42.641 7.01563 42.8912 5.97854C43.1027 5.1018 42.5818 4.59865 41.7199 4.80678C40.5466 5.09012 39.5964 5.74573 38.781 6.59989C38.4709 6.92466 38.1856 7.27297 37.9003 7.6214C37.7289 7.83059 37.5576 8.03982 37.3808 8.24402C37.3673 8.25956 37.3537 8.27575 37.3399 8.29223L37.3396 8.29253L37.3395 8.29262C37.2204 8.43426 37.0839 8.59667 36.8864 8.54372C36.7034 8.49462 36.6631 8.31067 36.625 8.13635L36.6249 8.13608C36.6182 8.10519 36.6115 8.0746 36.6041 8.04513C36.4249 7.33283 36.5359 6.65532 36.8203 5.98988C36.8377 5.94924 36.8571 5.90775 36.8768 5.86572L36.8769 5.86554C37.0009 5.60087 37.1351 5.31456 36.8272 5.08139C36.4834 4.82093 36.1636 5.04729 35.8733 5.25897C35.4523 5.56598 35.104 5.94862 34.766 6.34045C34.5426 6.59954 34.3613 6.57598 34.242 6.2619C33.8957 5.35004 33.154 5.17658 32.3058 5.23008C31.6798 5.26956 31.0544 5.33415 30.4326 5.41693C30.0153 5.47249 29.7956 5.31083 29.6165 4.93679C29.1589 3.98103 28.5539 3.11883 27.801 2.36856C26.5438 1.11573 25.0673 0.423286 23.2525 0.63663C22.3581 0.741765 21.7204 1.50634 21.7543 2.39385C21.7944 3.44726 22.3001 4.25121 23.0811 4.91189C23.8323 5.5474 24.7413 5.87418 25.6917 6.21581L25.7368 6.23203C25.1743 7.08575 24.5684 7.83656 23.6834 8.32126C23.6699 8.32863 23.6563 8.33636 23.6425 8.34417C23.5371 8.40391 23.4238 8.46811 23.3228 8.41053C23.1928 8.33643 23.2374 8.17933 23.2795 8.05594C23.4101 7.67276 23.3679 7.28266 23.3263 6.89738L23.3147 6.78825C23.2429 6.09816 22.6839 5.62911 21.993 5.63543C21.4465 5.64043 20.9297 5.75672 20.4474 6.01929C19.2781 6.65592 18.346 7.5808 17.4139 8.50571L17.3771 8.54221C17.1646 8.75298 16.9616 8.97337 16.7585 9.19377C16.3155 9.67459 15.8725 10.1554 15.3319 10.5365C15.3129 10.5499 15.2948 10.5664 15.2768 10.5829L15.2768 10.5829C15.2134 10.6408 15.1516 10.6973 15.0627 10.6061C14.9932 10.5348 15.0095 10.4323 15.0723 10.3528C15.4787 9.83768 15.8312 9.28547 16.1838 8.73318L16.1838 8.73316L16.1838 8.73311C16.5587 8.14594 16.9336 7.55868 17.3734 7.01587C17.3974 6.98625 17.4237 6.95631 17.4506 6.92583L17.4506 6.9258C17.6073 6.74785 17.7805 6.55128 17.5956 6.28924C17.3858 5.99207 17.0663 5.98432 16.7402 6.07727C16.0137 6.28434 15.388 6.64612 14.8827 7.22134L14.8552 7.25264C13.6474 8.62738 12.4387 10.0031 11.0762 11.23L11.0266 11.2747C10.4118 11.8286 9.79147 12.3875 8.98982 12.6703C8.37731 12.8863 7.98929 12.579 8.06556 11.9488C8.08768 11.766 8.13752 11.585 8.18987 11.4077C8.73784 9.55171 9.82626 7.99994 11.1409 6.64741C13.3364 4.38866 15.8175 2.63823 19.2288 3.05599C19.5092 3.09033 19.6615 2.96985 19.7778 2.70973C19.9444 2.33733 20.1266 1.97198 20.3088 1.60658C20.4153 1.39319 20.5217 1.17978 20.625 0.964945C20.9683 0.251235 20.8957 0.142224 20.1099 0.160965C18.718 0.194164 17.3938 0.583102 16.1269 1.08961C11.9263 2.76892 8.46834 5.44409 5.81211 9.11138C5.01842 10.2072 4.38251 11.4149 4.34903 12.824C4.32101 14.0037 4.89588 14.6572 6.06125 14.8219C7.26489 14.992 8.37232 14.6815 9.43042 14.1272C9.47374 14.1045 9.51499 14.0736 9.55682 14.0423C9.67364 13.9548 9.79491 13.864 9.9781 13.9392C9.94183 14.2649 9.73396 14.478 9.51454 14.6682C8.81582 15.2738 8.05563 15.7956 7.29532 16.3175L7.2953 16.3175C6.79313 16.6622 6.2909 17.007 5.8063 17.3759L5.57915 17.5487C4.18386 18.6096 2.78883 19.6703 1.64081 21.0116C0.99544 21.7656 0.47314 22.5887 0.411363 23.6209C0.369489 24.3206 0.777655 24.8461 1.47111 24.9548C2.04406 25.0446 2.61775 25.0127 3.17672 24.8434C4.39375 24.4749 5.38056 23.7277 6.30913 22.8988C8.44284 20.9941 10.0306 18.6581 11.5324 16.2539C11.6631 16.0446 11.7807 15.8259 11.8983 15.6071L11.8983 15.6071C12.192 15.0607 12.486 14.5137 12.9861 14.1116C13.5194 13.6828 14.0636 13.2675 14.6077 12.8523L14.6078 12.8523L14.8691 12.6528C14.9024 12.6273 14.9364 12.5978 14.971 12.5677C15.1142 12.4433 15.2693 12.3085 15.4409 12.4068C15.5983 12.4969 15.5375 12.6469 15.4787 12.792C15.4546 12.8514 15.4308 12.9101 15.4225 12.9634C15.2563 14.0333 15.8137 14.6448 16.91 14.5958C17.6809 14.5613 18.3423 14.2485 18.9569 13.8258C19.8111 13.2383 20.4659 12.4478 21.1189 11.6595C21.1829 11.5822 21.2469 11.5049 21.311 11.4279C21.7033 10.9569 22.1126 10.5093 22.6114 10.1499C22.7358 10.0602 22.8836 9.99046 23.0256 10.0666C23.1606 10.1391 23.1323 10.2537 23.104 10.3682C23.096 10.4006 23.088 10.4329 23.0837 10.4643C23.067 10.5861 23.0485 10.708 23.0299 10.8299C22.9788 11.1661 22.9277 11.5025 22.9144 11.8403C22.847 13.5546 23.7504 14.2535 25.3056 14.0757C26.0971 13.9852 26.8506 13.6337 27.4076 13.0338C28.8082 11.5248 29.7671 9.77595 30.1071 7.72421L30.114 7.68273L30.114 7.68271C30.1862 7.2467 30.2224 7.02775 30.3511 6.92744C30.4809 6.82626 30.7049 6.84582 31.1547 6.88512L31.1808 6.8874C31.6597 6.92919 31.8353 7.17471 31.7638 7.62739C31.6563 8.30891 31.3938 8.94154 31.0797 9.54477C30.6839 10.3053 30.2732 11.0581 29.8625 11.8109C29.6106 12.2728 29.3587 12.7346 29.1102 13.1982C28.8561 13.6722 28.9282 13.7868 29.4636 13.7682C29.811 13.7562 30.1581 13.7367 30.5052 13.7172C30.7504 13.7035 30.9957 13.6897 31.241 13.6786C31.6007 13.6622 31.8601 13.5286 32.0418 13.189C32.3647 12.5853 32.7026 11.9897 33.0405 11.394C33.1945 11.1226 33.3485 10.8512 33.501 10.579C33.5169 10.5506 33.5321 10.5217 33.5474 10.4927L33.5474 10.4925C33.6327 10.3301 33.7196 10.1647 33.9407 10.0768C34.1317 10.7895 34.6465 10.9131 35.285 10.8477C35.9667 10.7779 35.9681 10.7919 35.9162 11.5034C35.7796 13.3768 36.7758 14.0374 38.5146 13.2859C39.4339 12.8887 40.1973 12.2874 40.9803 11.6708L40.9804 11.6707C41.1123 11.5668 41.2448 11.4624 41.3786 11.3586C41.4214 11.3531 41.4648 11.3238 41.5053 11.2964C41.5964 11.2347 41.6731 11.1829 41.6956 11.4355ZM5.11595 21.6129L5.16501 21.558C5.92003 20.6339 6.58995 19.7059 7.03037 18.4974C6.52321 18.674 6.21412 18.9428 5.91636 19.2017C5.88555 19.2285 5.85486 19.2552 5.82408 19.2817L5.79976 19.3026L5.79974 19.3026C4.82887 20.1377 3.85706 20.9735 3.21631 22.1145C3.08324 22.3515 2.94285 22.6208 3.17588 22.8214C3.41672 23.0287 3.69706 22.8795 3.93906 22.721C4.38737 22.4274 4.73993 22.0332 5.11595 21.6129ZM19.9979 8.8745C20.4299 8.43925 20.8517 8.05338 21.3329 7.73766C21.4789 7.64185 21.6789 7.55215 21.7881 7.69071C21.9077 7.84238 21.7452 7.99772 21.6161 8.10577C21.4951 8.20709 21.3719 8.3059 21.2487 8.4047L21.2487 8.40471L21.2487 8.40472L21.2487 8.40473C21.0694 8.54856 20.8901 8.69238 20.7175 8.84388C20.4396 9.08779 20.2861 9.3649 20.6087 9.69397C20.7515 9.8396 20.7175 9.99453 20.6325 10.1524C20.213 10.932 19.6335 11.5682 18.8991 12.0596C18.7294 12.173 18.5265 12.2638 18.3266 12.1313C18.0967 11.9789 18.1432 11.7425 18.2008 11.5265C18.4397 10.6306 19.0269 9.95427 19.6133 9.27873L19.6991 9.17988C19.7596 9.11008 19.8255 9.04505 19.9019 8.96975C19.9322 8.93992 19.9641 8.90849 19.9979 8.8745ZM40.8171 6.71736C40.3411 7.09438 39.915 7.5193 39.5695 8.0708C39.4104 8.38184 39.5265 8.48934 39.7616 8.32741C40.2912 7.96263 40.7544 7.51839 41.0784 6.94955L41.0852 6.93753C41.1383 6.84486 41.2007 6.7359 41.1083 6.6526C41.0103 6.5643 40.8995 6.65207 40.8177 6.71686L40.8171 6.71736ZM28.2939 5.36107C27.8807 5.52415 27.5077 5.39493 27.1407 5.2678L27.1407 5.26779C27.0982 5.25307 27.0558 5.23837 27.0134 5.22416C26.0615 4.90507 25.1592 4.49642 24.4659 3.72762C24.2878 3.53015 24.1585 3.32136 24.0859 3.06669C23.9007 2.41743 24.2805 1.95326 24.9517 2.0407C25.794 2.15046 26.482 2.54552 27.0387 3.18989C27.5875 3.82504 28.0651 4.49734 28.2939 5.36107ZM26.3384 11.5072C27.3277 10.8151 27.7871 9.77996 28.1671 8.64583C28.1974 8.54325 28.2292 8.44658 28.2599 8.35329C28.3153 8.18488 28.3671 8.02748 28.4 7.86621C28.5679 7.04158 28.2673 6.76684 27.3956 6.92994C27.8811 7.75048 27.8679 7.76169 27.1215 8.39942L27.0929 8.42381C26.2653 9.13109 25.671 10.0119 25.343 11.0572C25.3405 11.0653 25.338 11.0734 25.3354 11.0816C25.2724 11.2808 25.1998 11.5106 25.4118 11.672C25.596 11.8122 25.8033 11.7452 25.9984 11.6823C26.0149 11.6769 26.0314 11.6716 26.0478 11.6664C26.1513 11.6338 26.2482 11.5704 26.3384 11.5072Z" fill="#F8F8F8"/>
</svg>
