<svg width="82" height="29" viewBox="0 0 82 29" fill="none" xmlns="http://www.w3.org/2000/svg">
<path d="M60.9195 11.8994C60.8372 12.0471 60.8156 12.1376 60.7831 12.2973C60.7117 12.7609 60.6163 13.1459 60.4599 13.5902C60.4386 13.8133 60.4221 13.9621 60.3934 14.1849C60.2827 14.6125 60.2483 14.9827 60.0901 15.4021C60.0663 15.5628 60.0577 15.6463 60.0381 15.7917C60.0032 16.2288 59.801 16.5552 59.7209 16.9968C59.6991 17.1582 59.6921 17.2418 59.6753 17.3877C59.6094 17.7914 59.5313 18.1271 59.3774 18.5191C59.3494 18.6757 59.3445 18.7621 59.3313 18.9129C59.2526 19.3357 59.1739 19.6919 59.0256 20.1106C58.9907 20.338 58.9757 20.4898 58.9472 20.7167C58.9074 21.0908 58.7596 21.354 58.6681 21.7104C58.6383 21.9346 58.6243 22.0869 58.5959 22.3144C58.5447 22.6857 58.3917 22.9465 58.3122 23.3061C58.2848 23.5317 58.2699 23.6847 58.2434 23.9137C58.1597 24.3819 58.0854 24.7735 57.878 25.2034C57.1443 25.8288 56.2894 25.5023 55.4061 25.6338C55.1084 25.5668 54.9524 25.4597 54.8289 25.2099C54.7823 25.0576 54.7589 24.9745 54.723 24.8278C53.8177 22.306 52.9944 19.8238 52.1428 17.2576C52.1053 17.0866 52.0859 17.003 52.0537 16.8564C51.937 16.4406 51.7037 16.1403 51.6151 15.6983C51.5807 15.5367 51.5601 15.4526 51.5267 15.305C50.7 13.365 50.2854 11.3368 49.3339 9.3953C49.0361 10.0078 49.1058 10.551 49.1336 11.0868C49.3649 15.5304 49.6011 19.9738 49.828 24.4177C49.8523 24.8938 49.9791 25.395 49.5375 25.8709C49.2914 25.9407 49.1228 25.9554 48.8698 25.9617C48.3159 25.6927 48.3021 25.2314 48.2782 24.7811C47.9008 17.6817 47.5373 10.5816 47.1501 3.48278C47.1035 2.62796 47.4231 2.21408 48.2629 2.1718C48.5618 2.15675 48.8605 2.13619 49.1594 2.12031C51.0142 2.02178 51.0142 2.02188 51.7568 3.85572C51.8204 4.04349 51.843 4.12867 51.8763 4.27914C52.3543 5.79517 52.8428 7.23878 53.3751 8.75389C53.4287 8.91501 53.4509 9.00043 53.4834 9.15133C53.533 9.58847 53.7733 9.88635 53.893 10.3117C53.941 10.4701 53.9648 10.5542 53.9994 10.7031C54.34 11.6925 54.597 12.642 54.9877 13.6278C55.038 13.7857 55.058 13.872 55.0887 14.024C55.2126 14.4345 55.3786 14.7595 55.5104 15.1805C55.5598 15.3386 55.582 15.4238 55.6151 15.5742C55.7462 15.9818 55.9174 16.3052 56.032 16.7327C56.0803 16.8909 56.1038 16.9753 56.1386 17.1245C56.2098 17.5553 56.4432 17.8549 56.5647 18.281C56.6248 18.5059 56.6596 18.6569 56.7124 18.8832C56.7553 19.0905 56.8048 19.2111 56.9311 19.368C57.1012 19.6312 57.233 19.8405 57.4345 20.1603C57.5177 19.7865 57.5727 19.54 57.6303 19.2125C57.6709 18.8424 57.8079 18.5841 57.9026 18.2378C57.939 18.0096 57.9614 17.852 57.986 17.6146C58.0159 17.1739 58.1182 16.8316 58.2699 16.4228C58.3076 16.2581 58.3253 16.1674 58.343 16.0073C58.387 15.5799 58.4836 15.2356 58.6336 14.8261C58.6705 14.6613 58.6884 14.5708 58.7052 14.411C58.7623 14.0015 58.846 13.668 58.983 13.2722C59.0161 13.125 59.0303 13.049 59.0428 12.915C59.0482 12.4636 59.2326 12.1162 59.3466 11.6755C59.3783 11.5285 59.3924 11.452 59.4041 11.3169C59.4198 10.8691 59.5992 10.5219 59.7044 10.0808C59.7344 9.93257 59.7494 9.85503 59.7624 9.71811C59.8127 9.27932 59.8751 8.90251 60.0644 8.4843C60.1026 8.27367 60.1243 8.1332 60.1471 7.92157C60.086 7.43862 60.4165 7.12598 60.4466 6.66168C60.4775 6.51498 60.492 6.43998 60.5049 6.30756C60.4758 5.92296 60.6619 5.66097 60.7859 5.29923C60.8237 5.0816 60.8459 4.94 60.8695 4.72663C60.8259 4.24859 61.1508 3.93691 61.1673 3.47123C61.1928 3.32211 61.2062 3.24504 61.218 3.1092C61.5354 1.4476 61.6432 1.32623 63.3175 1.27885C64.0316 1.25864 64.7811 0.956081 65.5205 1.50634C65.9705 9.23857 66.3687 16.8845 66.7721 24.636C66.76 24.8308 66.7198 24.9087 66.6027 25.0118C65.4867 25.1003 64.4277 25.1536 63.2656 25.1839C62.7927 24.7994 62.9023 24.3216 62.8787 23.8894C62.6219 19.1904 62.3883 14.4901 62.1147 9.79207C62.0966 9.4819 62.3942 8.84934 61.5771 8.98579C61.5185 9.15659 61.5011 9.24694 61.483 9.4064C61.3857 9.81945 61.3457 10.1778 61.196 10.5873C61.126 10.8897 61.0769 11.1183 61.009 11.4328C61.0241 11.6276 61.0209 11.7355 60.9195 11.8994Z" fill="#F8F8F8"/>
<path d="M42.581 4.13859C42.2997 4.66798 42.0589 5.1092 41.7856 5.61923C41.4287 6.42763 40.9448 7.07557 40.5285 7.84802C40.5032 7.91923 40.4603 8.01176 40.4432 8.05983C39.8411 8.83939 39.5229 9.72248 38.9939 10.5682C38.9319 10.6153 38.8844 10.6998 38.8703 10.7461C38.3965 11.5292 38.6665 12.2048 39.0017 12.8958C40.8359 16.677 42.6853 20.4509 44.4927 24.3368C44.6587 24.6972 44.7999 24.9777 44.9787 25.3278C45.1081 25.5887 45.1537 25.786 45.0353 26.0835C43.7585 26.2365 42.538 26.303 41.2107 26.3515C40.2994 25.1221 39.7102 23.7988 39.1218 22.4772C38.967 22.1293 38.7743 21.8206 38.5384 21.4499C38.5276 21.2927 38.5131 21.2187 38.469 21.0959C38.3669 20.7924 38.1604 20.6279 38.0242 20.3449C38.0177 20.194 38.0041 20.1191 37.9608 19.9949C37.3965 19.0482 36.9912 18.0877 36.5604 17.1394C36.3769 16.7356 36.2187 16.3083 35.6837 16.1515C35.6118 16.1783 35.648 16.2018 35.6276 16.1947C34.6479 17.3815 34.3533 18.7117 34.4896 20.2514C34.673 22.3235 34.8223 24.4066 34.7442 26.5882C33.6278 26.7495 32.5446 26.8162 31.3584 26.8571C31.0222 26.511 30.9992 26.1368 30.9796 25.7611C30.6038 18.5852 30.2219 11.4097 29.8546 4.23334C29.845 4.04603 29.8487 3.85926 29.9319 3.5731C31.0368 2.96646 32.1653 3.16752 33.377 3.1635C33.8505 5.80902 33.8064 8.4499 33.9952 11.0757C34.0725 12.1503 34.1091 13.2278 34.1667 14.4099C34.4848 14.9338 34.5975 14.48 34.8475 14.3249C34.9566 14.1585 35.0086 14.0384 35.0988 13.8652C35.3008 13.53 35.4301 13.2285 35.67 12.9129C35.7213 12.8652 35.758 12.7634 35.7866 12.7174C35.9704 12.2719 36.2425 11.939 36.4969 11.5179C36.5485 11.4691 36.5897 11.3689 36.6187 11.3232C36.7962 10.874 37.0751 10.5436 37.3185 10.1139C37.3665 10.0614 37.4036 9.96533 37.4305 9.92141C37.6309 9.48547 37.8998 9.1487 38.1459 8.7181C38.1936 8.66514 38.2301 8.56942 38.2567 8.52561C38.6752 7.77461 39.0938 7.08341 39.535 6.32783C39.5389 6.25214 39.5618 6.16656 39.5896 6.13202C39.9496 5.78901 40.0814 5.34316 40.365 4.929C40.3625 4.85493 40.3872 4.7696 40.4154 4.73531C40.7781 4.39251 40.9135 3.94858 41.1826 3.52811C41.2971 3.26234 41.4207 3.07029 41.5941 2.83065C41.8044 2.70107 41.9592 2.60118 42.14 2.57167C42.4695 2.51784 42.8197 2.4995 43.0392 2.78861C43.2498 3.06614 43.0208 3.33183 42.8992 3.58543C42.821 3.74845 42.7105 3.89322 42.581 4.13859Z" fill="#F8F8F8"/>
<path d="M70.7167 23.0484C70.4397 18.0742 70.1621 13.1923 69.8944 8.3098C69.7718 6.07297 69.6687 3.83506 69.5923 1.49822C69.8915 1.08267 70.2558 1.01799 70.6366 0.997551C73.5099 0.843361 76.383 0.686642 79.2571 0.548813C79.5225 0.536089 79.7791 0.570618 80.1052 0.764673C80.2231 1.00235 80.2553 1.16697 80.2616 1.41308C79.8768 1.9263 79.366 1.87812 78.8877 1.90664C77.4295 1.99358 75.971 2.08773 74.5113 2.13031C73.7428 2.15272 73.448 2.45421 73.4958 3.23091C73.6477 5.69822 73.7805 8.16712 73.8825 10.637C73.9165 11.461 74.2573 11.7427 75.0716 11.7005C76.6024 11.621 78.1306 11.4332 79.7668 11.5602C79.8654 11.5957 79.7999 11.6495 79.8338 11.6242C80.0082 11.8574 80.0675 12.1278 79.952 12.5185C79.916 12.6186 79.85 12.5681 79.8824 12.5943C78.462 13.0547 76.9549 12.8822 75.4747 13.0082C74.0276 13.1314 74.0224 13.0984 74.0996 14.5917C74.2269 17.0522 74.3835 19.5116 74.4723 21.9734C74.5054 22.8912 74.8477 23.2303 75.7728 23.1543C77.3345 23.0259 78.9035 22.9837 80.4687 22.8938C81.2957 22.8464 81.6847 23.1476 81.4147 24.1019C77.9943 24.5824 74.6088 24.6249 71.1315 24.7611C70.6095 24.2586 70.8102 23.6708 70.7167 23.0484Z" fill="#F8F8F8"/>
<path d="M4.4848 4.75121C4.61544 5.22354 4.68791 5.62664 4.70942 6.03243C5.06491 12.738 5.41398 19.444 5.76479 26.2554C5.94107 26.9081 6.39383 26.754 6.77883 26.7547C7.98614 26.757 9.18773 26.5055 10.481 26.7168C10.7475 26.8969 10.6954 27.0987 10.6852 27.3495C10.3839 27.9242 9.89087 27.9377 9.40304 27.9686C8.21436 28.0437 7.02281 28.0696 5.7378 28.1975C4.6664 28.2829 3.69322 28.3476 2.6167 28.4C2.27993 28.3326 2.09278 28.2115 1.93152 27.9449C1.48774 20.3343 1.0788 12.7827 0.689469 5.12931C1.88296 4.29707 3.14447 4.5066 4.4848 4.75121Z" fill="#F8F8F8"/>
<path fill-rule="evenodd" clip-rule="evenodd" d="M27.6057 27.0101C27.7917 26.9773 27.9784 26.9444 28.1659 26.9142C28.0036 25.7254 27.6418 24.6334 27.2832 23.551C27.1712 23.2128 27.0595 22.8755 26.9542 22.5365C26.731 21.8175 26.5144 21.0964 26.2973 20.3736C25.7061 18.4053 25.1111 16.4246 24.3696 14.442C24.164 13.7615 23.9846 13.1645 23.7834 12.49C23.7204 12.2306 23.637 12.0011 23.5534 11.7709C23.4764 11.5589 23.3991 11.3462 23.3373 11.109C23.3167 11.0263 23.2983 10.9467 23.2804 10.8693C23.2125 10.575 23.1521 10.3135 23.0074 10.0474C22.9785 10.0071 22.952 9.9117 22.9362 9.82402C22.7355 9.19464 22.5485 8.57112 22.3627 7.95137C21.9903 6.7094 21.6224 5.48258 21.1575 4.25407C21.1554 4.24743 21.1533 4.2409 21.1512 4.23449C21.105 4.09023 21.0766 4.00179 20.9686 3.8637C20.4317 3.59385 19.9326 3.63769 19.4482 3.68023C19.3348 3.69019 19.2223 3.70007 19.1102 3.70585C17.6206 3.78263 17.5182 3.88231 17.1455 5.42924C17.103 5.69978 17.042 5.95889 16.9817 6.21471C16.8565 6.74578 16.7348 7.26268 16.789 7.83834C16.7601 7.95724 16.7331 8.0704 16.7067 8.18098C16.6388 8.46546 16.5749 8.73294 16.492 9.03756C16.4782 9.17019 16.4699 9.27802 16.4613 9.38917C16.4547 9.47342 16.4481 9.55957 16.4388 9.65986C16.4211 9.91741 16.3513 10.1347 16.2801 10.3563C16.2288 10.516 16.1767 10.678 16.143 10.8588C16.1324 10.9561 16.1243 11.04 16.1164 11.1213C16.1053 11.2351 16.0948 11.3437 16.0785 11.4767C16.0528 11.5848 16.0291 11.6879 16.0059 11.7886C15.9423 12.0646 15.8829 12.3226 15.7985 12.6147C15.7747 12.8269 15.7659 12.9707 15.7525 13.1888L15.7517 13.2015C15.6705 13.4334 15.6243 13.6509 15.5779 13.8693C15.5386 14.0545 15.4991 14.2403 15.438 14.4362C15.4164 14.6435 15.4089 14.7854 15.3978 14.9954L15.3964 15.0221C15.3125 15.263 15.2655 15.4881 15.2179 15.7162C15.1808 15.8936 15.1434 16.0727 15.088 16.2625C15.0469 16.4927 15.0204 16.6461 14.9982 16.8644C14.9973 16.8724 14.9964 16.8802 14.9955 16.8878C14.9801 17.0234 14.9704 17.1082 14.9752 17.2522C14.9937 17.5026 14.9199 17.6511 14.7654 17.8503C14.7423 17.9805 14.7248 18.087 14.7069 18.1962C14.6925 18.2846 14.6777 18.3747 14.6594 18.4806C14.5671 18.7702 14.5209 19.041 14.4744 19.3139C14.4424 19.5018 14.4102 19.6908 14.3627 19.8875C14.349 20.0444 14.3345 20.1335 14.3044 20.2978C14.2289 20.5406 14.1835 20.7641 14.1373 20.9918C14.1043 21.1544 14.0709 21.3192 14.0257 21.4948C14.0046 21.7301 13.9833 21.8864 13.9472 22.118C13.8677 22.3818 13.8204 22.6218 13.7715 22.8698C13.7432 23.0138 13.7143 23.1605 13.6782 23.3161C13.6568 23.5516 13.6357 23.708 13.5982 23.9395C13.5122 24.2074 13.4639 24.4517 13.4139 24.7051C13.3863 24.8445 13.3583 24.9867 13.3231 25.137C13.3028 25.3725 13.2817 25.5288 13.2422 25.7638C13.1362 26.0919 13.0878 26.3952 13.0363 26.7175C13.0111 26.8753 12.9851 27.0376 12.9514 27.2095C13.0544 28.028 13.4582 27.9027 13.86 27.7781C14.0026 27.7338 14.145 27.6896 14.2736 27.6878C14.5063 27.3449 14.6704 27.0522 14.6874 26.6392C14.6978 26.5009 14.71 26.4224 14.7359 26.2673C14.7705 25.9725 14.8347 25.7134 14.9007 25.447C14.9448 25.2691 14.9897 25.088 15.0271 24.8909C15.1514 24.0229 15.2803 23.2445 15.4293 22.3772C15.5653 21.3886 16.0826 21.0378 16.98 21.0255C18.3236 21.0072 19.6684 20.9286 21.0078 20.8177C21.9531 20.7395 22.4587 21.105 22.71 22.0239C22.9892 23.0452 23.3031 24.057 23.6243 25.0922C23.812 25.6971 24.0022 26.3101 24.1894 26.9377C25.3433 27.4087 26.4624 27.2115 27.6057 27.0101ZM18.7121 18.8271C19.5655 18.7774 20.4308 18.7269 21.3221 18.647C21.5931 18.2762 21.4988 17.9657 21.3861 17.5946C21.3797 17.5735 21.3732 17.5523 21.3668 17.5308C21.3232 17.336 21.2963 17.1953 21.262 17.0166C21.2559 16.9847 21.2496 16.9515 21.2429 16.9166C21.1938 16.6926 21.1088 16.5048 21.0233 16.316C20.9442 16.1414 20.8648 15.9661 20.8131 15.7604C20.7629 15.5297 20.7346 15.3746 20.6927 15.1435C20.6473 14.9157 20.5619 14.7257 20.4759 14.5344C20.3984 14.3624 20.3205 14.1892 20.2709 13.9863C20.2388 13.8396 20.2159 13.7234 20.1916 13.6003C20.1777 13.5298 20.1634 13.457 20.1466 13.3749C20.0979 13.218 20.0338 13.0835 19.97 12.9497C19.8928 12.7878 19.8161 12.6269 19.7679 12.4287C19.7368 12.2916 19.7149 12.1811 19.692 12.0652C19.6768 11.9884 19.6612 11.9091 19.642 11.8181C19.5977 11.5752 19.5099 11.3736 19.421 11.1692C19.3502 11.0066 19.2786 10.8423 19.2277 10.6542C19.1977 10.5226 19.1762 10.4157 19.1538 10.3049C19.1375 10.2237 19.1207 10.1404 19.0999 10.0439C19.0522 9.79249 18.9605 9.58495 18.8671 9.37358C18.7984 9.21834 18.7289 9.06103 18.6753 8.88274C18.671 8.86257 18.6669 8.84297 18.6629 8.82388C18.6211 8.62483 18.5909 8.48101 18.4961 8.31406C18.0503 8.34892 17.8341 8.56372 17.7708 9.00607C17.7543 9.2258 17.7387 9.37196 17.7082 9.58791C17.524 10.0046 17.4608 10.377 17.4266 10.83C17.407 11.0483 17.3906 11.1935 17.3606 11.4089C17.3268 11.5557 17.2845 11.6922 17.2429 11.8261C17.1606 12.0913 17.0813 12.3465 17.0782 12.6526C17.0588 12.8699 17.0423 13.0146 17.0106 13.2292C16.9767 13.3701 16.9349 13.5016 16.8939 13.6304C16.8078 13.9012 16.7252 14.1609 16.7265 14.4745C16.7052 14.6915 16.6875 14.8359 16.6547 15.0504C16.6215 15.1915 16.5796 15.3229 16.5386 15.4517C16.4524 15.7225 16.3698 15.9821 16.3779 16.2964C16.3601 16.5125 16.344 16.6562 16.3132 16.8722C16.2928 17.0604 16.2384 17.2247 16.1837 17.3903C16.117 17.5919 16.0497 17.7954 16.0423 18.0462C15.9413 18.8071 16.2312 18.9936 16.8676 18.9453C17.4798 18.899 18.0928 18.8632 18.7121 18.8271Z" fill="#F8F8F8"/>
</svg>
