<svg width="175" height="34" viewBox="0 0 175 34" fill="none" xmlns="http://www.w3.org/2000/svg">
<path d="M97.7105 10.9061C95.4102 11.0267 93.6296 12.0001 92.7388 13.7731L92.4253 11.6908L89.144 11.8628L89.9843 27.8975L93.8749 27.6936L93.4061 18.7479C93.2858 16.4524 94.2414 14.6083 96.9135 14.4683C99.4176 14.337 100.424 16.0783 100.544 18.3738L101.013 27.3195L104.904 27.1156L104.373 16.9883C104.186 13.4102 101.906 10.6862 97.7105 10.9061Z" fill="#F8F8F8"/>
<path d="M74.9331 19.039C75.3736 17.0864 76.8519 15.5195 79.3555 15.3883C81.7914 15.2607 83.3275 16.7373 83.7632 18.5762L74.9331 19.039ZM79.1715 11.8776C74.0629 12.1453 70.8102 16.1071 71.0579 20.8331C71.2932 25.3227 74.6856 29.207 80.1325 28.9215C83.8202 28.7283 86.5327 26.7582 87.6307 23.7557L84.0181 22.7941C83.423 24.3825 81.9447 25.3062 79.9824 25.409C77.2082 25.5544 75.5278 23.9162 75.0122 21.8444L87.733 21.1777C87.9059 15.4142 84.3815 11.6045 79.1715 11.8776Z" fill="#F8F8F8"/>
<path d="M66.6246 5.78305L64.611 5.88858L65.8289 29.1639L69.7195 28.96L68.5997 7.55767C68.5408 6.43385 67.6483 5.72939 66.6246 5.78305Z" fill="#F8F8F8"/>
<path d="M136.779 9.36624L132.076 9.61269L126.028 16.5304L125.404 4.58679C125.352 3.59989 124.452 2.82237 123.528 2.87078L121.418 2.98133L122.632 26.1864L126.523 25.9825L126.277 21.2903L128.389 18.8778L133.323 25.6262L137.823 25.3903L130.887 16.0389L136.779 9.36624Z" fill="#F8F8F8"/>
<path d="M158.828 10.6478L158.465 8.22965L155.183 8.40162L156.024 24.4364L159.914 24.2325L159.507 16.4682C159.339 13.2613 160.45 11.8152 163.191 11.6716L163.867 11.6361L163.658 7.65265C161.189 7.78207 159.515 8.85161 158.828 10.6478Z" fill="#F8F8F8"/>
<path d="M173.665 10.886L173.485 7.4427L169.087 7.67319L168.821 2.59688L164.93 2.80078L165.699 17.4643C165.918 21.6501 167.627 23.8285 172.227 23.5874L174.325 23.4775L174.139 19.933L172.11 20.0394C170.622 20.1174 169.699 19.3533 169.616 17.7667L169.267 11.1165L173.665 10.886Z" fill="#F8F8F8"/>
<path d="M145.175 21.9924C142.333 22.1413 140.265 20.2188 140.107 17.2144C139.95 14.2099 141.807 12.1155 144.65 11.9665C147.322 11.8265 149.423 13.7134 149.58 16.7179C149.738 19.7223 147.847 21.8523 145.175 21.9924ZM149.445 10.9027C148.2 9.14011 146.292 8.35991 143.89 8.48581C139.12 8.73578 135.916 12.3227 136.183 17.42C136.448 22.4836 139.979 25.7851 144.783 25.5333C146.949 25.4198 148.603 24.6223 149.679 23.1442L149.764 24.7646L153.655 24.5607L152.814 8.52596L149.533 8.69792L149.445 10.9027Z" fill="#F8F8F8"/>
<path d="M115.74 17.0356L112.704 16.7207C110.895 16.511 110.164 16.1431 110.118 15.2654C110.074 14.4214 110.843 13.5687 112.67 13.4729C115.038 13.3488 116.35 14.431 117.094 15.6782L119.757 13.4062C118.538 11.5069 116.419 9.92531 112.968 10.1061C108.773 10.326 106.28 12.5894 106.437 15.5937C106.568 18.0917 108.146 19.7354 111.419 20.0377L114.386 20.3223C116.569 20.5464 116.909 21.2056 116.948 21.9483C116.997 22.8936 115.987 23.6912 114.329 23.7781C112.164 23.8915 110.287 23.042 108.962 21.0466L105.997 23.3684C107.874 26.1811 110.817 27.3132 114.233 27.1341C118.632 26.9036 120.839 24.3508 120.682 21.3464C120.559 19.0171 119.219 17.3948 115.74 17.0356Z" fill="#F8F8F8"/>
<path d="M16.0777 29.254C20.9647 28.8959 24.6875 25.3354 24.5927 20.1139C25.1901 22.2497 26.2329 24.1072 27.3629 25.6797C24.5511 28.0962 21.8269 29.2587 18.9221 29.4109C17.9284 29.463 17.0057 29.4092 16.0777 29.254Z" fill="#F8F8F8"/>
<path d="M56.9818 17.9833C57.0071 18.4664 56.7186 18.813 56.2345 18.8384L55.1134 18.8971L55.1269 18.1825C55.1817 15.3242 54.4687 13.4239 53.1819 11.7832L55.9496 12.4285C56.5463 12.6013 56.7139 12.8728 56.7539 13.6357L56.9818 17.9833Z" fill="#F8F8F8"/>
<path d="M0.51749 16.5829C0.477512 15.8201 0.614368 15.5069 1.1656 15.2996L3.97822 14.3619C2.77474 16.2607 2.26679 18.7603 2.48195 20.916L2.57165 21.6507L1.55244 21.7041C1.09379 21.7282 0.77066 21.4137 0.745339 20.9305L0.51749 16.5829Z" fill="#F8F8F8"/>
<path d="M10.2573 13.7518C11.6379 11.8183 13.6794 10.7935 16.4058 10.6506C21.3492 10.3916 25.456 13.1847 27.6297 18.0933L28.7848 20.6333C31.5963 26.9871 34.976 30.0479 38.7844 31.0466C32.9039 30.4879 28.1347 27.245 25.8984 21.6259L24.8948 19.0525C22.7535 13.7853 19.7208 11.4966 15.1341 11.737C13.2739 11.8345 11.4754 12.6171 10.2573 13.7518Z" fill="#F8F8F8"/>
<path d="M43.9587 7.39648C49.8084 7.85485 54.1937 12.0611 54.4695 17.3241C54.7107 21.926 51.4411 25.8452 46.7471 26.4737C49.8056 24.3757 50.8672 21.7195 50.682 18.1855C50.4168 13.1258 47.8382 8.77401 43.9587 7.39648Z" fill="#F8F8F8"/>
<path d="M34.1335 7.63104C31.9136 8.66525 30.0973 10.0862 28.5369 12.0036C26.1759 9.85828 24.6782 9.06988 22.0821 8.28817L34.1335 7.63104Z" fill="#F8F8F8"/>
<path d="M28.9724 12.5165C31.8877 9.15132 35.6193 7.22209 38.9828 7.04581C43.1617 6.8268 47.4577 9.32962 49.1672 14.1606C47.087 11.0318 43.7748 10.2365 41.4305 10.3593C36.7674 10.6037 32.8943 14.7074 33.1502 19.5891C31.9378 15.9559 30.2058 13.6247 28.9724 12.5165Z" fill="#F8F8F8"/>
<path d="M3.19549 20.8785C2.82639 13.8357 7.99809 8.66966 15.8716 8.25702C23.1083 7.87776 29.0227 11.5195 31.8194 18.0782L32.642 20.1256C34.9737 25.6122 38.4516 28.1071 43.3695 27.8493C47.0387 27.657 51.2288 26.1881 53.2884 23.5562C51.648 27.8489 47.6976 30.4779 42.7288 30.7383C37.021 31.0374 32.6449 27.4935 29.8322 21.1142L28.5577 18.2491C26.0115 12.5697 21.7936 9.60381 16.5189 9.88025C10.5563 10.1927 6.70054 14.627 7.01234 20.5765C7.3308 26.653 12.0301 30.5114 18.757 30.1588C20.9484 30.044 22.8369 29.5116 24.7 28.4962C22.6675 30.6678 19.6938 31.9455 16.3303 32.1217C9.11913 32.4997 3.55526 27.7433 3.19549 20.8785Z" fill="#F8F8F8"/>
</svg>
