<svg width="76" height="29" viewBox="0 0 76 29" fill="none" xmlns="http://www.w3.org/2000/svg">
<path d="M44.7516 19.2675C43.7994 21.2399 43.0528 23.1365 41.9935 24.8384C41.5163 25.605 40.4513 26.3231 39.5841 26.4153C39.0258 26.4747 38.0672 25.4708 37.7629 24.7446C36.5165 21.7699 35.4526 18.7189 34.0617 15.0016C32.9636 17.7682 32.0877 19.9632 31.2223 22.1623C30.9317 22.9007 30.6068 23.6333 30.4036 24.3968C29.8538 26.4633 28.5345 27.1767 26.2025 26.6777C26.2927 25.977 26.2023 25.1586 26.5083 24.5344C29.7985 17.8219 33.1425 11.1355 36.5026 4.45754C36.7856 3.89516 37.1955 3.20548 37.7153 2.99792C38.5113 2.68011 39.4542 2.73044 40.3347 2.62451C40.2091 3.39249 40.2285 4.22428 39.9251 4.91406C39.4207 6.06072 38.7091 7.11623 38.0848 8.21012C38.2222 8.3478 38.3597 8.48548 38.4971 8.62316C38.9755 8.31403 39.4872 8.04598 39.9261 7.68844C41.5502 6.36538 43.1319 4.9897 44.7683 3.68247C45.4389 3.14682 46.1581 2.51225 46.948 2.33411C47.6378 2.17854 48.4578 2.60041 49.2203 2.76716C48.9355 3.39585 48.8204 4.24215 48.3384 4.61783C45.2644 7.01394 42.1599 9.37878 38.9603 11.6028C37.3342 12.7331 36.6597 13.7443 37.8936 15.6362C38.8928 17.1681 39.549 18.9237 40.4857 20.8432C43.1538 16.6814 45.5879 12.8048 48.1081 8.98492C49.4956 6.88189 50.9161 4.77798 52.5562 2.87679C53.1169 2.22691 54.3999 1.97002 55.3368 2.00202C55.657 2.01296 56.1931 3.46204 56.1749 4.24344C56.1052 7.24345 55.8505 10.2392 55.6661 13.2169C57.5803 13.4728 58.3019 12.5737 58.7893 11.0828C59.6396 8.48186 60.6564 5.93477 61.6239 3.37283C62.1663 1.93663 63.2235 1.12075 64.7684 1.25697C66.5045 1.41004 66.341 2.93858 66.4603 4.08002C66.6698 6.0844 66.7005 8.10746 66.8264 10.5087C68.4982 10.1619 69.7947 9.90196 71.0868 9.62148C71.8606 9.45351 72.6468 9.05546 73.3914 9.1284C74.0235 9.19032 74.604 9.77924 75.2073 10.135C74.7945 10.7858 74.5081 11.839 73.9463 12.0154C71.8968 12.6593 69.7553 13.0106 67.317 13.5447C67.7296 16.3829 68.1014 19.1433 68.5427 21.8927C68.7663 23.285 68.5408 24.3365 66.985 24.7073C65.8313 24.9823 65.0071 24.8082 64.8472 23.3988C64.5163 20.48 64.1346 17.567 63.7648 14.5792C61.6809 14.4393 60.3949 14.9502 60.0785 17.2227C59.7711 19.4299 59.0867 21.5828 58.6109 23.7689C58.3452 24.99 57.5546 25.6842 56.4785 25.1593C55.935 24.8943 55.4794 23.6759 55.5897 22.9854C55.9503 20.7288 56.5892 18.5167 57.1279 16.2587C55.6987 15.9213 55.1441 16.4087 55.0666 17.7434C54.9579 19.6139 54.7659 21.4854 54.4886 23.3383C54.2875 24.6821 53.5646 25.5925 52.0043 25.473C50.3425 25.3458 50.548 24.0637 50.6048 23.051C50.7037 21.286 50.9916 19.5317 51.2447 17.399C48.9266 18.0181 46.8781 18.5652 44.7516 19.2675ZM51.8408 13.568C52.0789 11.5705 52.3169 9.57289 52.555 7.57532C52.3425 7.51338 52.13 7.45145 51.9175 7.38952C50.2465 10.0726 48.5756 12.7557 46.9046 15.4387C47.0985 15.6666 47.2924 15.8945 47.4863 16.1223C48.9236 15.3878 50.3608 14.6534 51.8408 13.568ZM63.5042 6.77756C63.483 6.37388 63.4618 5.9702 63.4407 5.56652C63.3207 5.53877 63.2006 5.51102 63.0806 5.48328C62.4594 7.58162 61.8383 9.67997 61.1036 12.1617C62.2685 11.7923 62.9904 11.5633 63.7497 11.3225C63.6723 9.84535 63.6011 8.48762 63.5042 6.77756ZM38.0995 8.99267C37.9095 8.97725 37.7194 8.96183 37.5294 8.9464C37.6641 9.04788 37.7987 9.14935 38.0995 8.99267Z" fill="#F8F8F8"/>
<path d="M4.15076 28.3408C2.2146 28.4786 1.81757 27.6937 2.46427 26.1093C5.1618 19.5007 7.78183 12.8596 10.5767 6.29275C10.9096 5.51036 12.1399 5.10984 12.9542 4.53231C13.3275 5.34751 13.9989 6.15527 14.0194 6.97927C14.0869 9.68195 13.9179 12.3905 13.8398 15.0968C14.0296 15.1378 14.2193 15.1788 14.4091 15.2197C15.8688 11.8923 17.3641 8.57995 18.7726 5.23102C19.4483 3.62443 20.4962 3.06747 22.577 3.64247C21.5187 6.11442 20.4669 8.4301 19.5296 10.7912C17.7769 15.2061 16.0931 19.6484 14.3745 24.0769C14.035 24.9517 13.8069 25.9186 13.2666 26.6506C12.874 27.1825 12.0053 27.7277 11.4356 27.6479C10.9865 27.585 10.3533 26.5814 10.3472 25.99C10.3158 22.9581 10.4627 19.9243 10.5432 16.8911C10.5574 16.3543 10.552 15.8169 10.1815 15.1969C8.97309 18.5704 7.84926 21.9779 6.50884 25.2981C6.05894 26.4125 5.05745 27.3042 4.15076 28.3408Z" fill="#F8F8F8"/>
<path d="M34.1385 4.26808C31.0924 10.4498 28.07 16.4828 25.0741 22.5291C24.5307 23.6258 24.2261 24.862 23.5632 25.8707C23.1535 26.494 22.3258 27.0589 21.5955 27.2078C20.2793 27.4762 19.6297 26.8777 20.3319 25.4853C21.6254 22.9206 22.9379 20.3655 24.2191 17.7947C24.592 17.0466 24.8856 16.2589 25.4113 15.033C24.4142 15.0852 23.83 15.1235 23.2451 15.1451C21.1316 15.2231 20.1057 14.2636 20.7327 12.2527C21.5855 9.51746 22.7674 6.86713 24.04 4.29505C24.3037 3.76214 25.5826 3.73157 26.3937 3.46949C26.3955 4.11708 26.5542 4.8143 26.3683 5.40256C25.8929 6.90658 25.1925 8.34041 24.7355 9.84879C24.5766 10.3731 24.868 11.0339 24.9538 11.6324C25.5559 11.4856 26.349 11.5274 26.7197 11.1521C27.4578 10.4048 28.0042 9.4527 28.5565 8.54084C29.4872 7.00434 30.2715 5.37215 31.2839 3.89425C32.2573 2.47332 33.34 2.39626 34.1385 4.26808Z" fill="#F8F8F8"/>
</svg>
