<svg width="138" height="32" viewBox="0 0 138 32" fill="none" xmlns="http://www.w3.org/2000/svg">
<path fill-rule="evenodd" clip-rule="evenodd" d="M58.7422 4.61993L58.8384 6.45666L51.449 6.84392L52.5149 27.1819L48.6748 27.3831L47.6089 7.04517L40.201 7.4334L40.1047 5.59668L58.7422 4.61993ZM117.513 1.53988L119.613 1.42981L135.013 16.4963L134.183 0.666247L136.035 0.56919L137.197 22.7428L136.332 22.7881L119.608 6.04542L120.533 23.6937L118.684 23.8332L117.515 1.53977L117.513 1.53988ZM98.3591 16.1735L106.462 15.7488L102.089 7.34808L98.3591 16.1735ZM103.146 2.29283L114.88 24.002L111.047 24.2028L107.237 17.1173L97.7758 17.6132L94.6063 25.0645L92.5702 25.1712L102.212 2.34175L103.145 2.29288L103.146 2.29283ZM91.7891 2.88802L73.1527 3.86471L73.249 5.70143L80.6569 5.3132L81.7228 25.6512L85.5596 25.4501L84.4938 5.11212L91.8831 4.72486L91.7869 2.88813L91.7891 2.88802ZM64.0257 4.34303L67.8659 4.14178L69.028 26.3165L65.1879 26.5177L64.0257 4.34303Z" fill="#F8F8F8"/>
<path fill-rule="evenodd" clip-rule="evenodd" d="M24.7591 14.4627C27.0855 19.2478 24.4557 26.5572 19.7061 28.5189L18.7315 9.92182L26.4117 9.51932L28.2771 6.21649L15.2653 6.89841L16.4349 29.2158L16.5213 30.8652C23.2401 30.0837 29.132 24.3851 28.775 17.5731C28.7141 16.4552 28.5093 15.3497 28.1657 14.2842L24.7591 14.4627ZM13.9591 6.96686L0.953857 7.64844L3.14547 10.7387L10.8279 10.336L11.8025 28.9321C6.92052 27.4925 3.41417 20.3889 5.32318 15.4813L1.89485 15.661C1.66457 16.7566 1.57644 17.8774 1.63265 18.9956C1.98965 25.8076 8.44497 30.8591 15.2086 30.934L15.1222 29.2846L13.9526 6.9672L13.9591 6.96686Z" fill="#F8F8F8"/>
</svg>
