<svg width="106" height="24" viewBox="0 0 106 24" fill="none" xmlns="http://www.w3.org/2000/svg">
<path d="M29.2761 10.884C29.8881 10.5621 30.0665 9.81241 30.8541 9.68999C30.9602 10.2846 30.5592 10.6505 30.2872 11.0279C29.1067 12.6661 28.0512 14.3828 27.0149 16.1129C26.4202 17.1058 26.0724 18.1252 26.1131 19.3373C26.1435 20.2454 25.2168 20.733 24.5834 21.2423C23.9291 21.7682 23.0614 21.9418 22.2264 22.1002C21.6527 22.2091 21.2382 21.9245 20.8462 21.5721C20.3279 21.106 19.8103 20.6392 19.2933 20.1718C19.1856 20.0745 18.9762 19.9518 18.9914 19.8769C19.3076 18.3201 17.7618 17.8767 17.185 16.8585C16.7169 16.0322 16.0705 15.3089 15.5589 14.5044C15.2321 13.9904 15.0058 13.9138 14.5964 14.4256C13.5122 15.7809 12.4803 17.0963 13.5191 18.9844C13.8861 19.6514 13.1641 20.2131 12.9143 20.7642C12.3113 22.095 9.82724 22.1777 8.89023 21.0638C8.08337 20.1046 7.20908 19.3359 6.66797 18.0438C5.96892 16.3746 4.65313 14.9163 3.75391 13.2713C3.58999 12.9714 3.41878 12.8579 3.05423 12.9444C2.28423 13.1273 1.80945 12.7532 1.11832 12.3228C-0.34475 11.4116 0.894311 11.0219 1.23368 10.6084C2.10513 9.54666 2.95547 8.49321 4.44511 8.08202C5.90894 7.67796 6.88491 7.88633 7.5817 9.25102C8.09863 10.2635 8.51202 11.3264 9.18548 12.2618C9.58243 12.8132 9.90628 13.0249 10.2696 12.291C11.0359 10.7427 12.4097 9.62701 13.1587 8.03499C13.6889 6.90814 14.854 6.22983 15.9601 5.62573C16.1364 5.52949 16.3934 5.49867 16.5913 5.54045C17.157 5.65982 18.5708 7.51118 18.6489 8.1139C18.9131 10.154 20.1755 11.6766 21.4613 13.1219C22.081 13.8184 22.2956 12.8572 22.4674 12.4987C23.4892 10.3654 24.6769 8.35213 26.3557 6.66072C26.5883 6.42634 26.8086 6.17453 27.0668 5.97166C28.0128 5.22821 28.9418 4.80499 30.2925 4.72586C31.7852 4.63841 32.4785 5.36505 33.3458 6.1289C33.6466 6.39387 33.9605 6.74705 33.745 7.17685C33.525 7.61577 33.0715 7.51506 32.663 7.46664C32.1719 7.40841 31.4641 7.007 31.6254 8.08604C31.6551 8.28421 31.4399 8.40485 31.2548 8.42844C30.0667 8.5798 29.6839 9.61947 29.0344 10.4649C28.9143 10.8286 29.0572 11.1952 28.7352 11.4193C28.9545 11.3086 28.9724 11.0104 29.2761 10.884Z" fill="#F8F8F8"/>
<path d="M47.6775 15.5866C47.2056 16.7431 45.8675 17.3717 44.8128 17.0332C44.4015 16.9012 44.3997 16.5396 44.3178 16.2448C44.0888 15.4194 43.9036 14.5818 43.5091 13.7325C43.2665 14.5543 43.0091 15.372 42.7845 16.1987C42.4072 17.5873 41.2113 17.1401 40.3159 17.2654C39.4711 17.3836 39.6052 16.5572 39.4957 16.0936C38.9742 13.8857 38.5628 11.6508 38.0011 9.45403C37.7598 8.51045 38.1995 8.30353 38.9184 8.0965C39.7319 7.86225 40.2523 7.99326 40.4271 8.92155C40.7325 10.5435 41.0986 12.1543 41.2381 13.8038C41.2622 14.0888 41.2371 14.3905 41.5626 14.7791C42.0023 12.9825 43.0662 11.4155 42.3497 9.54922C42.0376 8.73651 42.4983 8.48518 43.1359 8.32851C43.7824 8.1697 44.4218 7.93185 44.6656 8.93785C45.0773 10.637 45.5688 12.3169 46.0591 14.1243C46.7597 13.2337 46.5148 12.2446 46.6721 11.3635C46.8125 10.5773 46.7606 9.75391 46.7641 8.9468C46.768 8.02926 47.5193 7.4146 48.4084 7.61012C48.9402 7.72707 48.8349 8.15073 48.8354 8.48882C48.8396 10.8879 48.4736 13.2298 47.6775 15.5866Z" fill="#F8F8F8"/>
<path d="M72.9278 6.31662C74.3637 6.43272 74.7114 6.95046 74.6015 8.81515C74.568 9.38229 74.757 10.1262 73.7806 10.2126C73.0084 10.2809 72.4713 10.2038 72.5326 9.22594C72.5698 8.6301 72.5594 8.0664 71.6404 8.07933C70.7569 8.09176 70.7481 8.64749 70.6848 9.23834C70.5548 10.4536 70.6502 11.6517 70.9025 12.8483C71.0721 13.6528 71.4573 14.0059 72.29 13.7449C72.815 13.5802 73.3738 13.4985 73.8711 13.2761C74.4722 13.0072 74.771 13.2118 74.9071 13.7732C75.0411 14.3262 75.3289 14.9423 74.4339 15.1785C73.2556 15.4893 72.0656 15.715 70.8445 15.6757C69.9105 15.6457 69.2554 15.1515 68.8835 14.3028C67.8445 11.9312 68.1497 9.58382 69.0295 7.24917C69.1972 6.80437 69.566 6.66695 69.983 6.61908C70.9306 6.51028 71.8799 6.416 72.9278 6.31662Z" fill="#F8F8F8"/>
<path d="M92.5988 14.1346C92.4058 11.5175 92.2542 8.99395 92.0425 6.47544C91.9831 5.76967 92.2018 5.48453 92.8951 5.39665C94.1696 5.23507 95.4434 5.12836 96.7287 5.11314C97.4119 5.10506 97.612 5.40984 97.5854 6.05129C97.5586 6.69793 97.4194 7.13685 96.6395 7.00772C96.4244 6.9721 96.2008 6.98696 95.981 6.98083C94.4773 6.9389 94.0738 7.54365 94.6236 8.96193C94.7443 9.27348 94.9366 9.32817 95.2088 9.31272C95.5747 9.29196 95.9425 9.23055 96.3053 9.25301C96.7009 9.2775 97.34 8.85948 97.35 9.73028C97.3578 10.4027 97.2374 10.9253 96.38 11.0353C94.8097 11.2366 94.815 11.278 94.8967 12.9303C94.9704 14.4197 94.0986 14.9167 92.5988 14.1346Z" fill="#F8F8F8"/>
<path d="M103.236 13.2174C102.898 14.3518 101.985 14.0462 101.3 14.0435C100.581 14.0406 100.842 13.3322 100.817 12.9136C100.716 11.2294 100.627 9.54291 100.603 7.85628C100.592 7.07451 100.398 6.64464 99.5351 6.85214C98.6404 7.06723 98.3711 6.63948 98.3482 5.81181C98.3339 5.29464 98.5102 5.07632 98.9961 5.00672C100.852 4.74089 102.721 4.653 104.59 4.59993C105.412 4.57661 105.205 5.25495 105.259 5.72273C105.314 6.2067 105.224 6.54577 104.603 6.62557C102.854 6.85012 102.855 6.87736 102.957 8.61231C103.046 10.1138 103.141 11.6148 103.236 13.2174Z" fill="#F8F8F8"/>
<path d="M56.1059 7.40158C56.5114 9.29759 56.4635 11.1715 56.5398 13.0369C56.607 14.6786 56.606 14.746 58.19 14.436C59.1944 14.2394 59.4351 14.6104 59.4081 15.4963C59.3926 16.0073 59.1533 16.2505 58.6867 16.2801C57.5153 16.3544 56.3425 16.4072 55.1701 16.4649C54.665 16.4898 54.4793 16.246 54.4439 15.7388C54.2806 13.3956 54.0676 11.0558 53.8992 8.71283C53.8031 7.3772 53.8894 7.30515 55.2535 7.29137C55.5085 7.2888 55.764 7.33335 56.1059 7.40158Z" fill="#F8F8F8"/>
<path d="M51.3866 7.49101C52.0652 7.44371 52.327 7.66515 52.3523 8.29832C52.4522 10.7958 52.5883 13.2921 52.7383 15.7871C52.8079 16.9435 51.9032 16.5407 51.3583 16.6794C50.7715 16.8287 50.3899 16.6875 50.3604 15.9416C50.2618 13.4441 50.1357 10.947 49.9699 8.45313C49.8961 7.34247 50.6826 7.57707 51.3866 7.49101Z" fill="#F8F8F8"/>
<path fill-rule="evenodd" clip-rule="evenodd" d="M64.8384 6.76583C63.3276 6.77463 61.8321 6.88497 60.2534 7.18864C59.7255 7.38198 59.7749 7.73145 59.8204 8.05314C59.8301 8.12218 59.8397 8.18994 59.8434 8.2546C59.8816 8.93151 59.9328 9.60793 59.9841 10.2843C60.066 11.3644 60.1478 12.4443 60.1765 13.5257L60.1769 13.5398C60.247 16.1853 60.2479 16.2184 62.9622 16.1133C63.1401 16.1064 63.3179 16.0968 63.4957 16.0871L63.5122 16.0862C65.2426 15.9926 66.4019 15.113 66.9826 13.4978C67.6272 11.7045 67.59 9.91885 66.8501 8.14753C66.4705 7.2386 65.8673 6.75984 64.8384 6.76583ZM65.0149 12.3382C65.0912 11.4591 64.9818 10.5878 64.7958 9.63104C64.771 9.53991 64.7529 9.46178 64.7368 9.39239C64.7116 9.28392 64.6914 9.19681 64.6585 9.1148C64.3093 8.24443 63.648 8.36799 63.032 8.48309C62.8747 8.51249 62.7202 8.54134 62.5747 8.55293C61.9972 8.59891 62.0852 9.01451 62.1646 9.38983C62.1881 9.50077 62.2108 9.6082 62.2154 9.70152C62.2727 10.8689 62.3724 12.0352 62.4958 13.1976C62.5081 13.3139 62.4875 13.4443 62.4667 13.5758C62.4166 13.8921 62.3656 14.2139 62.7719 14.3562C63.2355 14.5186 63.7044 14.2782 64.1118 14.0146C64.7164 13.6233 64.956 13.0172 65.0149 12.3382Z" fill="#F8F8F8"/>
<path fill-rule="evenodd" clip-rule="evenodd" d="M76.7035 6.31407C76.0199 6.44384 75.9172 6.87013 75.9882 7.54101C76.0222 8.28256 76.0572 9.01434 76.0918 9.73944C76.1681 11.3352 76.2428 12.8986 76.3031 14.4625C76.3257 15.0486 76.3905 15.4946 77.1514 15.3414C77.2758 15.3164 77.4067 15.3063 77.5361 15.2964C78.0309 15.2583 78.5022 15.222 78.4979 14.3557C78.497 14.1852 78.4547 13.9864 78.4113 13.7823C78.2918 13.2204 78.1638 12.6187 78.8686 12.459C79.5172 12.312 79.7017 12.8692 79.8803 13.4086C79.9515 13.6236 80.0217 13.8358 80.1201 13.9994C80.8212 15.1661 81.207 15.37 82.5101 15.0283C83.0315 14.8917 83.2137 14.672 82.883 14.1924C82.7722 14.0316 82.6636 13.8689 82.555 13.7062C82.276 13.2884 81.997 12.8705 81.6798 12.484C81.3183 12.0434 81.2538 11.76 81.7132 11.3038C82.8478 10.1773 82.932 8.78706 82.5344 7.31056C82.3285 6.54612 81.8822 6.13886 81.0802 6.04028C79.5993 5.85824 78.1535 6.0388 76.7035 6.31407ZM79.256 7.59781C78.2467 7.59155 78.2039 8.10612 78.3006 8.9355C78.3306 10.9212 78.6678 11.2403 79.9287 10.5815C80.5878 10.2371 80.5986 9.61891 80.6089 9.03562C80.6099 8.97547 80.611 8.91569 80.6127 8.85661C80.6388 7.97674 80.2037 7.60369 79.256 7.59781Z" fill="#F8F8F8"/>
<path fill-rule="evenodd" clip-rule="evenodd" d="M84.2775 11.5807C84.0653 12.5687 83.8514 13.5648 83.6422 14.5758C84.7181 15.3062 85.6598 14.9274 85.8665 13.7858C85.883 13.695 85.8901 13.5977 85.8974 13.4997C85.925 13.1242 85.9533 12.7394 86.5068 12.681C86.7047 12.6601 86.9066 12.6229 87.109 12.5855C87.6504 12.4858 88.1954 12.3853 88.6763 12.5947C89.0206 12.7445 89.0593 13.1586 89.0979 13.5716C89.1147 13.7514 89.1315 13.9309 89.1735 14.0884C89.1795 14.1111 89.184 14.1346 89.1885 14.1582C89.1981 14.2085 89.2077 14.2587 89.2322 14.3C89.5776 14.8812 90.0444 14.7728 90.5044 14.6659C90.6774 14.6258 90.8494 14.5858 91.0137 14.5828C91.5919 14.5725 91.6177 14.1264 91.4864 13.7007C91.2248 12.8526 90.9834 11.9984 90.7419 11.1442C90.2748 9.49142 89.8077 7.83852 89.1942 6.22944C88.9682 5.63685 88.629 5.42243 88.0303 5.50973C87.5579 5.5786 87.0829 5.63827 86.6069 5.67054C85.7931 5.7257 85.4021 6.1228 85.2411 6.94953C84.9412 8.49037 84.6115 10.0254 84.2775 11.5807ZM87.0723 10.9901C87.585 11.0273 88.1495 11.0682 88.2621 10.1708C88.1621 9.86757 88.0856 9.56392 88.0097 9.26205C87.8288 8.54347 87.6505 7.83493 87.1616 7.16596C86.827 7.90042 86.7053 8.60206 86.5881 9.27735C86.5352 9.58242 86.4832 9.88212 86.4129 10.177C86.402 10.2229 86.387 10.2751 86.3712 10.3303C86.2808 10.6456 86.1616 11.0617 86.5942 10.9893C86.7352 10.9657 86.9009 10.9777 87.0723 10.9901Z" fill="#F8F8F8"/>
</svg>
